<?xml version="1.0" standalone="no"?>
<!DOCTYPE svg PUBLIC "-//W3C//DTD SVG 1.1//EN" "http://www.w3.org/Graphics/SVG/1.1/DTD/svg11.dtd" >
<svg xmlns="http://www.w3.org/2000/svg">
<metadata>
This is a custom SVG webfont generated by Font Squirrel.
</metadata>
<defs>
<font id="webfontRyAXJoKb" horiz-adv-x="319" >
<font-face units-per-em="1000" ascent="800" descent="-200" />
<missing-glyph horiz-adv-x="233" />
<glyph unicode=" "  horiz-adv-x="233" />
<glyph unicode="&#x09;" horiz-adv-x="233" />
<glyph unicode="&#xa0;" horiz-adv-x="233" />
<glyph unicode="!" horiz-adv-x="166" d="M92 455l-7 -62l-6 -59q-2 -17 -12 -69q-5 -26 -7 -41t-4 -20q-3 -18 -8 -36t-9 -29q-3 -6 -3 -9q0 -6 9 -13q11 -7 17 -7q8 0 12 6t12 33q5 16 11.5 39.5t12.5 47.5l12 49q5 24 8 42l12 58l14 55q2 7 3 13t1 11q0 7 -1 16.5t-3 17.5q-2 7 -5 10.5t-9 8.5 q-11 7 -19.5 11.5t-11.5 4.5q-11 0 -14 -33zM84 32q0 17 -11.5 29.5t-28.5 12.5q-14 0 -25.5 -13t-11.5 -30t10.5 -27.5t27.5 -10.5t28 11t11 28z" />
<glyph unicode="&#x22;" horiz-adv-x="234" d="M133 665q0 19 -26 19q-39 0 -39 -20v-13q0 -2 1 -3v-4q0 -35 -3 -51q-1 -5 -2 -12t-3 -15q-2 -10 -2 -11q0 -14 17 -14q29 0 49 87q2 7 2.5 11.5t1.5 6.5q4 11 4 19zM227 665q0 19 -27 19q-39 0 -39 -20q0 -10 1 -13v-7v-11q0 -6 -1 -14l-1 -26q-1 -9 -6 -27 q-2 -10 -2 -11q0 -14 17 -14q29 0 49 87q2 7 3 11.5t2 6.5q4 16 4 19z" />
<glyph unicode="$" horiz-adv-x="433" d="M427 486q0 58 -66 103l13 40l2 7q3 7 3 12q0 7 -8 12t-19 5q-14 0 -21 -7.5t-14 -27.5l-7 -21q-17 3 -30.5 4t-24.5 1q-55 0 -90.5 -32t-35.5 -83q0 -12 1.5 -24.5t6.5 -23.5l60 -161l-81 -242q-14 13 -22 22.5t-13.5 19t-8.5 21.5t-6 30q-3 19 -3 40q0 16 2 27t7 22 q3 9 3 14q0 7 -7 7q-5 0 -8 -1l-38 -7q-9 -2 -12.5 -7.5t-3.5 -21.5q0 -22 6.5 -49.5t16.5 -49.5q12 -29 29.5 -48t49.5 -42l-4 -13l-3 -7q-4 -8 -4 -18q0 -14 9 -23t22 -9t21.5 10.5t16.5 35.5q11 -1 19.5 -1.5t15.5 -0.5q37 0 72 16.5t58 45.5q25 31 25 79q0 31 -9 52 l-64 158l70 214q47 -33 47 -84q0 -25 -7 -42q-3 -9 -3 -14q0 -7 7 -7q11 0 24 35q6 18 6 34zM241 56q-13 -17 -26.5 -23t-40.5 -8l59 175l27 -71q3 -6 3 -15q0 -31 -22 -58zM285 586h8q4 0 8 -1l-50 -150l-22 50q-9 19 -9 41q0 60 65 60z" />
<glyph unicode="%" horiz-adv-x="456" d="M320 750l-245 -726l-3 -8q-3 -9 -3 -18q0 -13 9 -22.5t22 -9.5q22 0 36 42l242 742l2 7q2 5 2 12t-7.5 11.5t-18.5 4.5q-14 0 -21 -7t-15 -28zM449 202q0 45 -20.5 75t-50.5 30q-13 0 -28 -7.5t-29.5 -21t-28 -31.5t-23.5 -40q-23 -49 -23 -99q0 -46 20 -77t49 -31 q28 0 56.5 23t47.5 61q14 28 22 60t8 58zM210 646q0 45 -20.5 75t-50.5 30q-13 0 -28 -7.5t-29.5 -21t-28 -31.5t-23.5 -40q-23 -49 -23 -99q0 -46 20 -77t49 -31q28 0 56.5 23t47.5 61q14 29 22 60.5t8 57.5zM339 233q22 48 41 51h2q18 0 18 -33q0 -15 -4 -38t-10.5 -49 t-15 -52.5t-18.5 -48.5q-10 -23 -18.5 -33.5t-18.5 -10.5q-22 0 -22 46q0 11 3.5 28.5t10.5 43.5q8 29 16 52.5t16 43.5zM100 677q22 48 41 51h2q18 0 18 -33q0 -15 -4 -38t-10.5 -49t-15 -52.5t-18.5 -48.5q-19 -44 -37 -44q-22 0 -22 46q0 11 3.5 28.5t10.5 43.5 q8 29 16 53t16 43z" />
<glyph unicode="&#x26;" horiz-adv-x="472" d="M407 297q-11 0 -14 -1.5t-5 -7.5l-6 -17q-2 -8 -9 -23q-3 -8 -5.5 -13t-4.5 -8q-2 -4 -5 -9t-8 -10q-5 -8 -10 -8t-12 9q-2 4 -5 8.5t-6 9.5l-11 19q-5 8 -7 12q-8 17 -14.5 34t-6.5 23q0 4 7 10q3 2 8 5t12 8q29 20 49 37t31 31q13 17 20 42.5t7 52.5q0 38 -18 59.5 t-50 21.5q-27 0 -54.5 -17.5t-53.5 -49.5q-20 -24 -29.5 -46.5t-15.5 -55.5q-6 -32 -6 -56q0 -5 1 -12.5t1 -17.5v-3q0 -5 -2 -7t-9 -4q-54 -15 -96.5 -46.5t-60.5 -69.5q-13 -28 -13 -60q0 -28 11.5 -53t31.5 -44t45.5 -30t54.5 -11q31 0 75 19.5t81 49.5q6 4 7 4q3 0 8 -7 q2 -3 6.5 -8t10.5 -13l17 -19l9 -9q11 -13 28 -24q14 -11 23 -11q13 0 26 17q6 9 13 18t10 14q2 6 2 7q0 4 -3 8t-11 11q-14 10 -33 33l-16 19l-13 14q-17 22 -17 28q0 2 5 10q9 13 19 38t15 48q5 22 6 29.5t1 13.5q0 8 -11 8zM341 502v-6q0 -26 -10.5 -47.5t-35.5 -53.5 q-9 -11 -16.5 -17t-12.5 -6q-11 0 -11 38q0 14 4 33t12 39q10 26 24.5 42.5t28.5 16.5q8 0 12.5 -11t4.5 -28zM97 160q0 23 18.5 46.5t50.5 45.5l20 14q7 4 10 4q4 0 7 -10l14 -30q10 -21 20 -38q20 -36 39 -58q6 -8 6 -11q0 -4 -8.5 -12t-20.5 -16q-38 -26 -69 -26 q-17 0 -32.5 7.5t-27.5 20.5t-19.5 29t-7.5 34z" />
<glyph unicode="'" horiz-adv-x="141" d="M134 665q0 19 -26 19q-39 0 -39 -20v-13q0 -2 1 -3v-4q0 -35 -3 -51q-1 -5 -2 -12t-3 -15q-2 -10 -2 -11q0 -14 17 -14q29 0 49 87q2 7 2.5 11.5t1.5 6.5q4 11 4 19z" />
<glyph unicode="(" horiz-adv-x="196" d="M125 562q12 36 23.5 64.5t23.5 49.5l13 22q5 8 5 14q0 5 -6 10q-4 5 -10 5q-17 0 -42 -40.5t-50 -108.5q-24 -66 -41 -128.5t-25 -116.5q-9 -65 -9 -132q0 -39 3.5 -71.5t11.5 -61t20.5 -54.5t30.5 -52q18 -27 35 -27q11 0 17 8q4 4 4 9q0 7 -14 28q-51 83 -51 223 q0 88 15.5 177.5t45.5 181.5z" />
<glyph unicode=")" horiz-adv-x="196" d="M72 100q-12 -36 -23.5 -64t-24.5 -50l-13 -22q-4 -7 -4 -13t5 -11t11 -5q17 0 41.5 40.5t49.5 108.5q24 66 41 129t25 116q5 32 7.5 65t2.5 67q0 39 -3.5 71t-12 60.5t-21 55t-30.5 52.5q-18 27 -35 27q-11 0 -17 -8q-4 -4 -4 -9q0 -6 14 -28q25 -41 38.5 -97t13.5 -125 q0 -88 -15.5 -178t-45.5 -182z" />
<glyph unicode="+" horiz-adv-x="449" d="M195 452v-190h-188v-59h188v-190h60v190h188v59h-188v190h-60z" />
<glyph unicode="," horiz-adv-x="120" d="M97 73q-18 0 -32.5 -8t-17.5 -19l-4 -17q-3 -14 -9 -31.5t-14 -36.5q-1 -3 -4 -9l-6 -15q-3 -8 -3 -12q0 -9 12 -9q26 0 73 87q13 24 17.5 35t4.5 19q0 16 -17 16z" />
<glyph unicode="-" horiz-adv-x="144" d="M137 129q0 6 -3 8t-13 2h-5q-3 0 -7 -1q-20 -3 -31 -3q-5 0 -11 0.5t-12 1.5q-5 1 -9.5 1.5t-8.5 0.5q-16 0 -27 -24q-3 -6 -3 -15q0 -14 13 -14h4l13 3q5 0 11 0.5t12 0.5h9q12 0 19.5 -1t11.5 -3q9 -3 13 -3q9 0 16.5 14.5t7.5 31.5z" />
<glyph unicode="." horiz-adv-x="92" d="M85 34q0 19 -9 31t-26 12h-4q-17 0 -28 -12t-11 -29t11 -28t29 -11q38 0 38 37z" />
<glyph unicode="/" horiz-adv-x="325" d="M257 717l-244 -727l-3 -8q-3 -9 -3 -18q0 -14 9 -23t22 -9q23 0 36 42l240 743l2 7q3 7 3 11q0 8 -8 12.5t-19 4.5q-14 0 -21 -7.5t-14 -27.5z" />
<glyph unicode="0" horiz-adv-x="284" d="M277 271q0 30 -7 55t-19.5 44t-30 29.5t-37.5 10.5q-18 0 -37.5 -10t-39 -27.5t-37.5 -42t-31 -52.5q-16 -32 -23.5 -66t-7.5 -67q0 -30 7 -56.5t19.5 -46t29 -30.5t36.5 -11q38 0 75.5 30.5t62.5 81.5q19 38 29.5 80t10.5 78zM131 312q30 64 54 67h3q25 0 25 -43 q0 -15 -4.5 -43.5t-12.5 -61.5q-16 -74 -47 -146q-26 -58 -50 -58q-29 0 -29 61q0 26 18 95q21 79 43 129z" />
<glyph unicode="1" horiz-adv-x="179" d="M75 255l-2 -11l-38 -216q0 -3 -1 -6q-1 -4 -1 -10q0 -12 15 -12h41q11 0 15.5 5t7.5 22l57 323l3 12q0 3 0.5 5.5t0.5 5.5q0 18 -15 18q-5 0 -10.5 -3.5t-20.5 -18.5q-19 -18 -40.5 -33.5t-47.5 -29.5q-19 -10 -19 -44q0 -9 8 -9q3 0 8 3l13 8q18 11 22 11q6 0 6 -8 q0 -3 -0.5 -5.5t-1.5 -6.5z" />
<glyph unicode="2" horiz-adv-x="260" d="M7 10q0 -6 5 -8t19 -2h145q8 0 12.5 3t9.5 11l42 70q5 10 5 14q0 2 -2 4q-1 1 -3 1q-3 0 -7 -3q-13 -10 -38.5 -16t-54.5 -6q-8 0 -20.5 0.5t-21.5 0.5q-7 1 -7 6q0 4 5 11q12 14 23 25.5t21 19.5l41 32q35 27 54 60.5t19 65.5q0 43 -26 71t-67 28q-25 0 -46.5 -11 t-38 -29.5t-26 -44t-9.5 -53.5q0 -33 13 -59q6 -13 13 -13q6 0 6 6q0 3 -2 13q0 3 -0.5 7t-0.5 9q0 22 5.5 46.5t13.5 44.5q11 26 26 41t29 15t22.5 -16t8.5 -42q0 -14 -3.5 -32t-9.5 -35q-8 -22 -21.5 -42.5t-38.5 -52.5l-33 -42q-27 -35 -44.5 -62t-17.5 -36z" />
<glyph unicode="3" horiz-adv-x="266" d="M120 246q-5 0 -7.5 -3t-5.5 -14l-7 -24q0 -1 -0.5 -2.5t-0.5 -3.5q-1 -3 -1 -7q0 -11 14 -11q7 0 12 1q11 2 14 2.5t5 0.5q16 0 16 -43q0 -24 -5.5 -45.5t-14.5 -38t-21.5 -26t-25.5 -9.5q-24 0 -38.5 18t-14.5 49q0 44 17 75q3 4 3 9q0 3 -1 4q-2 2 -5 2q-11 0 -32 -35 q-14 -25 -14 -55q0 -44 26.5 -69t71.5 -25q26 0 49 10t40.5 27t28 40t10.5 49q0 37 -21 66q-7 8 -9 12t-2 7q0 5 3 8l6 5q3 4 10 10q17 15 28.5 39.5t11.5 47.5q0 38 -21.5 60.5t-57.5 22.5q-17 0 -36 -7.5t-36.5 -20t-32.5 -30t-24 -37.5q-2 -4 -4.5 -10t-5.5 -14 q-1 -4 -3 -10v-1q0 -8 6 -8q4 0 10 10q20 39 47 62t53 23q15 0 25 -15.5t10 -38.5q0 -10 -2 -22t-6 -21l-7 -15q-4 -11 -12 -11q-3 0 -9 2l-12 5q-3 2 -14 4q-3 1 -8 1z" />
<glyph unicode="4" horiz-adv-x="277" d="M203 385l-5 -6l-180 -226q-11 -15 -11 -26t8 -15.5t30 -4.5h3h33h19h13q6 0 8 -4q3 -2 3 -8q0 -4 -3 -17l-12 -46l-2 -5q-1 -3 -1 -9q0 -13 13 -13h2h6l32 4q11 2 14 2.5t7 5.5q4 3 5 6t3 13l10 50q2 13 6.5 17t13.5 4h1h9q11 0 18 8q2 4 4.5 8.5t7.5 18.5q2 5 4 8.5 t4 6.5q3 6 3.5 8.5t0.5 6.5q0 11 -5 11q-2 0 -6 -2q-13 -8 -27 -8q-10 0 -10 8q0 1 2 9l1 7l39 168l2 8q1 5 1.5 8.5t0.5 5.5q0 15 -15 15l-1 -1l-16 -1q-11 0 -13 -1q-4 0 -8 -3q-5 -3 -12 -11zM83 193l3 3l64 82q10 11 13 11q4 0 4 -7q0 -4 -1 -7q-1 -2 -1 -3t-1 -3 l-18 -79q-2 -10 -6 -13t-17 -3h-33q-14 0 -14 7q0 2 1 4.5t6 7.5z" />
<glyph unicode="5" horiz-adv-x="261" d="M237 400h-8h-121q-14 0 -19 -4.5t-8 -18.5l-32 -152q0 -2 -1 -5q-3 -12 -3 -22q0 -13 8 -13q5 0 7 2l10 8q8 5 19 9t19 4q23 0 36 -16t13 -44q0 -25 -6 -47t-16 -38t-23.5 -25t-28.5 -9q-19 0 -33 18t-14 42q0 8 2.5 19.5t5.5 17.5q4 8 4 13q0 2 -2 6q-2 2 -5 2h-1 q-8 0 -21 -22q-12 -20 -12 -38q0 -17 7 -32.5t19 -27t27.5 -18.5t32.5 -7q27 0 53 14t45.5 37.5t31.5 53.5t12 62q0 42 -20.5 68.5t-53.5 26.5q-13 0 -25 -3.5t-32 -11.5q-2 -2 -4 -2h-3q-6 0 -6 6v3q0 2 2 7l15 50q4 14 7.5 17.5t13.5 3.5q4 0 8.5 -0.5t9.5 -1.5 q4 -1 14.5 -1.5t27.5 -2.5q7 -1 12 -1.5t10 -0.5h2q8 0 11 1.5t6 6.5q9 17 16.5 35t7.5 23q0 9 -10 9q-1 0 -2.5 -0.5t-4.5 -0.5z" />
<glyph unicode="6" horiz-adv-x="259" d="M136 282q19 35 43 68.5t44 51.5l20 18q9 8 9 16q0 12 -9 12q-7 0 -32 -19t-58 -49q-38 -36 -63.5 -69.5t-48.5 -76.5q-18 -35 -26 -63.5t-8 -57.5q0 -48 25.5 -79t65.5 -31q37 0 72 25t55 67q10 19 15.5 39.5t5.5 37.5q0 34 -15.5 55t-40.5 21q-13 0 -29.5 -6.5 t-28.5 -15.5q-4 -4 -6 -5.5t-4 -3.5q-2 -1 -6 -1q-5 0 -5 3q0 4 3 12q6 18 10 27t12 24zM112 165q17 25 35 25h1q12 0 19.5 -12t7.5 -32q0 -18 -6 -41t-14 -37q-22 -40 -48 -40q-29 0 -29 47q0 20 9 44.5t25 45.5z" />
<glyph unicode="7" horiz-adv-x="262" d="M44 381l-2 -6l-19 -42q-2 -5 -2.5 -6.5t-0.5 -3.5q0 -7 7 -7q2 0 8 2q13 6 22.5 7.5t29.5 1.5h10q6 0 12 -1q17 -1 27.5 -1.5t13.5 -0.5q10 1 15 1h6q11 0 11 -8q0 -1 -4 -9l-7 -14l-13 -22q-2 -5 -5 -10t-7 -13q-4 -7 -7 -11t-7.5 -6t-11 -2.5t-18.5 -0.5h-12 q-5 1 -12 1q-10 0 -14 -8q-7 -11 -7 -19t11 -10h16q17 0 22.5 -2t5.5 -7q0 -3 -3 -9q-3 -7 -5 -12.5t-13 -25.5q-5 -9 -8.5 -16.5t-6.5 -16.5l-8 -18l-10 -24q-5 -11 -8 -20t-6 -15q-4 -7 -4 -14q0 -8 9 -8q1 0 3 0.5t4 0.5l53 6q10 1 14 4t6 11l5 20l11 38l15 52l10 28 q6 17 9 21.5t11 5.5q5 1 12.5 1.5t14.5 0.5h2h2q22 0 22 23q0 13 -18 13h-1h-11q-16 0 -16 9q0 3 2 9l8 22l15 39l16 37q5 11 7.5 17t3.5 8q5 9 5.5 12t0.5 6q0 11 -14 11h-1l-176 -4q-15 0 -20 -15z" />
<glyph unicode="8" horiz-adv-x="254" d="M162 413h-7q-22 0 -40 -8.5t-31.5 -22.5t-21 -33t-7.5 -40q0 -19 5.5 -35.5t21.5 -42.5l4 -8q3 -5 3 -9q0 -6 -13 -14q-23 -14 -40 -32q-17 -20 -23 -34.5t-6 -37.5q0 -44 24.5 -70t66.5 -26q25 0 47 9.5t38.5 26t26 38.5t9.5 47q0 20 -8.5 44t-22.5 47q-5 7 -5 8 q-3 4 -3 8q0 6 12 13q24 14 39.5 39.5t15.5 51.5q0 35 -23.5 58t-61.5 23zM125 336q0 21 12.5 35t32.5 14q17 0 29 -14t12 -33q0 -11 -4.5 -26t-10.5 -26q-7 -11 -17 -19.5t-15 -8.5q-7 0 -18 21q-11 20 -16 33t-5 24zM99 26h-4q-22 0 -33.5 18.5t-11.5 50.5q0 20 5.5 34 t22.5 33q17 20 26 20q5 0 13.5 -12t18.5 -32q15 -32 15 -53q0 -26 -14.5 -42.5t-37.5 -16.5z" />
<glyph unicode="9" horiz-adv-x="246" d="M239 283q0 60 -25 95t-68 35q-25 0 -51 -17t-50 -49q-38 -50 -38 -102q0 -41 17.5 -65.5t46.5 -24.5q16 0 31 6.5t35 21.5l3 1q1 1 3 1q4 0 4 -8q0 -7 -7.5 -25t-19.5 -43q-16 -32 -34 -57t-38 -44q-2 -2 -8 -7l-16 -13q-11 -10 -11 -16q0 -3 3 -6t7 -3q5 0 13 5 q21 13 36.5 24t34.5 28q30 27 54.5 59.5t41.5 67t26.5 69t9.5 67.5zM76 254q0 25 5 48t13.5 41t19.5 28.5t23 10.5q29 0 29 -60q0 -24 -4.5 -45.5t-13 -37.5t-19.5 -25.5t-23 -9.5q-30 0 -30 50z" />
<glyph unicode=":" horiz-adv-x="117" d="M110 184q0 19 -11 31.5t-27 12.5q-14 0 -25.5 -12t-13.5 -29v-5q0 -36 39 -36q38 0 38 38zM85 34q0 19 -9 31t-26 12h-4q-17 0 -28 -12t-11 -29t11 -28t29 -11q38 0 38 37z" />
<glyph unicode=";" horiz-adv-x="153" d="M147 197q0 17 -10.5 27.5t-27.5 10.5q-15 0 -24.5 -10.5t-9.5 -26.5t10 -26t26 -10t26 9.5t10 25.5zM97 73q-18 0 -32.5 -8t-17.5 -19l-4 -17q-3 -14 -9 -31.5t-14 -36.5q-1 -3 -4 -9l-6 -15q-3 -8 -3 -12q0 -9 12 -9q26 0 73 87q13 24 17.5 35t4.5 19q0 16 -17 16z" />
<glyph unicode="=" horiz-adv-x="449" d="M443 275v59h-436v-59h436zM443 131v59h-436v-59h436z" />
<glyph unicode="?" horiz-adv-x="213" d="M127 542h-6q-24 0 -44.5 -12t-36 -32.5t-24.5 -47.5t-9 -56q0 -34 8 -57.5t19 -23.5q13 0 13 13q-1 1 -1 2l-3 11q-3 9 -3 23q0 29 7 56t18 47.5t26 33t32 12.5q11 0 18 -8.5t7 -22.5q0 -26 -21 -68l-11 -21q-4 -9 -10.5 -20.5t-16.5 -26.5l-25 -40q-27 -42 -37.5 -67 t-10.5 -46q0 -30 16 -53t37 -23t39.5 10t32.5 27.5t22 41t8 50.5q0 40 -13 40q-15 0 -18 -28q-1 -14 -6 -32t-13 -32t-22 -25t-24 -11q-15 0 -15 20q0 12 6.5 29.5t20.5 37.5l18 25l22 31q22 30 37.5 53.5t25 43t13.5 36t4 32.5q0 34 -22.5 56t-57.5 22zM102 36 q0 17 -11.5 29.5t-28.5 12.5q-14 0 -25 -13t-11 -30t11 -29t26 -12t27 12.5t12 29.5z" />
<glyph unicode="A" horiz-adv-x="596" d="M502 231l42 219l4 20q3 14 6.5 38t8.5 62q2 14 3 26t1 23q0 31 -17 51t-44 20q-32 0 -75.5 -28.5t-88.5 -79.5q-23 -26 -48 -58l-46 -62q-23 -32 -41.5 -61t-28.5 -49q-8 -17 -13.5 -22.5t-12.5 -5.5q-3 0 -7.5 1.5t-12.5 3.5q-14 5 -26.5 6.5t-26.5 1.5q-37 0 -58 -13 t-21 -36q0 -20 20.5 -41.5t52.5 -37.5q14 -7 19 -11.5t5 -10.5t-3 -13q-11 -28 -18.5 -50t-14.5 -54q-8 -32 -12 -61q-5 -29 -8 -54t-3 -39t10 -14q4 0 12 3l49 20q9 4 12 9t3 19q0 9 2 31t4 41q4 28 9 55.5t10 43.5l8 29q4 14 9 18.5t13 4.5q3 0 11 -1t19 -3q5 -1 13 -2 t19 -2q14 -1 22 -1.5t13 -0.5l21 -1q11 -1 16.5 -6t17.5 -27l11 -22q5 -9 8 -16l6 -13q2 -6 5 -14q5 -16 7 -32l3 -23q1 -12 18 -12h49q14 0 19 5t8 22l23 128q2 13 7.5 18t22.5 7l28 4q11 2 18 7.5t15 19.5q11 20 11 24q0 2 -2 4q-3 3 -5 3q-3 0 -6 -3l-15 -10 q-30 -21 -49 -21q-12 0 -12 15q0 5 1 8zM457 475l-4 -16l-43 -233l-2 -11q-3 -16 -7.5 -20.5t-16.5 -5.5q-9 0 -16.5 -0.5t-12.5 -0.5q-6 -1 -11 -1h-8q-11 0 -16 2.5t-12 12.5q-6 9 -12 16l-13 14q-7 8 -17 17l-25 22q-14 13 -20 17q-11 8 -11 15t4 15l13 30q15 35 36.5 74 t45.5 75.5t49 68t48 51.5q27 25 49 25q21 0 21 -29q0 -8 -0.5 -16t-1.5 -19l-4 -24q-2 -15 -6 -37q-3 -17 -4.5 -27t-2.5 -15zM46 278q0 20 37 23q2 1 6 1q23 0 37 -5.5t14 -13.5q0 -1 -4 -11q-2 -5 -4.5 -10t-5.5 -12q-9 -20 -19 -20q-13 0 -36 16q-25 17 -25 32zM241 242 q26 -19 32 -27l9 -13q4 -4 4 -8q0 -6 -11 -6q-39 0 -69 8t-30 18q0 3 2 11l7 21q2 8 7.5 13t10.5 5t16 -6t22 -16zM341 158q0 4 9 6l18 1h12q14 0 14 -14v-7q0 -3 -1 -6q-4 -19 -4 -23q-1 -22 -10 -22q-7 0 -17 22q-2 5 -5 11l-6 12l-7 13q-3 4 -3 7z" />
<glyph unicode="B" horiz-adv-x="609" d="M354 684l-5 -2l-62 -23q-10 -4 -12.5 -6.5t-4.5 -10.5q-2 -9 -3.5 -25.5t-3.5 -33.5q-3 -32 -3 -38q-1 -5 -2 -11t-2 -13q-2 -7 -4 -9.5t-7 -7.5q-21 -17 -41.5 -37t-40 -41t-36.5 -42t-30 -40q-29 -44 -52.5 -95.5t-32.5 -96.5q-3 -13 -4 -27t-1 -31q0 -45 15 -73 t40 -28q23 0 55 27.5t67 76.5q19 27 34 52.5t28 52t24.5 56t23.5 66.5l14 46q7 20 12.5 41t10.5 43l11 52q6 29 9 36t11 12q41 26 83 26q32 0 50 -17t18 -48q0 -20 -12.5 -47.5t-30.5 -47.5q-16 -17 -41 -37t-48 -33l-22 -12q-17 -9 -26 -39q-3 -8 -4.5 -17t-1.5 -13 q0 -19 36 -32l38 -14q61 -23 92.5 -54.5t31.5 -68.5q0 -39 -27 -63t-72 -24q-25 0 -45.5 9.5t-45.5 32.5q-42 41 -51 74q-4 16 -11 16q-4 0 -11 -8l-26 -29q-2 -3 -3.5 -5t-1.5 -5q0 -9 15 -26.5t38 -35.5q60 -47 130 -47q37 0 69.5 13t56.5 36t38 53.5t14 65.5 q0 93 -153 160q-20 9 -20 18q0 8 20 22q26 17 44.5 31.5t43.5 38.5q14 13 25.5 25.5t20.5 24.5q14 18 21.5 38.5t7.5 40.5q0 35 -26.5 57.5t-69.5 22.5q-58 0 -129 -40q-6 -3 -10 -3q-8 0 -8 10v6q0 4 1 9q4 15 6 31t2 26t-7 10q-4 0 -7 -1zM245 457v-9q0 -4 -2 -9l-11 -61 q-3 -17 -8 -38l-12 -51l-11 -43q-5 -20 -9 -34q-12 -42 -24 -72.5t-26 -56.5q-32 -56 -60 -56q-21 0 -25 16q-3 10 -5 24t-2 28q0 25 9 65t23 78q32 88 91 163q23 29 41.5 47t24.5 18t6 -9z" />
<glyph unicode="C" horiz-adv-x="461" d="M214 401q8 25 20 51.5t25 50.5t26 44t24 31l25 26q6 7 6 10q0 5 -4 5q-5 0 -13.5 -5.5t-19.5 -15.5t-23.5 -22.5t-23.5 -25.5q-22 -27 -40 -58.5t-31 -65t-20.5 -66.5t-7.5 -63q0 -53 23 -86.5t58 -33.5q18 0 39 10.5t43 29t43 44.5t39 57q20 35 31.5 70.5t19.5 83.5 q6 37 6 69q0 33 -8 60t-22.5 46.5t-34.5 30.5t-44 11q-22 0 -47.5 -9t-52.5 -25t-54.5 -39t-51.5 -50q-65 -74 -101 -169.5t-36 -191.5q0 -42 6 -73t23 -61q26 -49 65 -68q15 -8 37.5 -12t45.5 -4q114 0 200 106q16 19 26 36.5t23 47.5q5 13 5 19q0 8 -6 8q-3 0 -5.5 -3.5 t-7.5 -14.5q-2 -7 -21 -32q-8 -11 -16 -20l-14 -17q-11 -13 -23.5 -25t-26.5 -24q-30 -25 -54 -36t-48 -11q-27 0 -50 16t-39.5 44.5t-26 67t-9.5 84.5q0 48 12 100.5t33.5 103t51.5 96.5t66 83q23 23 45.5 36t41.5 13q25 0 39.5 -20.5t14.5 -55.5q0 -24 -4.5 -54.5t-12 -64 t-18 -67t-22.5 -63.5q-14 -32 -30 -63t-29 -48q-9 -12 -21 -19t-24 -7q-19 0 -31 22t-12 56q0 23 6 55.5t17 64.5z" />
<glyph unicode="D" horiz-adv-x="786" d="M232 24q6 0 15 -3l39 -12q40 -12 76.5 -17.5t70.5 -5.5q72 0 135 25t110 67.5t74 100t27 123.5q0 79 -34.5 146t-100.5 115q-34 25 -72.5 43t-77.5 29q-11 3 -14.5 6.5t-5.5 12.5q-5 23 -16 23q-9 0 -11 -7l-1 -9q-1 -10 -11 -10h-4q-22 3 -48 4.5t-44 1.5 q-60 0 -116 -16t-103 -46q-52 -34 -77 -78.5t-25 -104.5q0 -50 19.5 -93.5t54 -76.5t82.5 -54.5t106 -27.5q10 -1 10 -7q0 -5 -3 -9l-29 -42q-15 -21 -25 -21q-6 0 -13 3q-22 7 -55 12.5t-55 5.5q-21 0 -39.5 -5t-33 -14t-22.5 -20.5t-8 -24.5q0 -24 23.5 -39t61.5 -15 q26 0 55 7.5t52 19.5q16 8 21.5 10.5t11.5 2.5zM99 49q8 0 14.5 -0.5t12.5 -1.5l30 -5q17 -3 17 -8q0 -7 -20 -14l-24 -8q-10 -3 -21.5 -5t-22.5 -2q-23 0 -37.5 6t-14.5 16q0 9 19.5 15.5t46.5 6.5zM150 243q-62 56 -62 141q0 51 23 95t62.5 77t93 52t114.5 19 q22 0 38.5 -2.5t20.5 -5.5q4 -4 4 -14q0 -16 -7 -50.5t-16 -65.5l-14 -47q-8 -27 -17 -54l-18 -52l-16 -45q-14 -39 -24.5 -63.5t-18.5 -38.5q-6 -9 -14 -9q-16 0 -36.5 5t-41 14t-39.5 20.5t-32 23.5zM497 22q-23 0 -55 5.5t-72 16.5l-45 12q-30 9 -30 16q0 5 21 22 q12 9 27.5 24.5t29.5 32.5q6 8 10 9.5t15 3.5q12 1 27 4.5t29.5 7.5t27.5 9t22 10q8 5 8 12q0 5 -2.5 12t-5.5 12q-4 6 -8 6q-3 0 -6 -3l-13 -12q-7 -6 -17.5 -11.5t-28.5 -12.5q-12 -4 -16 -4q-9 0 -9 7q0 5 5 12q4 7 12 25l16 35l15 37q7 18 12 35q11 39 17 82.5t6 85.5 q0 29 -3 59l-2 15v7q0 10 7 10q6 0 13 -4l17 -9q80 -42 123.5 -118.5t43.5 -167.5q0 -58 -15.5 -109.5t-41.5 -90t-60.5 -61t-73.5 -22.5z" />
<glyph unicode="E" horiz-adv-x="470" d="M94 525q-2 0 -5 -3l-8 -12l-8 -13q-1 -2 -1 -7q0 -13 8.5 -27t22.5 -27t32 -23t38 -15q18 -5 24 -8.5t6 -10.5q0 -8 -3 -16.5t-7 -11.5q-5 -5 -10.5 -7t-23.5 -10q-75 -30 -113.5 -77.5t-38.5 -109.5q0 -75 47 -120t125 -45q36 0 72 9.5t69 26.5t60.5 41.5t47.5 54.5 q12 19 21.5 41t9.5 32q0 5 -2 7q-3 4 -5 4t-5 -3t-5 -7l-13 -25q-34 -65 -88 -104t-113 -39q-29 0 -53 10.5t-41 30t-27 46t-10 58.5q0 35 13 67.5t35 53.5q17 17 46 29.5t64 19.5q8 2 12.5 2.5t7.5 1.5q6 1 12 5t6 15v2l-2 15v4q0 12 3.5 18t13.5 11l25 12q29 14 54 35 t43.5 46t29 52t10.5 54q0 29 -18 48.5t-44 19.5q-52 0 -109 -57q-29 -28 -45.5 -54t-30.5 -64q-6 -16 -9 -29t-5 -24q-2 -17 -5 -23t-10 -6q-17 0 -38 13t-35 30q-9 13 -14 24.5t-7 26.5q-2 12 -6 12zM417 601v-2q0 -39 -21.5 -77.5t-56.5 -66.5q-26 -22 -37 -22 q-10 0 -10 19q0 8 2 20t6 30q8 35 15.5 56t20.5 44q25 45 51 45q14 0 22 -13t8 -33z" />
<glyph unicode="F" horiz-adv-x="666" d="M634 571l3 8l23 50q4 9 4 13q0 8 -11 8h-8q-7 -1 -13 -1h-10q-6 0 -14 0.5t-19 1.5l-69 7q-36 4 -75.5 5.5t-72.5 1.5q-60 0 -101 -5.5t-78 -18.5q-42 -15 -78.5 -43t-60.5 -63q-23 -32 -35.5 -71t-12.5 -76q0 -36 12 -66t34 -52t51 -34.5t64 -12.5q28 0 57.5 10t58 28 t54 43.5t45.5 56.5q23 36 37 81t14 83q0 17 -7 17q-5 0 -7 -11q0 -2 -0.5 -5.5t-0.5 -8.5q-6 -50 -30.5 -95t-59.5 -80t-78.5 -55.5t-87.5 -20.5q-63 0 -100 34.5t-37 92.5q0 34 14.5 67t41.5 59q73 71 230 71q13 0 37 -1t61 -3q27 -2 45.5 -2.5t29.5 -2.5l49 -7 q26 -3 26 -9q0 -3 -5.5 -6t-19.5 -8q-1 0 -25 -12l-18 -9q-8 -4 -11 -7t-6 -11q-4 -8 -7 -15t-6 -15q-3 -10 -7.5 -23.5t-9.5 -30.5q-6 -18 -10 -32l-7 -25l-14 -55q-8 -29 -12 -46t-6 -22q-5 -20 -7.5 -28t-5.5 -10q-2 -3 -30 -6q-20 -2 -26.5 -4t-8.5 -8t-4 -14t-2 -11 q0 -7 10 -7h7q4 0 9 1q6 2 10 2h9q17 0 17 -11q0 -2 -2 -10q-2 -6 -6 -21q-7 -23 -14 -52t-11 -48q-6 -35 -6 -66q0 -26 7 -48t19 -38.5t28.5 -26t35.5 -9.5q20 0 37.5 11.5t31 30.5t21.5 44.5t8 54.5q0 19 -3 41t-8.5 45t-12.5 45.5t-16 41.5q-2 4 -2 6q0 7 13 7 q5 0 11 -0.5t14 -1.5l39 -4q11 -1 18.5 -2t12.5 -3q5 -1 9.5 -1.5t7.5 -0.5q11 0 15 9l14 30q3 4 3 9q0 6 -8 8.5t-30 2.5q-7 0 -47 3q-13 1 -24 1h-20h-2q-16 0 -21 2.5t-5 10.5q0 2 0.5 8t2.5 12l14 52l11 40l12 39l16 46l20 65l9 28q4 13 9 24q12 28 25 28h2l14 -2 q2 -1 5 -1q11 0 14 9zM410 -108q0 12 2 29t5.5 37.5t8 42t9.5 42.5l12 47q9 32 14 32q3 0 7.5 -9.5t7.5 -22.5q10 -47 10 -76q0 -40 -9.5 -78.5t-23.5 -59.5q-12 -16 -23 -16q-20 0 -20 32z" />
<glyph unicode="G" horiz-adv-x="504" d="M460 246l-5 -2l-45 -8q-8 -2 -11 -4.5t-7 -10.5q-14 -30 -42.5 -66t-61.5 -64q-55 -47 -101 -47q-44 0 -66.5 34.5t-22.5 99.5q0 34 7 75q8 45 20 83.5t33 85.5q21 48 46 86.5t51 66t52 42.5t50 15q63 0 63 -82q0 -64 -24.5 -136.5t-66.5 -137.5q-53 -78 -90 -78 q-33 0 -33 40q0 18 5 41t14.5 48.5t22.5 52.5t28 52q21 35 47 67t46 48q13 9 13 14q0 6 -7 6q-5 0 -9 -3q-21 -11 -38 -23t-38 -32q-33 -32 -54.5 -61.5t-35.5 -63.5q-11 -26 -17.5 -55t-6.5 -50q0 -50 21 -79.5t56 -29.5q17 0 36.5 7.5t39.5 21t39 32t35 41.5 q36 51 56.5 110t20.5 114q0 73 -32.5 116t-87.5 43q-45 0 -94 -26.5t-100 -77.5q-41 -41 -69 -85.5t-51 -104.5q-20 -51 -29.5 -95t-9.5 -84q0 -41 9 -75.5t25.5 -59t40 -38t51.5 -13.5t68 16.5t78 42.5l15 11l16 12q18 14 20 18q5 6 7.5 7.5t4.5 1.5q5 0 5 -6q0 -2 -2 -12 q-2 -5 -3 -10.5t-3 -11.5q-4 -14 -7 -18.5t-13 -11.5q-14 -9 -36.5 -30t-42.5 -43q-18 -20 -31 -45q-10 -22 -10 -44q0 -42 36 -42q14 0 34.5 8.5t42.5 23.5q16 11 29 22.5t23.5 25.5t20 31.5t19.5 40.5l10 25q4 12 7 23q4 15 6 21q2 3 3 5.5t3 4.5q6 8 21 8q5 0 15 -2 q3 -1 8 -1t9 7t4 16q0 11 -15 11q-2 0 -6.5 -0.5t-9.5 -1.5q-2 -1 -6 -1q-10 0 -10 9q0 3 1 9t3 11q3 13 12 46l9 29q3 11 5 16q5 12 5 20t-11 8h-7zM250 -66q7 13 18.5 29t19.5 22l17 13q4 4 9 4q3 0 3 -4q0 -3 -1 -9t-5 -19l-8 -29q-22 -82 -55 -82q-15 0 -15 25q0 8 5 23 t12 27z" />
<glyph unicode="H" horiz-adv-x="706" d="M396 388l50 203l3 10q3 11 4.5 17t2.5 8q2 8 4.5 15t6.5 13l5 10q2 4 2 7v1q0 7 -10 7q-11 0 -36.5 -3.5t-57.5 -9.5q-48 -9 -94.5 -29.5t-86.5 -49.5q-19 -14 -33 -27.5t-25 -28t-19.5 -31t-15.5 -36.5t-11 -39t-4 -35q0 -14 3 -29t8 -29q3 -8 7 -8q5 0 5 7v1q0 9 -1 14 t-1 7v4q0 25 9 53.5t24.5 57t37.5 55t48 48.5q28 23 52.5 37t57.5 25q7 3 13 3q10 0 10 -10q0 -4 -2 -12t-3 -11l-64 -261q-4 -15 -7.5 -19.5t-13.5 -8.5q-58 -20 -105.5 -47t-81 -58t-52 -64.5t-18.5 -66.5q0 -43 21 -67t59 -24q45 0 92 26.5t89 76.5q32 38 59 91.5 t44 114.5l7 20q1 5 3 8q5 7 27 14l19 6q7 3 12 3q7 0 7 -8v-4q0 -2 -1 -6l-4 -21l-6 -36q-5 -25 -8 -59.5t-3 -60.5q0 -75 22.5 -114t66.5 -39q20 0 39 8t42 28q10 8 17.5 15t15 15t15.5 18l19 25l25 33q6 8 7.5 12t1.5 12q0 2 0.5 5t0.5 6v19q0 8 -1.5 14t-3.5 6t-9 -18 l-8 -22q-9 -25 -21.5 -46.5t-26.5 -37.5t-28.5 -25t-27.5 -9q-24 0 -38.5 28t-14.5 76q0 7 1 20.5t3 30t4.5 34t4.5 34.5q4 26 12 67q5 28 7.5 37.5t4.5 12.5q3 4 10 10l14 9q5 4 7 5q8 6 17 15l20 20q30 31 45 57q14 23 23 54.5t9 57.5q0 22 -6.5 36.5t-17.5 14.5 q-9 0 -22.5 -6t-29 -16.5t-31.5 -24t-30 -28.5q-38 -41 -61.5 -85.5t-34.5 -98.5q-5 -21 -6 -26.5t-4 -8.5q-1 -2 -9 -5q-20 -8 -31 -11.5t-17 -3.5q-7 0 -7 8q0 5 1 8q3 7 3 10zM643 634q14 0 14 -28v-2q0 -15 -4.5 -33.5t-13 -37t-19.5 -36.5t-23 -31q-21 -23 -28 -23 q-4 0 -4 7q0 8 6.5 32t17.5 56q17 51 30 73.5t24 22.5zM33 59q0 24 13 51.5t35.5 54t52.5 50t65 40.5l48 23q4 2 7.5 3t6.5 2h1q6 0 6 -7q0 -3 -2 -9q-1 -2 -1.5 -6t-2.5 -10q-16 -56 -36 -101t-43.5 -77t-48 -49.5t-49.5 -17.5q-24 0 -38 14.5t-14 38.5z" />
<glyph unicode="I" horiz-adv-x="523" d="M471 374q1 6 1 9v4l21 157q5 38 9.5 62t9.5 40l3 10q1 2 1 5q0 6 -8 7h-8q-2 1 -5 1q-58 0 -110.5 -21.5t-92.5 -58t-64 -84.5t-24 -100q0 -30 9.5 -62.5t26 -63t39 -56.5t49.5 -44q10 -6 10 -13q0 -10 -10 -32l-6 -14q-3 -6 -7 -13q-25 -43 -40 -56q-17 -17 -49 -28.5 t-63 -11.5q-45 0 -72.5 22.5t-27.5 57.5q0 21 11 40.5t29 34t42 23t51 8.5q11 0 19 -1t21 -5q6 -2 7 -2q7 0 7 7q0 9 -33 17q-19 4 -37 4q-36 0 -67.5 -9.5t-55.5 -25.5t-37.5 -38t-13.5 -47q0 -49 40.5 -77.5t109.5 -28.5q36 0 65.5 7.5t61.5 25.5q14 8 27 16.5t24 18.5 q16 14 44 47q13 13 19 22q10 13 17 13q3 0 11 -3l13 -3q8 -2 19 -3q4 -1 11 -1q18 0 23 11l5 10q3 4 3 7q0 6 -6 6q-2 0 -12 -4q-6 -2 -11.5 -3t-17.5 -1q-18 0 -24.5 2t-6.5 9q0 2 4 10q2 5 6 18l8 25q4 11 7.5 27.5t8.5 37.5q6 29 10 50.5t6 37.5zM405 550l-10 -67l-8 -70 q-2 -12 -4 -28.5t-5 -36.5l-7 -46q-3 -21 -6 -36l-9 -47q-4 -21 -14 -21q-11 0 -30.5 23t-34.5 53q-11 20 -17 48.5t-6 57.5q0 58 24 116t64 97q12 11 25.5 20.5t31.5 14.5q4 3 10 3q8 0 8 -10q0 -2 -1 -8t-3 -12l-3 -19z" />
<glyph unicode="J" horiz-adv-x="470" d="M400 327l3 15l29 169q0 1 2 9q0 4 9 54q4 23 8.5 43.5t9.5 35.5q2 4 2 11q0 10 -19 10q-56 0 -95 -10.5t-77 -35.5q-63 -42 -96.5 -103t-33.5 -133q0 -50 17.5 -96t48.5 -77q7 -7 17 -15.5t26 -19.5q7 -6 16 -11q5 -4 7 -6.5t2 -8.5q0 -8 -4 -27q-6 -30 -17 -63.5 t-22 -57.5q-16 -36 -42.5 -57t-55.5 -21q-33 0 -57.5 22t-24.5 53v14q-2 7 -5 7q-2 0 -6 -5l-32 -39q-3 -3 -3 -8t4 -10.5t15 -13.5q13 -10 22.5 -16.5t17 -10t15 -6t16.5 -4.5q8 -2 16 -3t16 -1q45 0 88.5 24t75.5 67q17 23 29.5 45.5t24.5 54.5q1 4 3.5 10.5t5.5 16.5 q4 11 13 12h4q3 0 8 1h23q20 0 28 3t12 10q4 10 4 21q0 8 -6 8q-4 0 -8 -3q-10 -8 -24.5 -12t-28.5 -4q-11 0 -11 9q0 8 3 20q5 20 8 34l5 24zM344 560q-9 -47 -12 -66l-12 -74l-5 -28q-3 -17 -8 -43l-7 -37l-4 -30q-3 -14 -5 -27.5t-4 -29.5q-2 -17 -4.5 -21.5t-7.5 -4.5 q-11 0 -31 25q-16 18 -29 43q-22 45 -22 104q0 75 28 137.5t77 99.5q17 12 31.5 20t20.5 8q7 0 7 -9q0 -3 -2 -13q-1 -2 -1.5 -6.5t-2.5 -11.5q-2 -8 -3 -16z" />
<glyph unicode="K" horiz-adv-x="786" d="M470 354l30 166l3 15l8 43q5 27 10 46q3 17 9 26q4 10 4 13q0 8 -16 8h-10q-6 0 -14 -1q-35 -5 -59 -9q-87 -18 -152 -70q-32 -26 -56 -56t-35 -59q-6 -17 -9 -37.5t-3 -43.5q0 -34 7 -63.5t24 -59.5q9 -19 14 -19q4 0 4 5q0 4 -6 18q-8 17 -10.5 30.5t-2.5 30.5 q0 15 1.5 33t6.5 36q8 33 20.5 59t32.5 55q25 34 52 57.5t59 39.5q22 11 32 11q6 0 6 -6t-3 -15l-4 -20l-10 -49l-3 -18l-34 -185q-1 -3 -3 -14q-7 -34 -10 -54t-5 -26q-5 -25 -11 -48t-14 -44q-12 -36 -33 -70q-44 -71 -128 -71q-47 0 -76.5 23t-29.5 58q0 22 10.5 40.5 t29 32.5t43.5 22t54 8q12 0 22 -2t17 -4l19 -7q3 -2 8 -2t5 5q0 7 -11 11q-20 8 -43 13t-45 5q-32 0 -61 -9.5t-50.5 -26t-34.5 -37.5t-13 -45q0 -23 12 -42t32.5 -33.5t48.5 -22.5t61 -8q48 0 95 18.5t88 52.5q24 21 38 40t30 51q15 32 20 50q4 11 5.5 17.5t2.5 8.5t3 5 t4 8t3.5 7t2.5 4l12 14q8 9 11 11.5t8 2.5q13 0 30 -27l13 -21q5 -9 10 -19t10 -23l13 -31l24 -62q15 -38 24.5 -55t23.5 -30q6 -6 11 -8t14 -2q11 0 19 4t25 18q18 16 25 25q7 7 19 23t24 35q11 16 11 24q0 4 -7 17q-6 12 -12 12q-7 0 -9 -13l-2 -14q-1 -13 -15 -37 q-9 -17 -19 -17q-13 0 -23 21q-10 19 -20 43l-20 51l-13 35q-5 13 -9.5 22.5t-9.5 17.5l-11 20q-13 21 -24 34.5t-24 24.5q-8 6 -8 11q0 4 16 23l192 226q3 3 4.5 5t2.5 3q3 4 3 8q0 5 -9 11l-44 34q-9 6 -15 6t-12 -10l-204 -319q-14 -21 -17 -21q-4 0 -4 8t1 12q1 3 3 12z " />
<glyph unicode="L" horiz-adv-x="568" d="M414 72l-47 1l-57 2l-50 6q-27 3 -35 6.5t-8 9.5q0 4 3 7l7 12q7 10 18 30q10 20 17.5 37t13.5 32l12 34q8 23 19 59l32 106l19 62q6 22 8 27q7 20 14.5 39t15.5 36q6 14 14 25.5t17 22.5q18 23 37 23q17 0 28 -23.5t11 -56.5q0 -17 -1.5 -37.5t-4.5 -37.5q-2 -12 -7 -28 l-9 -34q-5 -17 -11 -35.5t-12 -34.5q-10 -25 -22 -49.5t-25 -45t-25.5 -35.5t-22.5 -21t-12 -8.5t-2 -5.5q0 -6 6 -6h1q7 2 14 6q28 18 50 38t42 46q22 28 40 61.5t31.5 68t21 68t7.5 62.5q0 28 -6.5 52.5t-18 42.5t-27 28.5t-32.5 10.5q-61 0 -129 -65q-32 -31 -58 -70 t-43 -81q-8 -19 -14.5 -44.5t-13.5 -57.5l-21 -98q-10 -45 -20 -85t-18 -57q-4 -12 -16 -12q-8 0 -26 3q-6 2 -14 2h-17q-53 0 -87 -19.5t-34 -50.5q0 -20 23.5 -33t57.5 -13q20 0 41.5 6.5t38.5 15.5l22 12q14 8 20 8q5 0 14 -3l36 -11q15 -4 28 -7l26 -6l27 -6 q17 -4 32 -6.5t29 -4.5q17 -2 33 -3.5t35 -1.5t28 0.5t12 2.5q5 1 14 14l47 69q8 12 8 15q0 5 -7 5q-5 0 -11 -3q-11 -5 -36 -9q-45 -9 -71 -9zM-2 43q0 8 17 14t38 6q14 0 28 -3q12 -2 18.5 -3.5t7.5 -1.5q16 -1 16 -8q0 -5 -8.5 -9t-30.5 -9q-25 -5 -42 -5q-18 0 -31 5.5 t-13 13.5z" />
<glyph unicode="M" horiz-adv-x="812" d="M758 528l22 50l18 44q8 19 8 26q0 10 -6.5 17t-15.5 7q-28 0 -81.5 -42.5t-116.5 -114.5l-17 -19q-6 -7 -8 -9q-9 -9 -11 -12q-6 -7 -8 -7q-4 0 -4 6q0 5 1 8q11 28 17 61.5t6 64.5q0 30 -11.5 49.5t-28.5 19.5q-41 0 -95 -67q-16 -20 -29 -39t-25.5 -40.5t-24.5 -46.5 l-26 -56l-57 -129q-32 -72 -60 -127.5t-60 -106.5q-30 -50 -56 -80.5t-55 -50.5q-38 -28 -84 -28q-16 0 -32 5t-28 14q-5 3 -6 3q-6 0 -13 -10q-4 -8 -4 -13q0 -8 23.5 -13.5t55.5 -5.5q31 0 64 10t66 29t64 46t58 61q38 47 70.5 103.5t67.5 132.5q7 15 18 42l26 59l27 67 l26 63q25 61 36 83l21 40q13 25 24 25q5 0 8 -6t3 -15q0 -3 -0.5 -6t-0.5 -6q-1 -28 -3 -40q-2 -23 -8.5 -53t-19.5 -83l-12 -47q-4 -16 -6.5 -22.5t-10.5 -19.5l-21 -33l-14 -23q-6 -10 -11 -20l-12 -25l-16 -36q-8 -18 -15 -36q-12 -32 -17 -56.5t-5 -52.5q0 -33 10 -54 t27 -21q14 0 27.5 12t24.5 33t19.5 49t11.5 60l4 38q2 12 3 19.5t6 20.5l20 49q9 21 20 44l24 45q12 23 25 44l25 39q3 5 15 22l35 48q16 23 27 37t17 21q16 21 39 42q11 11 18 15.5t12 4.5q8 0 8 -7t-8 -18q-4 -5 -9 -14t-13 -22q-15 -23 -24 -38.5t-14 -22.5 q-25 -42 -46 -83t-39 -80q-35 -77 -53 -140t-18 -109q0 -45 24 -76q12 -17 23.5 -23t33.5 -6t40 7t42 24q30 22 52 48q17 22 29 42.5t12 29.5q0 7 -2 12q-5 17 -6 23l-2 10q0 6 -4 6q-5 0 -5 -11q-4 -30 -13.5 -55.5t-23 -44.5t-30 -30t-34.5 -11q-35 0 -35 74q0 13 2 32 t5 40.5t7.5 44t9.5 43.5l8 30l11 32l15 44q8 26 22 63q17 50 30 79z" />
<glyph unicode="N" horiz-adv-x="515" d="M505 150v13l-3 13q-2 11 -6 11q-5 0 -6 -10q-2 -8 -8.5 -24t-15.5 -32q-9 -17 -18 -28q-17 -21 -35.5 -35t-31.5 -14q-28 0 -28 62q0 17 2.5 42.5t6.5 46.5q3 15 7.5 34.5t10.5 42.5l12 45l14 45l12 36q6 20 15 45l11 29q4 12 8 22q5 15 12 30l12 29q17 36 20 43 q3 6 5.5 12.5t4.5 14.5q2 10 2 14q0 26 -27 26q-15 0 -39 -15t-62 -47q-27 -23 -51 -46.5t-52 -55.5q-11 -11 -18 -20l-12 -15q-8 -11 -12.5 -15.5t-6.5 -4.5q-4 0 -4 6q0 2 2 10q3 6 6.5 19.5t5.5 27.5q3 17 4.5 33t1.5 27q0 22 -5.5 41.5t-14.5 34.5t-21.5 23.5t-26.5 8.5 t-30.5 -10.5t-34.5 -29t-35 -43.5t-31 -53q-38 -77 -38 -156q0 -53 15 -98q4 -12 6 -19t3 -9q1 -10 8 -10q4 0 4 4q0 5 -3 10q-4 9 -7.5 32.5t-3.5 44.5v6q0 46 24 114q11 34 27 69t27 54q18 30 35.5 47.5t28.5 17.5q30 0 30 -100q0 -49 -14 -113q-8 -35 -17.5 -60.5 t-25.5 -54.5l-38 -69q-13 -23 -23.5 -48t-18.5 -49t-12.5 -46t-4.5 -39q0 -33 8.5 -51t25.5 -18q14 0 28 15t26.5 40t21.5 57.5t13 67.5q2 11 2.5 18.5t1.5 11.5q1 2 2 5.5t3 8.5q3 9 6 16q5 13 15.5 33.5t25.5 45.5l30 51l32 50l32 46l31 44l28 38q13 17 22 27l15 16 q7 8 17 17q22 19 32 19q6 0 6 -6q0 -7 -6 -17l-13 -19q-8 -12 -24 -39l-22 -38q-10 -15 -15 -24q-30 -52 -54 -103t-41 -96q-19 -51 -29.5 -99.5t-10.5 -83.5q0 -49 20 -77.5t53 -28.5q31 0 69.5 26t79.5 73q28 34 28 46z" />
<glyph unicode="O" horiz-adv-x="525" d="M552 493q0 41 -7.5 75t-21 58t-32.5 37.5t-42 13.5q-29 0 -65 -23t-65 -59q-32 -42 -50.5 -97.5t-18.5 -117.5q0 -29 3.5 -61.5t10.5 -53.5q2 -8 5.5 -17.5t7.5 -18.5q7 -15 14 -15q6 0 6 7q0 5 -3 13q-8 20 -13.5 48.5t-5.5 51.5q0 20 4.5 52.5t10.5 58.5t16.5 55.5 t23.5 54.5q17 34 35.5 52.5t35.5 18.5q23 0 38 -36.5t15 -94.5q0 -35 -6.5 -78t-17 -87.5t-24.5 -86t-30 -72.5t-38.5 -62.5t-43.5 -53.5q-31 -31 -66 -31q-24 0 -43.5 14.5t-34 40.5t-22 62.5t-7.5 81.5q0 17 2 39.5t6 45.5t8.5 46t10.5 42q15 48 37 88q23 43 47 66t55 34 q15 5 19.5 8.5t4.5 8.5q0 13 -11 13q-8 0 -36 -13q-16 -7 -33 -18.5t-34 -25.5q-36 -31 -66 -71.5t-52 -87t-34 -96t-12 -97.5t11.5 -87.5t32 -67.5t49.5 -43.5t64 -15.5q61 0 125 40.5t119 115.5q33 45 54 86t37 93q13 44 20 86.5t7 80.5z" />
<glyph unicode="P" horiz-adv-x="695" d="M391 290l7 31l39 196q6 30 6 33q2 9 4.5 17t4.5 16l4 9q1 3 3 6q5 10 5 14q0 7 -8 7q-1 0 -2.5 -0.5t-8.5 -2.5l-62 -17q-11 -3 -16 -7.5t-9 -15.5l-4 -10q-2 -5 -3.5 -12.5t-3 -18t-4.5 -26.5q-2 -14 -6 -36t-11 -51l-10 -50l-10 -44l-8 -42q-5 -21 -10 -47l-16 -81 q-5 -22 -7.5 -35t-7.5 -28q-4 -13 -13 -13t-23.5 5t-28.5 14q-17 9 -26 20q-2 2 -5.5 7.5t-10.5 15.5q-8 9 -10 9q-9 0 -12 -15q-1 -2 -1 -8q0 -8 6.5 -16t22.5 -20q11 -8 29 -16.5t31 -13.5l18 -6q9 -3 9 -9q0 -8 -8 -29t-18 -39q-14 -26 -39.5 -43.5t-51.5 -17.5 q-20 0 -41.5 9.5t-37.5 26.5q-10 10 -13 21l-3 10q-2 5 -3 5q-2 0 -5 -3q-6 -5 -9 -9q-7 -9 -7 -18q0 -12 27 -32q24 -18 48 -25.5t53 -7.5q26 0 52 7.5t49 21t41 31.5t29 40l14 28q7 13 12 17.5t13 5.5l30 2q13 1 30 5t36 10t37.5 14t34.5 17q37 20 65 48q34 32 61 74.5 t38 85.5q6 21 8.5 44.5t2.5 49.5q0 61 -18.5 109.5t-53.5 83t-84.5 53t-110.5 18.5q-50 0 -94 -9.5t-81 -29.5q-19 -10 -39 -24.5t-39 -32t-35 -36t-28 -36.5q-18 -29 -29 -63t-11 -60q0 -32 17 -53.5t43 -21.5q30 0 63 22t61 60q27 36 43.5 85t16.5 91q0 27 -8 27 q-3 0 -4 -4t-3 -16q-2 -19 -5.5 -35.5t-8.5 -33.5q-10 -28 -22 -48.5t-34 -46.5q-64 -76 -103 -76q-13 0 -20 9.5t-7 26.5q0 35 26.5 82.5t72.5 94.5q51 51 106.5 77.5t109.5 26.5q44 0 79.5 -16t61 -45t39.5 -70t14 -91t-12.5 -97.5t-35.5 -88.5t-55.5 -74.5t-73.5 -55.5 q-41 -23 -72 -23q-10 0 -10 8q0 5 3 16q2 5 5 15l6 25l18 72z" />
<glyph unicode="Q" horiz-adv-x="531" d="M298 31q4 0 11.5 -2.5t21.5 -10.5l22 -12q6 -3 21 -9l12 -4q6 -2 11 -4q4 -1 7 -1.5t6 -0.5q19 0 54 32q17 16 26.5 28.5t9.5 19.5q0 6 -10 9q-2 2 -5 2h-4q-4 0 -5.5 -1.5t-5.5 -8.5q-2 -5 -6 -9q-5 -6 -10 -8h-1q-9 0 -30 12l-31 17q-14 8 -18 11t-4 7q0 3 2.5 6.5 t16.5 19.5q9 10 19 24l22 30l19 31.5t15 27.5q19 38 34 89q14 45 20.5 87.5t6.5 80.5q0 40 -7.5 73.5t-21 58t-32 38t-40.5 13.5q-30 0 -66 -22.5t-66 -59.5q-32 -41 -50 -97t-18 -118q0 -29 3 -61.5t10 -53.5q5 -18 14 -36q5 -15 14 -15q6 0 6 7q0 6 -4 13 q-8 20 -13.5 48.5t-5.5 51.5q0 20 4.5 52.5t10.5 58.5t16.5 55.5t23.5 54.5q17 34 36 52.5t36 18.5q23 0 37.5 -36.5t14.5 -94.5q0 -35 -6.5 -78.5t-17 -88t-25 -86t-29.5 -71.5q-13 -25 -20 -34.5t-12 -9.5t-23 11q-17 11 -27.5 15t-21.5 4t-27 -10l-24 -17q-11 -8 -18 -14 q-21 -18 -21 -27q0 -11 10 -11q4 0 8 2q5 2 11.5 3t11.5 1q8 0 18 -4t21 -9q10 -7 12 -7q8 -4 10.5 -6t2.5 -6q0 -11 -16.5 -19t-37.5 -8q-52 0 -82 53t-30 145q0 17 2.5 39.5t6 45.5t8.5 46t11 42q8 23 16.5 45t19.5 43q24 43 47.5 66t54.5 34q15 5 19.5 8.5t4.5 8.5 q0 13 -10 13q-9 0 -37 -13q-15 -7 -32.5 -18.5t-34.5 -25.5q-36 -30 -66 -71t-51.5 -87.5t-33.5 -96t-12 -97.5q0 -49 11 -88.5t32 -67.5t50.5 -43t65.5 -15q33 0 64.5 9t55.5 26q7 5 12 5z" />
<glyph unicode="R" horiz-adv-x="691" d="M664 98q-8 0 -10 -9l-3 -10q-2 -12 -14 -12q-5 0 -11.5 3.5t-17.5 13.5q-28 25 -40 39l-52 64q-21 26 -49 51.5t-46 36.5q-10 6 -10 11t16 8q55 10 102 34t81.5 57.5t54 74t19.5 83.5q0 63 -43 100.5t-114 37.5q-26 0 -61 -6t-63 -17q-45 -16 -92.5 -47.5t-93.5 -75.5 q-48 -47 -87 -98t-66 -103.5t-42 -103.5t-15 -96q0 -66 28.5 -107t75.5 -41q33 0 69.5 18t70.5 50q28 27 48 58.5t39 76.5q6 17 15 17q5 0 15 -6t20 -14l16 -14q7 -7 16 -18l22 -25l31 -38q29 -36 48 -55t40 -34q26 -19 44 -19q11 0 19 7.5t22 29.5q15 23 23.5 39t8.5 22 q0 2 -1 4.5t-6 7.5q-4 5 -7 5zM448 619q-3 0 -7 -2l-82 -38q-10 -5 -14 -8t-7 -10q-6 -13 -12 -36.5t-13 -58.5q-7 -33 -10.5 -51.5t-5.5 -23.5l-11 -44q-5 -19 -6.5 -23.5t-3.5 -6.5l-7 -2q-13 -3 -19 -8q-5 -5 -11 -12.5t-22 -31.5l-5 -8l-9 -12q-4 -6 -4 -9q0 -6 7 -6 q2 0 8 2q1 0 4.5 0.5t9.5 1.5q5 1 8.5 1.5t6.5 0.5h1q6 0 10.5 -3.5t4.5 -8.5q0 -2 -1 -5.5t-2 -7.5q-3 -6 -9 -24q-30 -91 -61.5 -132.5t-71.5 -41.5q-26 0 -40.5 21t-14.5 59q0 22 5 49.5t14 59.5q16 54 36.5 99.5t52.5 98.5q77 125 157 188t160 63q49 0 80.5 -31 t31.5 -80q0 -59 -36 -116q-16 -26 -34 -43t-46 -32q-25 -14 -49.5 -22.5t-38.5 -8.5q-15 0 -15 10v1q1 5 1.5 9.5t2.5 10.5q3 10 12 46l15 61q7 27 11 45t6 26q6 24 15 48q5 15 10 25q4 8 4 14q0 7 -6 7z" />
<glyph unicode="S" horiz-adv-x="633" d="M426 544q0 -16 4.5 -37t15.5 -59l57 -185l5 -13q8 -25 14 -54t6 -46q0 -126 -213 -126q-58 0 -110.5 11.5t-92.5 30.5t-63.5 44.5t-23.5 53.5q0 24 16.5 44.5t45 35t68 23t86.5 8.5q45 0 88.5 -11t70.5 -30q7 -4 10 -6t5 -3q4 -3 9 -3q7 0 7 7q0 8 -17.5 21t-48.5 30 q-37 20 -76.5 30.5t-74.5 10.5q-43 0 -80.5 -12.5t-65.5 -34t-44.5 -51t-16.5 -62.5q0 -38 23 -71.5t61.5 -59.5t90 -41t108.5 -15q63 0 121.5 19t103.5 51t71.5 74t26.5 88q0 22 -6.5 51t-20.5 77q-5 14 -14 44l-25 78q-20 62 -28.5 97t-8.5 52q0 28 18 28q11 0 28 -18.5 t28 -44.5q8 -17 13.5 -42t5.5 -45q0 -14 -3 -29q-3 -12 -3 -16q0 -7 5 -7q4 0 9 12q8 24 11.5 44t3.5 42q0 27 -7 52t-18 44.5t-25.5 31.5t-30.5 12q-15 0 -32 -10t-42 -33q-20 -19 -28 -30t-13 -25q-4 -12 -4 -27z" />
<glyph unicode="T" horiz-adv-x="547" d="M485 668q-12 0 -31 -4.5t-33 -12.5l-27 -14q-7 -4 -15 -4t-18 3q-17 5 -26.5 7.5t-11.5 3.5q-5 2 -15.5 4t-25.5 6q-20 4 -33 7t-22.5 4.5t-17 2t-15.5 0.5q-48 0 -93.5 -23t-73.5 -61q-20 -27 -20 -55q0 -13 4.5 -23.5t10.5 -10.5q5 0 10 3q18 10 18 20q0 2 -3 7l-5 10 q-2 1 -3 9l-2 10q0 21 22 33t60 12q9 0 24 -0.5t28 -2.5q21 -2 35 -5t22 -5l37 -12q14 -5 18 -7t4 -6q0 -8 -25 -26q-16 -11 -43 -41t-53 -63q-29 -38 -48 -75q-21 -42 -33.5 -90.5t-12.5 -90.5t13.5 -78.5t37 -63t55 -42t68.5 -15.5q54 0 103.5 26.5t87.5 70.5t60.5 101.5 t22.5 119.5q0 36 -8.5 66t-23.5 51.5t-35.5 34t-44.5 12.5q-34 0 -70 -29t-59 -75q-16 -30 -24.5 -65t-8.5 -69q0 -39 10.5 -82t26.5 -71q6 -9 12 -9t6 8q0 4 -3 12q-5 9 -9 21.5t-7 26t-5 26.5t-2 23q0 18 4 44t12 58q9 34 17 54q18 45 44.5 73t50.5 28q23 0 40 -28t17 -66 q0 -18 -6.5 -50t-16.5 -61q-8 -26 -23 -60.5t-32 -64.5q-26 -49 -58 -75t-64 -26q-44 0 -68 43.5t-24 121.5q0 47 7 87.5t23 87.5q14 40 29 71.5t36 62.5q14 20 29.5 39.5t25.5 29.5q12 10 22 10q4 0 7.5 -0.5t8.5 -1.5l24 -5q8 -2 16 -3t15 -1q26 0 54 11t47 30 q13 12 21 25t8 22q0 15 -16.5 24.5t-39.5 9.5zM433 625q0 8 22 14l24 6l11 -1q21 0 21 -13q0 -4 -7 -8q-13 -10 -30 -10q-41 0 -41 12z" />
<glyph unicode="U" horiz-adv-x="540" d="M451 298l3 14l75 318l2 11q2 7 2 8q0 2 1 6q0 8 -7 8q-1 0 -9 -2l-58 -19q-13 -4 -17 -9q-2 -2 -3 -5.5t-2 -12.5q-1 -5 -3.5 -16t-7.5 -29l-27 -99q-30 -111 -69 -202q-10 -23 -19 -41.5t-19.5 -36.5t-22 -35.5t-25.5 -36.5q-42 -56 -65 -56q-6 0 -10.5 5t-4.5 13 t2.5 20t11.5 43q7 22 24 84l31 114q24 89 35 141t11 80q0 44 -21.5 71t-55.5 27q-49 0 -98 -47q-47 -44 -72.5 -105.5t-25.5 -129.5q0 -35 5.5 -68t19.5 -71q4 -12 10 -12q5 0 5 6q0 2 -0.5 5.5t-2.5 6.5q-2 7 -4 16t-4 21q-2 14 -4 26t-2 22q0 19 5 44t14 58 q13 45 25.5 76.5t29.5 56.5q17 26 36 43.5t30 17.5t17 -10.5t6 -28.5q0 -6 -0.5 -15t-2.5 -17q-2 -14 -5.5 -31t-8.5 -37l-15 -62q-6 -24 -10 -38l-33 -112q-4 -12 -11 -40l-18 -73q-5 -20 -9 -38t-7 -33q-3 -13 -4 -25t-1 -23q0 -29 12 -45t33 -16q89 0 204 209 q11 20 14.5 25t5.5 5q4 0 4 -6q0 -3 -4 -14q-1 -1 -4 -17l-11 -44q-2 -8 -4 -20.5t-4 -29.5q-2 -14 -3 -25.5t-1 -19.5q0 -61 45 -61q26 0 59 22.5t63 60.5q43 54 43 80q0 7 -1 11l-5 17q-2 5 -3 8q0 3 -4 3q-6 0 -8 -16q-4 -24 -12 -46t-18.5 -38t-22.5 -25.5t-24 -9.5 q-17 0 -17 25q0 12 7 49.5t18 83.5q4 17 7 28l5 20z" />
<glyph unicode="V" horiz-adv-x="767" d="M356 169q-16 -34 -37 -65.5t-43 -51.5l-22 -20q-9 -8 -9 -17q0 -19 27 -23q12 -2 28.5 -4t27.5 -2q21 0 46 5t51 13.5t52 21t50 27.5q28 17 56 39.5t42 38.5q9 11 13.5 14t9.5 3q4 0 10 -3t17 -11q17 -12 32 -18t25 -6t15 9l7 9q5 6 5.5 8t0.5 4t-3 4q-4 2 -5 2h-6 q-4 0 -14 -2h-4q-15 0 -43 14q-20 10 -20 18q0 3 2.5 7t10.5 18q35 55 55 118.5t20 123.5q0 29 -5.5 59t-15.5 58t-24 52.5t-30 42.5q-12 13 -26 20.5t-26 7.5t-27 -9t-26 -23q-28 -36 -44.5 -89t-16.5 -107q0 -31 6 -65t16 -66.5t23.5 -61t29.5 -47.5q9 -11 12 -16t3 -9 q0 -9 -21 -34t-54 -56q-35 -32 -64 -49.5t-66 -27.5q-27 -7 -53 -7q-19 0 -30.5 4.5t-11.5 12.5t15 24q81 87 122.5 174.5t41.5 173.5q0 58 -18 107.5t-49 86.5t-73 58t-91 21q-50 0 -94 -19t-77 -51.5t-52.5 -76t-19.5 -92.5q0 -42 14 -79t38 -64.5t57 -43t71 -15.5 q49 0 86 26q8 5 8 13q0 5 -1 10t-5 14q-5 12 -10 12t-11 -13q-9 -17 -28 -26.5t-43 -9.5q-27 0 -50.5 14.5t-41.5 40t-28 60t-10 73.5q0 83 35.5 130t99.5 47q44 0 82 -21.5t66 -59t44 -88t16 -109.5q0 -98 -40 -181zM673 452q0 -17 -1 -37t-3 -38.5t-4 -34t-5 -24.5 l-17 -55q-11 -37 -24 -37q-6 0 -11 7.5t-12 26.5l-20 54q-5 12 -8.5 32.5t-6.5 45t-4.5 50.5t-1.5 50q0 31 4 58t10.5 47.5t15.5 32.5t19 12q13 0 25.5 -15.5t22.5 -42t15.5 -61t5.5 -71.5z" />
<glyph unicode="W" horiz-adv-x="862" d="M494 322l-40 -64l-47 -71q-20 -32 -28 -32q-4 0 -4 7v1l4 12l11 27l24 63q17 45 27 96.5t10 96.5q0 48 -14.5 87.5t-41.5 67.5t-65 43.5t-84 15.5q-49 0 -92.5 -19.5t-76.5 -52.5t-52 -77t-19 -94q0 -41 14.5 -78.5t39 -66t56 -46t66.5 -17.5q14 0 34 5.5t37 13.5 q4 1 8 5t4 13v1q0 1 -0.5 4.5t-1.5 9.5q-6 18 -10 18q-2 0 -6 -4q-20 -23 -36.5 -31t-39.5 -8q-28 0 -51 12.5t-39.5 36t-25.5 55.5t-9 71q0 45 12 84t32 68t47.5 46t59.5 17q37 0 69.5 -22t57 -59.5t38.5 -88t14 -107.5q0 -45 -9.5 -96t-27.5 -99q-6 -18 -15 -38l-18 -37 l-18 -33q-8 -16 -15 -25q-10 -13 -10 -17q0 -7 10 -14q4 -4 9 -4q9 0 19 13l23 27l37 43l45 59l21 28q11 15 18 15q6 0 6 -11q5 -76 39 -122q17 -24 42 -41t42 -17q19 0 59 26q15 10 27 20l23 17q8 7 19 19l27 30q19 22 26 32q10 14 17 14q1 0 9 -2q5 -2 10.5 -2.5 t10.5 -1.5q7 -2 10 -2h5q4 -2 7 -2h6q8 0 14 9l8 11q4 8 4 9t-2 3t-4 2q-5 0 -9 -1q-5 -2 -16 -3q-8 0 -13.5 -0.5t-8.5 -0.5q-18 0 -18 11q0 4 3 10q13 22 23.5 51t18 60t12 62.5t4.5 59.5q0 52 -13 100t-34 85t-48.5 59t-57.5 22q-14 0 -30 -9.5t-29 -25.5 q-27 -35 -42.5 -86.5t-15.5 -105.5q0 -57 17.5 -106.5t55.5 -98.5q17 -23 36.5 -43t35.5 -31q13 -9 13 -17q0 -9 -12 -28q-13 -21 -35 -42q-34 -33 -62 -33q-41 0 -65.5 50t-24.5 131q0 29 4.5 56t14.5 61l2 6q0 2 -3 7q-7 10 -15 10q-5 0 -9.5 -5t-12.5 -20q-2 -4 -8 -13z M776 344q0 -17 -1 -32.5t-3 -29.5l-9 -48q-3 -15 -8 -24.5t-11 -9.5q-7 0 -17.5 11.5t-22 30t-22.5 43t-20 50.5q-8 22 -14 50t-11 57t-7.5 57t-2.5 51q0 41 11.5 70.5t27.5 29.5q15 0 35.5 -26.5t37.5 -68.5q16 -38 23.5 -74t11.5 -85q1 -14 1.5 -27t0.5 -25z" />
<glyph unicode="X" horiz-adv-x="573" d="M303 450l-34 73l-8 15l-28 54q-20 37 -54.5 58.5t-76.5 21.5q-14 0 -24 -1t-18 -4t-14.5 -8.5t-13.5 -13.5q-6 -8 -11 -16t-8 -16q-6 -20 -6 -45q0 -59 35.5 -113t98.5 -89q18 -11 32 -17t20 -6q9 0 9 6t-11 11q-12 5 -25.5 13t-23.5 16q-18 17 -39.5 43.5t-38.5 55.5 q-31 51 -31 98q0 26 9 41t25 15q21 0 43.5 -25t44.5 -72l83 -179l5 -12l5 -10q2 -4 3 -7t1 -7q0 -5 -2 -9q-1 -2 -7 -11l-5 -7l-162 -269l-5 -8q-2 -4 -2 -9v-1q0 -4 1 -7l7 -6q6 -5 10 -5q6 0 14 11l164 228l7 8q4 7 11 7q8 0 15 -15l76 -160q39 -82 72 -82q11 0 22 6.5 t27 21.5q21 20 34.5 40t22.5 43q5 14 9.5 29t4.5 22q0 5 -3.5 10.5t-12.5 15.5q-3 3 -6 3q-4 0 -4 -5v-5q2 -8 2 -13q0 -36 -12 -62t-29 -26q-8 0 -13 4t-15 20q-4 5 -6 9.5t-4 6.5l-103 213q-4 8 -4 10q-3 4 -3 11q0 5 1.5 8t8.5 13l165 224q8 11 10 14.5t2 8.5q0 3 -2 6 t-10 9l-44 35q-7 6 -12 6q-6 0 -13 -11l-130 -212q-8 -13 -13 -13q-7 0 -13 13z" />
<glyph unicode="Y" horiz-adv-x="543" d="M450 201l3 19l87 399l2 9q1 2 1 6q0 9 -7 9q-3 0 -8 -1l-55 -15q-12 -3 -15.5 -9.5t-8.5 -31.5q-1 -4 -4 -18.5t-11 -40.5l-28 -98q-21 -75 -53 -146.5t-70 -126.5q-29 -42 -54.5 -66.5t-39.5 -24.5q-8 0 -13.5 7t-5.5 16v7q0 5 2 10l9 40l19 70l32 112l33 118 q12 42 17 69.5t5 51.5q0 48 -22 75.5t-60 27.5t-75.5 -25.5t-66.5 -71.5q-26 -42 -41 -89.5t-15 -90.5q0 -32 9 -71t24 -74q5 -11 11 -11q2 0 3 2q1 1 1 3t-2 8t-4 13.5t-4 18.5q-6 37 -6 64q0 13 2 30.5t5.5 37t8 39.5t10.5 39q11 35 29.5 67t43.5 58q24 27 47 27t23 -31 q0 -11 -3.5 -29.5t-11.5 -47.5l-20 -75l-25 -94l-27 -94l-18 -69q-10 -38 -14.5 -59.5t-6.5 -26.5q-5 -23 -5 -49q0 -34 14 -53t38 -19q18 0 40.5 11.5t46.5 32.5t47.5 49.5t43.5 63.5l34 58q16 27 16 28q5 11 7.5 14.5t5.5 3.5q4 0 4 -5t-3 -11q-2 -5 -3 -21 q-1 -5 -2 -11.5t-3 -15.5q-2 -12 -4 -20.5t-4 -13.5q-3 -11 -4.5 -18t-2.5 -9q-2 -11 -3 -13t-3.5 -4.5t-6.5 -7.5q-10 -9 -22 -22t-23 -27l-22 -29q-11 -14 -18 -25q-17 -29 -27 -57t-10 -51q0 -24 9.5 -38t24.5 -14q10 0 24 6.5t28.5 17t29 24.5t25.5 29q17 25 31 57 t29 83q5 17 9 32l7 27q5 21 8 26.5t13 7.5q10 3 22 3h6q4 0 8 -1t7 -1.5t6 -0.5q7 0 11.5 8t4.5 19q0 8 -9 8q-7 0 -17 -1t-16 -2q-14 -3 -17 -3q-10 0 -10 8v1zM245 -105l-2 10l-1 7v4q0 11 10 37.5t23 50.5q5 8 11 16l13 19q13 17 18 22.5t9 5.5q6 0 6 -7q0 -6 -3 -20 t-8.5 -32t-12.5 -38l-14 -41q-8 -22 -18 -34.5t-19 -12.5t-12 13z" />
<glyph unicode="Z" horiz-adv-x="733" d="M495 584l64 -6l28 -3q18 -1 18 -10q0 -4 -2.5 -7.5t-10.5 -12.5q-11 -12 -22 -29l-27 -47q-10 -17 -16.5 -29l-12.5 -24l-11 -24l-15 -32l-25 -56q-5 -12 -9.5 -20.5t-6.5 -13.5q-6 -17 -12 -21.5t-20 -4.5q-9 0 -18.5 1.5t-13.5 3.5l-10 5q-4 2 -7 2q-5 0 -9 -8 q-3 -8 -8 -16q-5 -9 -6.5 -12.5t-1.5 -7.5q0 -6 6 -6q5 0 10 2q8 2 20 4.5t20 3.5q1 1 4 1q15 0 15 -8q0 -3 -3 -7l-6 -11q-2 -5 -12 -18q-2 -3 -5 -9l-10 -16q-14 -23 -23 -30t-23 -7h-17q-5 1 -13 1t-19 1q-11 0 -18.5 0.5t-12.5 0.5q-37 0 -70 -7t-58 -19t-39.5 -27.5 t-14.5 -33.5q0 -17 23 -25.5t65 -8.5q32 0 63.5 8.5t66.5 27.5q14 7 20.5 9.5t13.5 2.5q3 0 13 -2l29 -7l58 -12l40 -8l26 -6q25 -4 54 -6t51 -2q17 0 28.5 1.5t19.5 4.5q6 3 12 8t16 19l16 21q5 7 9 13.5t9 13.5q11 21 14 24q4 7 4 12t-4 5q-1 0 -7 -4q-15 -14 -50 -23 t-73 -9q-12 0 -32.5 1.5t-50.5 3.5q-29 2 -48.5 3.5t-27.5 3.5q-12 2 -18.5 3.5t-8.5 1.5q-18 1 -18 10q0 1 4 7q1 1 4 3.5t8 7.5q2 2 7 8l14 16l22 25l8 10l9 13q8 11 15.5 15t21.5 4q5 0 9.5 -0.5t9.5 -1.5l18 -3l12 -2q8 -2 7 -2q3 0 6.5 4.5t10.5 17.5q6 11 7.5 15 t1.5 7q0 6 -6 6q-2 0 -8 -2q-28 -13 -58 -13q-11 0 -11 8q0 3 5 10q2 3 4.5 7.5t5.5 12.5q2 5 8 16l17 30q20 38 37 75.5t31 74.5l20 52q14 35 18 38q3 3 10 6q31 10 52.5 36.5t21.5 52.5q0 13 -11 13q-6 0 -17.5 -8t-21.5 -19q-8 -8 -11.5 -10t-9.5 -2q-11 0 -24 4 q-8 2 -21.5 4.5t-32.5 5.5l-70 12q-35 6 -70.5 8.5t-65.5 2.5q-59 0 -106 -11t-87 -34q-17 -10 -35.5 -24t-35.5 -29.5t-32.5 -32.5t-25.5 -32q-20 -29 -31.5 -69.5t-11.5 -76.5t11.5 -66t32 -51.5t49 -33.5t63.5 -12q37 0 75 16t72.5 43.5t62.5 65.5t46 83q8 20 12.5 44.5 t4.5 47.5q0 12 -7 12q-5 0 -5 -9q-3 -52 -26 -99t-59.5 -83t-83 -57t-95.5 -21q-28 0 -52.5 10t-42.5 27.5t-28.5 41t-10.5 50.5q0 50 27.5 98.5t73.5 79.5q66 44 171 44q32 0 78.5 -3.5t118.5 -10.5zM268 46q0 -4 -2.5 -6t-11.5 -5l-27 -10q-28 -11 -70 -11q-46 0 -46 16 q0 13 23 19q22 6 37 8.5t29 2.5q8 0 15 -0.5t16 -1.5q16 -3 22 -3q15 -2 15 -9z" />
<glyph unicode="[" horiz-adv-x="182" d="M16 -59l4 1l109 20q3 0 7 6q2 2 2 7t-8 5h-61q-6 0 -6 6v1l50 672q1 8 9 9l48 9q5 2 5 8q0 10 -13 10h-92q-8 0 -9 -19l-54 -720v-4q0 -12 8 -12z" />
<glyph unicode="\" horiz-adv-x="325" d="M9 724l2 -7l241 -743q13 -42 35 -42q13 0 22.5 9t9.5 23q0 5 -1 9t-3 9l-3 8l-244 727q-7 20 -14 27.5t-21 7.5q-11 0 -18.5 -4.5t-7.5 -12.5v-5q0 -2 2 -6z" />
<glyph unicode="]" horiz-adv-x="197" d="M16 -38l109 -21l4 -2h1q8 0 8 10v6l53 720v1q0 1 -0.5 2t-0.5 3q-1 2 -1 4t-1 4q-2 2 -3 4l-4 2h-92q-13 0 -13 -10q0 -6 5 -8l48 -9q9 -2 9 -9l-56 -673q0 -5 -1 -6q-2 -1 -5 -1h-61q-8 0 -8 -5q0 -7 5 -10q2 -2 4 -2z" />
<glyph unicode="^" horiz-adv-x="393" d="M157 667l-150 -217h93l97 143l96 -143h94l-150 217h-80z" />
<glyph unicode="_" horiz-adv-x="515" d="M508 -40h-501v-53h501v53z" />
<glyph unicode="`" horiz-adv-x="134" d="M26 337q17 -20 31 -33.5t25 -19.5l19 -10q8 -5 12 -5q5 0 11 4q3 3 3 7q0 3 -3 8l-8 10q-8 9 -20.5 34t-20.5 46q-3 8 -5 9.5t-8 2.5q-5 1 -8.5 1.5t-8.5 0.5q-23 0 -30.5 -3.5t-7.5 -12.5q0 -8 4 -17t15 -22z" />
<glyph unicode="a" d="M270 227h-8h-38q-9 -2 -11 -4l-9 -6q-5 -3 -9 -3q-5 0 -9 3l-12 6q-17 9 -33 9q-14 0 -29.5 -6t-30.5 -16t-28.5 -24.5t-23.5 -30.5q-22 -38 -22 -77q0 -34 14.5 -56t37.5 -22q16 0 39.5 15t42.5 37q5 5 8 5q5 0 5 -6v-10q0 -20 10.5 -30.5t27.5 -10.5q21 0 51 17.5 t56 46.5q13 16 13 35q0 7 -5 7t-8.5 -4.5t-8.5 -15.5q-4 -8 -11 -17t-15 -15q-8 -5 -13 -5q-9 0 -9 14q0 5 3 17.5t6 23.5l29 101l1 6q1 4 1 6q0 5 -2 7t-10 3zM85 96v3q0 23 9.5 47.5t23.5 40.5q6 7 15 12t15 5q12 0 12 -19v-3q0 -11 8 -14q4 -1 6 -2t3 -1q3 -2 3 -6v-1 q0 -6 -7 -21.5t-18 -31.5q-27 -39 -49 -39q-9 0 -15 8.5t-6 21.5z" />
<glyph unicode="b" horiz-adv-x="242" d="M177 624h-4l-42 -5q-11 -2 -16 -6.5t-7 -15.5l-87 -431q-1 -2 -1 -4t-1 -6q-7 -28 -9.5 -47.5t-2.5 -36.5q0 -34 19 -53.5t53 -19.5q33 0 65 18.5t55 50.5q5 6 7.5 8t7.5 2q22 3 22 16q0 4 -4 6l-7 4q-3 3 -4 6q-1 2 -1 6t1 7q3 13 3 31q0 36 -16 62t-38 26 q-19 0 -31.5 -14.5t-12.5 -35.5q0 -38 32 -77q11 -14 11 -21q0 -9 -9 -24.5t-21 -27.5q-16 -14 -29 -14q-27 0 -27 35q0 10 2 22.5t6 29.5q2 8 3 13t2 7l94 468v7q0 14 -13 14z" />
<glyph unicode="c" horiz-adv-x="228" d="M182 28q22 18 25 28l4 14q2 6 2 7q0 5 -5 5q-4 0 -10 -7q-23 -31 -39 -41t-40 -10q-38 0 -38 45q0 6 2 16t5 21t6.5 22t7.5 20q13 27 26 42.5t25 15.5q8 0 13.5 -7.5t5.5 -18.5q0 -8 -2.5 -18.5t-9.5 -23.5q-3 -9 -3 -10q0 -8 8 -8h6l29 5q21 3 21 31q0 16 -6 30.5 t-16.5 25t-24.5 16.5t-30 6q-26 0 -51 -13t-44 -34.5t-30.5 -49t-11.5 -57.5q0 -38 24 -62t64 -24q44 0 87 34z" />
<glyph unicode="d" horiz-adv-x="295" d="M254 170q0 4 3 12l5 17q12 42 21 86.5t9 83.5q0 53 -10 100.5t-29 82.5q-17 32 -34.5 49.5t-31.5 17.5q-28 0 -56 -71q-27 -66 -27 -119q0 -21 3.5 -46t9 -49.5t13.5 -47.5t17 -40q3 -8 3 -9q0 -3 -3 -4t-12 -3q-26 -3 -49 -17t-40.5 -34t-28 -44.5t-10.5 -49.5 q0 -41 21 -66.5t53 -25.5q27 0 58.5 18.5t51.5 46.5q9 12 27 42l10 18q3 6 5 8q4 12 13 12q4 0 12 -3q8 -4 12 -4q7 0 13 11q2 4 2 7q0 6 -16 9q-9 2 -12 4.5t-3 7.5zM143 436q0 57 7.5 94t19.5 37q5 0 11 -13.5t14 -43.5q11 -36 15 -71t4 -81q0 -12 -0.5 -22.5t-1.5 -22.5 t-2.5 -27t-3.5 -37q-3 -22 -12 -22q-8 0 -16 18t-22 68q-7 26 -10 53.5t-3 69.5zM116 32q-33 0 -33 60q0 63 46 109q10 10 16.5 13.5t12.5 3.5q5 0 7 -2l6 -8q2 -4 8 -10q11 -13 11 -21q0 -7 -4 -24q-9 -35 -21 -63q-14 -32 -24.5 -45t-24.5 -13z" />
<glyph unicode="e" horiz-adv-x="233" d="M227 170q0 29 -22.5 49t-54.5 20q-29 0 -55 -12t-45.5 -33t-31.5 -48t-12 -57q0 -43 26 -68t69 -25q32 0 61 14.5t48 39.5q14 19 14 35q0 7 -7 7q-5 0 -10 -9q-4 -4 -5 -8q-10 -15 -13 -18q-11 -14 -29.5 -23t-32.5 -9q-16 0 -26 14t-10 35q0 18 11 18h4l8 -2q9 -4 22 -4 q18 0 34.5 7t29 18.5t20 26.5t7.5 32zM113 119q-12 0 -12 13q0 12 12 39q8 18 16 27q12 15 26 15t14 -23q0 -16 -11.5 -35.5t-26.5 -29.5q-4 -2 -8.5 -4t-9.5 -2z" />
<glyph unicode="f" horiz-adv-x="303" d="M155 500l-2 -12l-53 -273l-1 -6l-2 -12q-2 -8 -4 -10.5t-6 -2.5q-3 0 -7 4q-8 5 -15 5t-15.5 -4.5t-16.5 -11.5q-9 -9 -12 -17q-8 -17 -14 -63v-15q0 -34 34 -41q14 -3 16 -4q4 0 7 -5q2 -4 2 -7v-1l-2 -10v-6l-21 -115l-1 -7l-2 -9v-2q0 -5 6 -11q2 -1 6 -1h5l45 5 q17 1 21 25l19 123l1 6q1 4 3 8t4 6q3 2 7.5 3t21.5 3q33 4 60 11.5t34 14.5q4 3 6 10q1 1 7 23q1 5 1 11t-6 6q-4 0 -7 -3l-16 -12q-13 -10 -26 -16t-39 -14q-9 -3 -18 -3t-9 8q0 5 4 10q14 22 25.5 42.5t21 40.5t17.5 42l17 48q23 69 34 127.5t11 110.5q0 24 -3.5 47 t-9.5 41t-14 28.5t-16 10.5q-5 0 -16.5 -6.5t-25.5 -17.5q-14 -12 -27 -27q-11 -15 -17.5 -30.5t-11.5 -44.5zM172 164l1 9l62 352l2 11q5 23 10 23q6 0 10 -25t4 -60q0 -11 -1 -27t-4 -34l-4 -36q-3 -18 -6 -33q-2 -12 -6 -28l-8 -34l-10 -33.5t-9 -28.5q-6 -17 -14.5 -34 t-16.5 -29q-3 -5 -6 -5q-4 0 -4 7v5zM82 113v-5l-2 -17q-3 -20 -12 -20q-13 0 -13 31q0 17 5 31t11 14q11 0 11 -34z" />
<glyph unicode="g" horiz-adv-x="288" d="M253 101l20 101l1 7q1 3 1 8t-4 8.5t-9 3.5t-9 -1l-32 -1q-5 0 -9.5 -0.5t-6.5 -2.5l-6 -6q-7 -7 -11 -7q-1 0 -9 4q-21 11 -39 11q-29 0 -58 -19t-49 -51q-26 -40 -26 -82q0 -32 15.5 -54t38.5 -22q20 0 44 15t44 39q7 9 9.5 11t5.5 2q4 0 4 -6v-3l-2 -9q-2 -5 -2 -8 t-1 -5q-1 -3 -7 -7q-3 -2 -6 -5t-7 -5l-26 -20q-10 -8 -17.5 -15t-13.5 -14l-12 -18q-20 -29 -20 -54q0 -17 10.5 -28t27.5 -11q49 0 87.5 40.5t56.5 111.5q4 14 6 23q1 5 5 9q2 3 9 5l12 1q14 3 14 14t-14 11q-17 0 -17 11q0 3 1 5q0 2 0.5 3.5t0.5 2.5v7zM105 54 q-23 0 -23 34q0 23 8.5 46t23.5 45q9 13 15 18t14 5q15 0 15 -16q0 -2 -0.5 -3.5t-0.5 -3.5v-4q0 -8 9 -8h6q1 1 3 1q8 0 8 -9q0 -7 -6.5 -22t-17.5 -34q-13 -21 -28 -35t-26 -14zM80 -99v1q0 14 14 36.5t34 40.5q10 9 16 9q7 0 7 -5q0 -7 -12 -38q-9 -25 -22.5 -42.5 t-24.5 -17.5q-12 0 -12 16z" />
<glyph unicode="h" horiz-adv-x="333" d="M121 600l-111 -571l-2 -10q-1 -4 -1 -8q0 -6 3.5 -8.5t14.5 -2.5h34h6l8 1q4 0 6 4t7 18q11 32 22 57t22 40l10 13q6 7 14 15q11 11 17.5 15t11.5 4q10 0 10 -12q0 -3 -0.5 -7t-1.5 -9q-2 -4 -4 -12t-6 -19q-13 -46 -13 -73q0 -18 10 -28.5t29 -10.5q24 0 52 20t53 53 q9 13 11.5 19t2.5 15q0 19 -7 19q-6 0 -10 -13q-9 -24 -23 -42t-24 -18q-9 0 -9 12q0 5 3.5 20.5t7.5 30.5l13 50q2 7 3 14t1 14q0 20 -12 32.5t-31 12.5q-32 0 -74 -40q-6 -6 -13 -14l-20 -24q-6 -7 -9 -7q-6 0 -6 9q0 2 2 12l2 8l83 424q1 4 1 11q0 12 -12 12q-6 0 -9 -1 l-40 -5q-12 -2 -16 -5.5t-6 -14.5z" />
<glyph unicode="i" horiz-adv-x="165" d="M146 364q0 20 -13 33.5t-33 13.5q-19 0 -31.5 -13.5t-12.5 -33.5q0 -19 12.5 -31.5t32.5 -12.5q19 0 32 12.5t13 31.5zM40 201l-27 -117l-2 -10q-2 -8 -3 -23q-1 -5 -1 -10v-9q0 -36 35 -36q21 0 48.5 17.5t47.5 43.5q6 8 11.5 19.5t8.5 20.5v5q0 9 -6 9q-4 0 -6 -3.5 t-7 -15.5q-6 -17 -15.5 -28t-20.5 -11q-12 0 -12 17v3l2 11l2 7l30 122q1 2 1 6q0 11 -13 11h-3l-53 -8q-12 -2 -17 -21z" />
<glyph unicode="j" horiz-adv-x="190" d="M183 354q0 20 -14 33.5t-35 13.5q-20 0 -33 -13.5t-13 -33.5q0 -19 15 -34.5t33 -15.5t32.5 15t14.5 35zM102 196l-6 -28l-2 -10q-2 -8 -3 -9q-1 -2 -3 -3.5t-4 -3.5q-16 -14 -30 -37t-24.5 -50t-16.5 -55.5t-6 -55.5q0 -38 10.5 -62.5t27.5 -24.5q14 0 28.5 11t28 29.5 t24 43t16.5 52.5l5 24l3 13l31 174q1 4 1 6v5q0 10 -12 10h-5l-42 -8q-11 -2 -15 -6t-6 -15zM83 95v-4q0 -2 -1 -7l-25 -143q-4 -26 -12 -26q-6 0 -10 13.5t-4 33.5q0 11 2 25.5t5 29.5t7 28t9 22l11 22q5 9 7 12t5 3q6 0 6 -9z" />
<glyph unicode="k" horiz-adv-x="298" d="M131 606l-122 -581l-1 -5q-1 -3 -1 -6v-4q0 -10 18 -10h43q17 0 20 11l2 9l7 28q4 17 11 17q4 0 7.5 -2.5t14.5 -15.5l18 -20l11 -12q9 -12 18 -14h5q3 0 8 -1h7h51q20 0 20 7q0 3 -4 6l-6 8l-19 18l-15 17q-8 9 -11 14.5t-3 9.5t3.5 6.5t15.5 7.5q27 11 44.5 34.5 t17.5 46.5q0 28 -15.5 43.5t-43.5 15.5q-38 0 -78 -34l-8 -6l-4 -4q-5 -3 -8 -3q-6 0 -6 8q0 6 1 11l86 401q0 3 0.5 5.5t0.5 4.5q0 11 -11 11q-2 0 -2.5 -0.5t-1.5 -0.5l-52 -5q-16 -2 -18 -16zM127 138q11 16 27 25.5t30 9.5q11 0 19 -6t8 -16q0 -23 -23 -39t-55 -16 q-20 0 -20 13q0 9 14 29z" />
<glyph unicode="l" horiz-adv-x="198" d="M106 582l-89 -470l-2 -10q-2 -11 -3.5 -18t-2 -12t-1 -9t-0.5 -9q-1 -5 -1 -11v-10q0 -43 33 -43q11 0 26 5q24 7 41 17t42 33q23 20 33 36t10 32q0 10 -3.5 16.5t-8.5 6.5q-7 0 -12 -20q-3 -13 -10 -25.5t-15 -22t-17.5 -15.5t-17.5 -6q-13 0 -13 20q0 11 3 28q0 2 1 7 l3 17l2 12l83 464q1 2 1 6q0 10 -12 10q-3 0 -6 -1l-48 -9q-8 -2 -11 -5.5t-5 -13.5z" />
<glyph unicode="m" horiz-adv-x="507" d="M113 141l2 6l16 65v4q0 11 -15 11h-2l-48 -7q-10 -2 -14 -5.5t-6 -12.5l-39 -180v-7q0 -9 3 -12t11 -3h40q9 0 12.5 3t7.5 13l4 11q5 12 19 37l15 26q7 11 13 19q5 7 12 14l14 15q18 18 29 18q10 0 10 -11q0 -7 -1 -11q-2 -4 -2 -5l-24 -110q-2 -6 -2 -8q0 -11 17 -11h47 q10 0 13.5 3.5t8.5 17.5q8 22 15.5 38.5t16 30.5t19.5 27.5t26 29.5q18 19 29 19q9 0 9 -13q0 -5 -1.5 -13.5t-8.5 -31.5q-8 -29 -11.5 -47t-3.5 -26q0 -17 10 -27.5t27 -10.5q15 0 37 11t42 28q17 14 29 29t12 23q0 21 -11 21q-5 0 -8 -9q-7 -20 -19.5 -36t-21.5 -16t-9 13 q0 5 3 14q1 2 2.5 10t5.5 23q5 18 7.5 28.5t3.5 15.5q4 13 4 32q0 22 -12 34t-33 12q-22 0 -51 -20t-55 -54q-10 -13 -12.5 -15.5t-4.5 -2.5q-5 0 -5 9v4l2 9l3 12q1 4 1 14q0 43 -37 43q-23 0 -53.5 -21t-62.5 -59q-11 -13 -14 -15.5t-6 -2.5q-5 0 -5 7v3z" />
<glyph unicode="n" horiz-adv-x="329" d="M108 150q0 2 0.5 4t0.5 4l9 44l2 6v4v4q0 14 -13 14h-1l-55 -10q-7 -2 -10 -6.5t-5 -16.5l-27 -169q-1 -3 -1 -5t-1 -4v-9q0 -10 14 -10h38q8 0 11.5 3t7.5 14l12 33q6 14 11.5 25t10.5 20l13 20q17 25 33 40t28 15q8 0 8 -11q0 -6 -1.5 -16.5t-6.5 -30.5l-8 -32l-4 -15 q-1 -5 -1.5 -10.5t-0.5 -11.5v-3q0 -19 9.5 -30t26.5 -11t39 12t40 31l9 11l12 14q9 12 12 18t3 14q0 15 -8 15q-5 0 -9 -10q-22 -54 -43 -54q-8 0 -8 12q0 6 2 17.5t5 22.5l9 32q4 14 7 32t3 27q0 20 -11 32t-31 12q-8 0 -19.5 -4t-23.5 -11q-14 -8 -24.5 -17.5 t-30.5 -31.5q-10 -11 -13 -16q-8 -9 -10.5 -11t-4.5 -2q-5 0 -5 6z" />
<glyph unicode="o" horiz-adv-x="231" d="M145 242q-8 -7 -9 -8l-6 -8q-5 -7 -18 -10q-48 -11 -76.5 -44.5t-28.5 -77.5q0 -41 24 -68t61 -27q26 0 52 18.5t46 49.5q5 7 7 8.5t9 3.5q18 6 18 13q0 3 -2 6l-4 6l-5 6q-2 2 -2 5q0 2 0.5 5.5t1.5 8.5q4 12 4 26q0 39 -15 67t-36 28q-10 0 -21 -8zM151 190q0 19 12 19 q9 0 14 -14t5 -38q0 -17 -10 -17q-8 0 -14 18q-7 22 -7 32zM149 53q-14 -17 -30 -18h-2q-14 0 -22 12.5t-8 35.5q0 20 5 40.5t13 36.5q9 14 15 14q4 0 6 -3t5 -14q3 -7 13 -23q3 -5 6 -9t6 -9q8 -8 9.5 -11.5t1.5 -9.5q0 -9 -5 -20.5t-13 -21.5z" />
<glyph unicode="p" horiz-adv-x="294" d="M61 201l-52 -302l-1 -8q-1 -4 -1 -6v-5q0 -12 10 -12h8l40 5q17 1 20 18l17 103q3 17 10 17q3 0 10 -5q13 -8 34 -8q20 0 41 10.5t38 28.5q24 26 38 59t14 63t-16.5 52.5t-39.5 22.5q-11 0 -25.5 -5t-26.5 -13q-8 -5 -13.5 -10t-17.5 -19q-5 -6 -7 -6t-2 8v8q0 4 2 13v6 q0 12 -13 12h-2l-49 -9q-13 -3 -16 -18zM132 50h-1l-7 -1h-1q-9 0 -9 9q0 6 2.5 16t10.5 32q4 10 8.5 19t11.5 17q8 11 19.5 18t20.5 7q11 0 17.5 -9.5t6.5 -25.5q0 -25 -11 -61q-18 -52 -41 -52q-9 0 -12.5 5t-7.5 19q-2 7 -7 7z" />
<glyph unicode="q" horiz-adv-x="260" d="M148 22l-1 -8l-23 -116l-2 -8q-1 -2 -1 -5q0 -10 12 -10q3 0 5 1l41 6q21 3 25 22l44 216l1 8q1 5 1 7q0 9 -11 9h-2l-48 -4q-13 -1 -19 -18q-11 -29 -27.5 -46.5t-34.5 -17.5q-26 0 -26 43q0 31 16 59q13 23 30.5 38t31.5 15q21 0 21 -26q0 -3 -0.5 -6t-0.5 -6 q-1 -3 -1 -8q0 -9 7 -9q4 0 7 1l6 1l41 11q13 3 13 14q0 21 -21.5 37t-49.5 16q-34 0 -65.5 -14t-56 -37.5t-39 -53.5t-14.5 -62t14.5 -51.5t39.5 -19.5q11 0 30.5 8.5t34.5 18.5l12 8q3 3 7 3q5 0 5 -7q0 -2 -0.5 -3.5t-1.5 -5.5z" />
<glyph unicode="r" horiz-adv-x="235" d="M20 0h5h35q11 0 15 3.5t8 17.5q13 50 29 83.5t27 33.5q8 0 8 -9q0 -1 -0.5 -3t-0.5 -4l-1 -6q-1 -4 -1 -8q0 -7 8 -7q5 0 11.5 1.5t26.5 8.5q11 4 16 6.5t8 6.5q5 7 10 32q4 16 4 33q0 23 -8.5 35.5t-24.5 12.5q-14 0 -31 -14t-29 -35q-5 -9 -7.5 -11.5t-5.5 -2.5 q-6 0 -6 8q0 4 2 12l4 18q2 8 2 10q0 10 -8 10q-1 0 -2 -0.5t-3 -0.5l-51 -8q-17 -3 -20 -20l-31 -182q-1 -3 -1 -6q-1 -2 -1 -6q0 -9 13 -9z" />
<glyph unicode="s" horiz-adv-x="214" d="M165 144l-28 19l-22 17q-12 9 -12 17q0 17 22 17q27 0 44 -31q7 -13 14 -13t16 11q8 9 8 16q0 8 -9 16q-15 11 -39.5 19.5t-44.5 8.5q-35 0 -59.5 -21.5t-24.5 -52.5q0 -17 8.5 -29t32.5 -29l35 -25q17 -12 22.5 -19t5.5 -16q0 -23 -28 -23q-38 0 -63 43q-6 10 -8 12 t-6 2q-9 0 -14 -8q-8 -8 -8 -19q0 -14 34 -34t62 -20q20 0 38 7t32 18.5t22.5 26.5t8.5 31q0 15 -10.5 30.5t-28.5 28.5z" />
<glyph unicode="t" horiz-adv-x="205" d="M52 178l-2 -8l-15 -78l-1 -9l-3 -15q-3 -14 -3 -27q0 -20 9.5 -32t26.5 -12q23 0 55 18t58 47q11 12 14.5 19t3.5 19q0 13 -7 13q-5 0 -9 -10q-8 -22 -25 -40t-31 -18q-11 0 -11 19q0 3 1 4l1 10v6l19 92q4 23 18 23q6 0 14 -3q14 -5 18 -5q8 0 12 13q1 5 1.5 7t0.5 3 q1 2 1 6q0 12 -23 12h-3l-13 -1q-11 0 -11 12q0 5 1 9l43 215q1 3 1 9q0 9 -10 9h-2l-51 -5q-17 -1 -21 -24l-41 -205q-3 -14 -8 -18t-22 -4h-4h-2q-15 0 -20 -7t-5 -27q0 -10 7 -10q2 0 10 4q2 1 4.5 1.5t7.5 2.5q6 2 9 2q8 0 8 -10q0 -2 -0.5 -3.5t-0.5 -3.5z" />
<glyph unicode="u" horiz-adv-x="321" d="M266 234q-3 0 -4 -1l-46 -8q-7 0 -12 -5l-3 -6q-1 -2 -1.5 -4.5t-2.5 -7.5q-3 -9 -12.5 -29.5t-19.5 -38.5q-11 -22 -27 -41q-21 -25 -35 -25q-11 0 -11 11q0 6 1.5 14.5t5.5 25.5q3 13 4.5 21t2.5 10t3 9.5t5 20.5l8 32q3 6 3 11q0 10 -16 10h-5l-48 -7q-5 -1 -7.5 -3 t-5 -8t-5.5 -17.5t-7 -30.5q-2 -7 -11 -46q-8 -30 -10.5 -48.5t-2.5 -30.5q0 -39 37 -39q14 0 23 3t24 14q31 22 49 44q11 13 14.5 16t6.5 3q6 0 6 -6q0 -1 -2 -9l-3 -16q-1 -9 -1 -18v-4q0 -12 7.5 -19.5t20.5 -7.5q10 0 24 5t28.5 13.5t28 19.5t24.5 23q8 10 14.5 22.5 t6.5 19.5q0 9 -8 9q-4 0 -7 -7q-9 -22 -20.5 -36t-21.5 -14q-9 0 -9 16q0 11 1 21t5 26l22 90q2 10 2 12q0 11 -13 11z" />
<glyph unicode="v" horiz-adv-x="230" d="M105 233h-4l-52 -7q-8 -1 -10.5 -5t-5.5 -20q-1 -2 -2 -8t-3 -16l-10 -53q-6 -27 -9 -44q-1 -7 -1.5 -13.5t-0.5 -13.5q0 -23 10.5 -36.5t30.5 -13.5q30 0 63 19q14 8 23.5 17t28.5 29q14 15 21 15q4 0 9 -3l9 -7q2 -2 6 -2q6 0 12 7q4 8 4 9q0 4 -13 12q-13 9 -13 14 q0 2 0.5 4.5t4.5 11.5q18 42 18 78q0 24 -13 40t-28 16q-19 0 -32 -19t-13 -47q0 -16 2.5 -27.5t10.5 -27.5q6 -11 8 -16t2 -9q0 -10 -14 -30q-12 -19 -25 -30.5t-21 -11.5q-13 0 -13 18q0 11 8 54q5 20 9 42t7 33l6 21q1 4 1 9q0 11 -11 11zM180 196v-2l-2 -17 q-3 -19 -9 -19q-5 0 -8 12l-3 11q-2 8 -2 13q0 11 4 19.5t9 8.5q7 0 10 -15q0 -4 0.5 -6.5t0.5 -4.5z" />
<glyph unicode="w" horiz-adv-x="394" d="M258 142l10 48l3 21l2 9v3q0 10 -12 10h-2l-42 -4q-17 -1 -20 -16l-3 -12q-2 -5 -4 -12.5t-7 -18.5l-12 -26q-5 -11 -10 -19q-12 -20 -28 -37q-18 -20 -30 -20q-11 0 -11 13q0 9 2 24t6 30l9 39l6 28q2 8 3 11.5t1 4.5v2q0 12 -12 12h-2l-54 -4q-7 -1 -10 -5t-6 -18 q-4 -20 -7.5 -39.5t-7.5 -36.5q-6 -26 -8 -38.5t-4 -29.5q-1 -5 -1 -9v-8q0 -20 11 -32t28 -12q9 0 23 6t28.5 16t28.5 22.5t25 26.5q5 7 9 7q5 0 5 -9v-14q0 -23 11.5 -37t30.5 -14q14 0 34.5 8t42.5 22q23 16 36 31q10 11 13.5 14t8.5 3q4 0 6.5 -1.5t11.5 -6.5 q10 -5 14 -5q2 0 7 3q6 6 6 12q0 7 -10 14q-9 4 -12 7q-5 3 -5 7q0 3 4 10q7 11 12.5 33.5t5.5 39.5q0 30 -13 50t-32 20q-18 0 -30.5 -19t-12.5 -46q0 -7 1.5 -13.5t3.5 -17.5q3 -17 7 -24l10 -20q2 -6 2 -9q0 -9 -8 -23t-19 -25q-8 -8 -17.5 -13t-14.5 -5q-12 0 -12 21 q0 3 1 10t2 13q2 17 4 29t4 19zM332 224q7 0 8 -17l1 -17q2 -33 -9 -33q-5 0 -8.5 11t-3.5 27q0 29 12 29z" />
<glyph unicode="x" horiz-adv-x="263" d="M202 226l-46 -48l-5 -5l-6 -4q-3 0 -10 9l-28 35q-8 10 -13 13.5t-13 3.5q-15 0 -48 -33q-26 -26 -26 -38q0 -6 6 -13q5 -5 9 -5t7 9q3 12 14 12q8 0 15 -11l22 -33q5 -9 5 -13t-2 -7q-2 -5 -3 -6l-58 -61q-7 -7 -7 -12q0 -7 6 -13q3 -4 8 -4q4 0 6.5 1t8.5 6l57 47 q6 5 11 5q6 0 10 -7l35 -51q4 -6 12 -6q7 0 13 3l41 27q6 4 6 10q0 4 -3 9l-40 60l-3 5q-2 4 -2 7t2 7.5t5 6.5l63 49q6 4 6 8t-7 11l-25 28q0 -1 -4 3q-6 2 -7 2q-5 0 -12 -7z" />
<glyph unicode="y" horiz-adv-x="286" d="M267 229h-6l-47 -7q-14 -1 -19 -23q-6 -28 -17 -54t-24 -45.5t-27 -31t-26 -11.5q-10 0 -10 16q0 6 2 19.5t8 47.5q5 23 7.5 37t6.5 28q3 7 3 13q0 12 -13 12h-2l-50 -7q-8 -2 -12 -6t-6 -18q-1 -3 -2 -8.5t-3 -13.5q-5 -20 -10 -47l-9 -49q-2 -11 -3 -21t-1 -18 q0 -22 12 -34.5t33 -12.5q20 0 48 17q12 8 25.5 18.5t19.5 18.5q8 9 11 12t6 3t3 -8q0 -5 -1 -8l-3 -18q-1 -8 -8 -33q-4 -14 -6.5 -25.5t-4.5 -22.5q-5 -19 -7.5 -31t-4.5 -18t-3.5 -12.5t-1.5 -8.5q0 -13 10 -13h2l5 1l54 9q14 2 17 19l64 311l1 8q1 2 1 4q0 11 -12 11z " />
<glyph unicode="z" horiz-adv-x="297" d="M94 166q5 0 15 -2l22 -8q2 0 6 -1l12 -3q14 -3 19 -6t5 -8t-5 -8.5t-13 -3.5t-21 3q-3 1 -7 1q-8 0 -14 -8q-5 -8 -5 -15q0 -12 13 -12h9h1q11 0 11 -7q0 -5 -6.5 -9.5t-15.5 -4.5h-16q-20 0 -37.5 -4.5t-30.5 -11.5t-21 -16.5t-8 -19.5q0 -16 13 -25.5t34 -9.5 q9 0 17.5 2.5t25.5 10.5q23 11 31 11q4 0 8.5 -1.5t16.5 -4.5q17 -5 33 -7t29 -2q14 0 20.5 4.5t17.5 21.5q10 16 16.5 29t6.5 17q0 7 -7 7q-2 0 -5.5 -0.5t-7.5 -2.5q-8 -2 -17 -3.5t-23 -1.5q-23 0 -32 2.5t-9 10.5q0 7 7 11t18 4q3 0 6 -0.5t6 -0.5l6 -2h4q8 0 14 8 q7 9 7 17q0 9 -16 9h-7q-9 0 -9 6q0 12 17 19l25 10q14 6 25.5 22t11.5 30q0 19 -22 19q-14 0 -27 -10l-11 -9q-3 -3 -8 -3q-1 0 -7 2q-32 11 -47 14.5t-29 3.5q-20 0 -37.5 -7t-31 -19t-21.5 -28t-8 -34q0 -26 13 -26q5 0 9.5 3.5t4.5 8.5t-1 8q-2 8 -2 11q0 8 8 13.5 t21 5.5zM43 18v1q0 7 15 7t15 -6q0 -2 -4 -4q-5 -3 -13 -3q-13 0 -13 5z" />
<glyph unicode="{" horiz-adv-x="205" d="M50 417q-2 -25 -11 -39t-32 -28q14 -14 19 -22t10 -25q4 -15 4 -33v-8l-17 -229q-1 -10 -1 -19v-17q0 -27 11 -36t43 -9q31 0 51 5.5t20 13.5q0 9 -10 9h-2h-6q-18 0 -36 6q-8 2 -13 7q-4 6 -4 17q0 5 0.5 12.5t1.5 18.5l16 221q1 5 1 11v11q0 25 -5.5 37.5t-24.5 28.5 q21 12 29.5 26t10.5 41l15 209q1 14 2.5 20.5t3.5 11.5q4 7 9 11q2 1 14.5 2.5t35.5 4.5q14 2 14 11q0 5 -2.5 6.5t-13.5 1.5h-61q-26 0 -39 -18.5t-17 -63.5z" />
<glyph unicode="}" horiz-adv-x="204" d="M177 325l9 11q4 6 11 14q-20 24 -26 35t-6 27v5l15 196v6q0 33 -16 54.5t-40 21.5h-61q-11 0 -13.5 -1.5t-2.5 -6.5q0 -9 14 -11q47 -6 50 -7q5 -4 9 -11q1 -2 2 -5.5t2 -7.5q1 -6 1.5 -10t0.5 -7v-2l-16 -209v-6q0 -20 7 -33.5t25 -27.5q-16 -17 -23 -27.5t-12 -25.5 q-4 -8 -5.5 -17t-2.5 -18l-16 -220l-4 -31q-2 -15 -3 -18q-2 -2 -5 -3.5t-8 -3.5q-20 -6 -39 -6h-5h-2q-11 0 -11 -9q0 -8 20.5 -13.5t52.5 -5.5q49 0 52 23l3 23l4 36l16 228q1 14 7.5 32t15.5 31z" />
<glyph unicode="~" horiz-adv-x="362" d="M243 176q36 0 62.5 18.5t49.5 60.5l-52 55q-15 -31 -26.5 -41.5t-29.5 -10.5q-12 0 -27 5q-3 2 -10 5l-19 9q-23 11 -43 16t-37 5q-32 0 -57 -19t-47 -61l51 -57q12 29 25 41t30 12q9 0 20.5 -4t40.5 -16q24 -11 38.5 -14.5t30.5 -3.5z" />
<glyph unicode="&#xa1;" horiz-adv-x="166" d="M74 4l7 63l7 58q1 8 3.5 25.5t7.5 44.5q5 26 7.5 41t3.5 20l8 35q5 18 10 29q2 8 2 10q0 6 -9 12q-6 5 -9 6.5t-8 1.5q-8 0 -11.5 -6t-12.5 -33l-12 -40l-12 -48l-12 -49q-5 -24 -8 -42l-6 -37q-3 -14 -5 -20l-15 -55q-3 -14 -3 -25q0 -7 1 -16.5t3 -16.5q3 -13 13 -19 q11 -8 19.5 -12t11.5 -4q11 0 14 32zM82 428q0 -18 11.5 -30.5t28.5 -12.5q15 0 26.5 13t11.5 30t-11 28t-28 11t-28 -11t-11 -28z" />
<glyph unicode="&#xa2;" horiz-adv-x="228" d="M160 265q-4 -5 -6.5 -11t-7.5 -20h-5q-21 0 -48 -14t-46 -35q-19 -20 -29.5 -48.5t-10.5 -56.5q0 -61 57 -82q-5 -13 -6.5 -18.5t-1.5 -10.5q0 -11 7 -20t16 -9q10 0 17 13q4 5 6 13l9 29q26 5 40 11.5t31 21.5q22 17 25 28l4 14q2 6 2 7q0 5 -5 5q-4 0 -10 -7 q-23 -31 -39 -41t-40 -10q-38 0 -38 45q0 6 2 16t5 21t6.5 22t7.5 20q13 27 26 42.5t25 15.5q8 0 13.5 -7.5t5.5 -18.5q0 -8 -2.5 -18.5t-9.5 -23.5q-3 -9 -3 -10q0 -8 8 -8h6l29 5q21 3 21 31q0 22 -9 37.5t-30 29.5q8 21 9 26.5t1 10.5t-3 10q-4 4 -8 6h-2q-10 0 -19 -11z " />
<glyph unicode="&#xa3;" horiz-adv-x="672" d="M412 221l17 -2l18 -3l12 -2q8 -2 7 -2q4 0 7.5 4.5t10.5 17.5q5 11 6.5 15t1.5 7q0 6 -5 6q-2 0 -8 -2q-28 -13 -59 -13q-8 0 -8 3q0 1 3 9q1 4 3 9q3 6 9 21q4 8 9 19l11 29q11 25 18 42.5t11 28.5q9 25 20 64l22 74q17 65 52 65q18 0 30 -23.5t12 -58.5 q0 -21 -5.5 -42.5t-15.5 -40t-22.5 -32.5t-27.5 -21q-9 -5 -12 -7t-3 -7q0 -6 7 -6q2 0 6.5 2t8.5 4l38 23q79 47 79 124q0 46 -23.5 77.5t-57.5 31.5q-19 0 -37 -7.5t-29 -20.5q-10 -10 -23 -30.5t-27 -47.5l-13 -25l-14 -29l-13 -30q-7 -15 -11 -26q-3 -7 -8 -21l-13 -35 l-13 -38q-5 -15 -7 -20l-12 -36q-5 -11 -9 -15q-3 -3 -11 -6q-9 -3 -18 -3q-8 0 -12 1q-8 1 -12.5 2t-6.5 2l-10 5q-4 2 -6 2q-6 0 -10 -8q-3 -8 -8 -16q-5 -9 -6 -12.5t-1 -7.5q0 -6 5 -6h4q3 0 6 2q4 1 9 2t12 3q13 3 19 3l3 1q10 0 17.5 -4t7.5 -9q0 -4 -2 -6l-5 -12 q-2 -3 -4 -7.5t-6 -11.5q-5 -8 -8.5 -14.5t-5.5 -11.5q-9 -19 -16.5 -25t-21.5 -6h-16q-5 1 -13 1t-19 1q-11 0 -18.5 0.5t-12.5 0.5q-38 0 -71 -7t-58 -19t-39.5 -27.5t-14.5 -33.5q0 -17 23.5 -25.5t65.5 -8.5q32 0 63.5 8.5t66.5 27.5q14 7 20.5 9.5t13.5 2.5q3 0 13 -2 l29 -7l58 -12l39 -8l27 -6q25 -4 53.5 -6t51.5 -2q32 0 47 6q7 3 13 8t16 19l16 21q5 7 9 14l8 13q13 22 15 24q4 7 4 12t-4 5q-1 0 -7 -4q-16 -14 -51 -23t-74 -9q-14 0 -34 2l-47 3q-29 2 -48 4t-28 4q-11 2 -17 3t-8 1q-17 2 -17 10q0 5 7 14l19 26q7 10 12 16.5t7 9.5 l15 25q2 2 4 5.5t5 6.5q3 5 4 5q4 2 10 2h6zM203 46q0 -5 -13 -10l-28 -11q-28 -11 -71 -11q-46 0 -46 16q0 13 24 19q21 6 36.5 8.5t29.5 2.5q9 0 20.5 -1t34.5 -4q13 -1 13 -9z" />
<glyph unicode="&#xa5;" horiz-adv-x="591" d="M585 664q0 7 -17 10q-3 1 -11 1q-9 0 -23.5 -6.5t-26.5 -15.5q-18 -14 -38 -33.5t-39.5 -40.5t-37 -42.5t-30.5 -40.5q-20 -31 -30.5 -44.5t-15.5 -13.5q-7 0 -13 13l-34 73q-3 5 -14 28l-12 23q-5 10 -10 18q-18 29 -42 49q-38 31 -91 31q-27 0 -40.5 -5t-27.5 -22 q-6 -8 -11 -16t-8 -16q-6 -20 -6 -45q0 -59 35.5 -113t98.5 -89q18 -11 32 -17t20 -6q9 0 9 7q0 5 -11 10q-12 5 -25.5 13t-23.5 16q-18 17 -39.5 43.5t-38.5 55.5q-31 51 -31 98q0 26 9 41t25 15q21 0 43.5 -25t44.5 -72l83 -179q1 -2 3.5 -9t4.5 -14q2 -8 2 -11 q0 -5 -6 -19.5t-15 -31.5q-2 -3 -3 -4t-6 -1h-24q-5 0 -10.5 0.5t-11.5 1.5t-11 1h-8q-16 0 -27 -24q-3 -6 -3 -15q0 -13 13 -13h4q3 0 13 2q5 1 11 1h15q14 0 18 -0.5t4 -2.5q0 -3 -1 -4l-16 -39l-7 -19q-4 -12 -9 -29l-10 -33l-5 -20q-2 -9 -4 -20t-4 -25q-6 -32 -8 -50 t-2 -32t9 -14q4 0 12 3l49 20q9 4 12 9t3 19q1 17 4 45.5t8 52.5q2 12 4 21.5t5 20.5l7 26l13 40q8 25 11 28q2 2 23 2q12 0 24.5 -0.5t17.5 -2.5q9 -3 13 -3q9 0 16.5 14t7.5 31q0 10 -15 10h-5q-3 0 -8 -1q-11 -1 -20.5 -2t-15.5 -1q-20 0 -20 4t18 46q10 26 19 45.5 l18 37.5l19 34q9 17 22 37q40 63 76.5 104.5t61.5 52.5q5 3 13 4.5t14 1.5h3l10 -2h2q3 0 8 3q3 1 4.5 2t2.5 1q0 1 0.5 3t1.5 7l2 7v1z" />
<glyph unicode="&#xa8;" horiz-adv-x="190" d="M83 307q0 17 -10.5 28.5t-26.5 13.5h-3q-15 0 -25.5 -11.5t-10.5 -27.5q0 -17 11.5 -28.5t27.5 -11.5t26.5 10.5t10.5 26.5zM183 308q0 16 -10.5 27t-27.5 11q-14 0 -25 -11.5t-11 -27.5q0 -17 10.5 -27.5t26.5 -10.5q15 0 26 11.5t11 27.5z" />
<glyph unicode="&#xa9;" horiz-adv-x="727" d="M364 693q-79 0 -144.5 -26.5t-113 -74t-73.5 -114t-26 -146.5q0 -76 27 -140.5t74.5 -111.5t112.5 -73.5t142 -26.5q78 0 143.5 26.5t113 74t74 113t26.5 143.5t-26.5 143t-74 112.5t-112.5 74t-143 26.5zM364 30q-68 0 -125 23t-98 64t-63.5 98.5t-22.5 126.5 q0 66 23 121.5t64.5 96t98 63.5t122.5 23q67 0 124 -23t97.5 -64t63.5 -97.5t23 -123.5q0 -68 -23 -124.5t-63.5 -97t-97 -63.5t-123.5 -23zM336 384q5 16 12.5 33.5t16 33t17 28.5t15.5 20l17 16q4 4 4 7t-3 3q-5 0 -21 -13.5t-31 -31.5q-14 -17 -25.5 -37.5t-20 -42.5 t-13.5 -43.5t-5 -40.5q0 -34 15 -56t38 -22t53 25.5t53 66.5q17 30 27 68t10 76q0 43 -19.5 70t-51.5 27q-28 0 -64.5 -22.5t-68.5 -58.5q-42 -48 -66 -109.5t-24 -124.5q0 -68 30 -105t85 -37q75 0 130 69q11 13 17.5 24.5t14.5 30.5q2 4 3 7t1 6q0 4 -4 4t-9 -11 q-2 -5 -12 -19t-21 -26q-14 -17 -32 -32q-37 -30 -67 -30q-18 0 -32.5 10.5t-25.5 28.5t-17 43t-6 55q0 31 7.5 65t21.5 67t33.5 63t43.5 54q30 32 56 32q17 0 26 -13t9 -36q0 -16 -2.5 -36t-7.5 -41.5t-12 -43.5t-15 -41q-8 -21 -19 -41.5t-19 -31.5q-5 -8 -13 -12t-16 -4 q-12 0 -20 14t-8 37q0 14 4 35.5t11 42.5z" />
<glyph unicode="&#xaa;" d="M270 227h-8h-38q-9 -2 -11 -4l-9 -6q-5 -3 -9 -3q-5 0 -9 3l-12 6q-17 9 -33 9q-14 0 -29.5 -6t-30.5 -16t-28.5 -24.5t-23.5 -30.5q-22 -38 -22 -77q0 -34 14.5 -56t37.5 -22q16 0 39.5 15t42.5 37q5 5 8 5q5 0 5 -6v-10q0 -20 10.5 -30.5t27.5 -10.5q21 0 51 17.5 t56 46.5q13 16 13 35q0 7 -5 7t-8.5 -4.5t-8.5 -15.5q-4 -8 -11 -17t-15 -15q-8 -5 -13 -5q-9 0 -9 14q0 5 3 17.5t6 23.5l29 101l1 6q1 4 1 6q0 5 -2 7t-10 3zM85 96v3q0 23 9.5 47.5t23.5 40.5q6 7 15 12t15 5q12 0 12 -19v-3q0 -11 8 -14q4 -1 6 -2t3 -1q3 -2 3 -6v-1 q0 -6 -7 -21.5t-18 -31.5q-27 -39 -49 -39q-9 0 -15 8.5t-6 21.5z" />
<glyph unicode="&#xad;" horiz-adv-x="144" d="M137 129q0 6 -3 8t-13 2h-5q-3 0 -7 -1q-20 -3 -31 -3q-5 0 -11 0.5t-12 1.5q-5 1 -9.5 1.5t-8.5 0.5q-16 0 -27 -24q-3 -6 -3 -15q0 -14 13 -14h4l13 3q5 0 11 0.5t12 0.5h9q12 0 19.5 -1t11.5 -3q9 -3 13 -3q9 0 16.5 14.5t7.5 31.5z" />
<glyph unicode="&#xae;" horiz-adv-x="727" d="M364 693q-79 0 -144.5 -26.5t-113 -74t-73.5 -114t-26 -146.5q0 -76 27 -140.5t74.5 -111.5t112.5 -73.5t142 -26.5q78 0 143.5 26.5t113 74t74 113t26.5 143.5t-26.5 143t-74 112.5t-112.5 74t-143 26.5zM364 30q-68 0 -125 23t-98 64t-63.5 98.5t-22.5 126.5 q0 66 23 121.5t64.5 96t98 63.5t122.5 23q67 0 124 -23t97.5 -64t63.5 -97.5t23 -123.5q0 -68 -23 -124.5t-63.5 -97t-97 -63.5t-123.5 -23zM538 215q-5 0 -7 -7l-1 -6q-2 -8 -10 -8q-6 0 -18 12q-19 16 -26 25l-34 41q-14 17 -32.5 34t-29.5 24q-6 3 -6 6q0 5 10 6 q36 7 66.5 22.5t53 37t35 48t12.5 54.5q0 41 -28 65.5t-74 24.5q-67 0 -135 -43t-128 -124q-37 -49 -56 -97.5t-19 -92.5q0 -42 19 -68.5t49 -26.5q21 0 42 9.5t40.5 27t36 42t28.5 53.5q4 10 10 10q8 0 23 -12q5 -5 10 -9.5t11 -11.5l14 -17l20 -24q57 -70 86 -70q7 0 12 5 t15 19q20 31 20 39q0 2 -0.5 3t-3.5 5t-5 4zM310 454l-10 -49l-7 -29q-3 -12 -4 -15t-3 -4q-1 -1 -4 -1q-10 -2 -15 -7t-20 -27q-2 -2 -4 -5t-5 -8q-2 -4 -2 -6q0 -4 4 -4q3 0 6 1q2 1 3 1t6 1q2 0 4.5 0.5t4.5 0.5h1q10 0 10 -8q0 -2 -2 -8q-1 -2 -2.5 -6t-3.5 -10 q-20 -60 -40 -86.5t-46 -26.5q-36 0 -36 52q0 29 12 71q10 35 23.5 64.5t34.5 64.5q50 80 102 121.5t104 41.5q32 0 52.5 -20.5t20.5 -52.5q0 -37 -20.5 -71t-55.5 -53q-16 -8 -32 -14t-25 -6t-9 7q0 3 0.5 6t1.5 7q1 3 3 10l5 20l9 40l7 29q3 12 5 17q2 8 4.5 15.5 t4.5 15.5q3 10 7 16q2 6 2 9q0 5 -4 5q-2 0 -4 -1l-53 -25q-7 -3 -9.5 -5t-4.5 -7q-7 -14 -16 -61z" />
<glyph unicode="&#xb0;" horiz-adv-x="126" d="M63 673q-23 0 -39 -16.5t-17 -39.5q0 -23 16.5 -39.5t39.5 -16.5t39.5 16.5t16.5 39.5t-16.5 39.5t-39.5 16.5zM63 580q-15 0 -25.5 10.5t-11.5 26.5q0 15 11 26t26 11t26 -11t11 -26t-11 -26t-26 -11z" />
<glyph unicode="&#xb2;" horiz-adv-x="260" d="M7 10q0 -6 5 -8t19 -2h145q8 0 12.5 3t9.5 11l42 70q5 10 5 14q0 2 -2 4q-1 1 -3 1q-3 0 -7 -3q-13 -10 -38.5 -16t-54.5 -6q-8 0 -20.5 0.5t-21.5 0.5q-7 1 -7 6q0 4 5 11q12 14 23 25.5t21 19.5l41 32q35 27 54 60.5t19 65.5q0 43 -26 71t-67 28q-25 0 -46.5 -11 t-38 -29.5t-26 -44t-9.5 -53.5q0 -33 13 -59q6 -13 13 -13q6 0 6 6q0 3 -2 13q0 3 -0.5 7t-0.5 9q0 22 5.5 46.5t13.5 44.5q11 26 26 41t29 15t22.5 -16t8.5 -42q0 -14 -3.5 -32t-9.5 -35q-8 -22 -21.5 -42.5t-38.5 -52.5l-33 -42q-27 -35 -44.5 -62t-17.5 -36z" />
<glyph unicode="&#xb3;" horiz-adv-x="266" d="M120 246q-5 0 -7.5 -3t-5.5 -14l-7 -24q0 -1 -0.5 -2.5t-0.5 -3.5q-1 -3 -1 -7q0 -11 14 -11q7 0 12 1q11 2 14 2.5t5 0.5q16 0 16 -43q0 -24 -5.5 -45.5t-14.5 -38t-21.5 -26t-25.5 -9.5q-24 0 -38.5 18t-14.5 49q0 44 17 75q3 4 3 9q0 3 -1 4q-2 2 -5 2q-11 0 -32 -35 q-14 -25 -14 -55q0 -44 26.5 -69t71.5 -25q26 0 49 10t40.5 27t28 40t10.5 49q0 37 -21 66q-7 8 -9 12t-2 7q0 5 3 8l6 5q3 4 10 10q17 15 28.5 39.5t11.5 47.5q0 38 -21.5 60.5t-57.5 22.5q-17 0 -36 -7.5t-36.5 -20t-32.5 -30t-24 -37.5q-2 -4 -4.5 -10t-5.5 -14 q-1 -4 -3 -10v-1q0 -8 6 -8q4 0 10 10q20 39 47 62t53 23q15 0 25 -15.5t10 -38.5q0 -10 -2 -22t-6 -21l-7 -15q-4 -11 -12 -11q-3 0 -9 2l-12 5q-3 2 -14 4q-3 1 -8 1z" />
<glyph unicode="&#xb4;" horiz-adv-x="136" d="M65 401q-10 -1 -13 -12l-3 -20q-2 -15 -12 -35t-19 -30q-8 -8 -9.5 -12t-1.5 -9t4.5 -9.5t11.5 -4.5q9 0 29 16t37 37q18 21 29.5 39t11.5 24q0 19 -25 19q-11 0 -22.5 -0.5t-17.5 -2.5z" />
<glyph unicode="&#xb6;" horiz-adv-x="491" d="M484 612v55h-172q-35 0 -75.5 -3t-68.5 -8q-45 -6 -83 -33q-37 -26 -58 -69.5t-21 -96.5q0 -89 51.5 -141t147.5 -62v-417h66v775h78v-775h66v775h69z" />
<glyph unicode="&#xb9;" horiz-adv-x="179" d="M75 255l-2 -11l-38 -216q0 -3 -1 -6q-1 -4 -1 -10q0 -12 15 -12h41q11 0 15.5 5t7.5 22l57 323l3 12q0 3 0.5 5.5t0.5 5.5q0 18 -15 18q-5 0 -10.5 -3.5t-20.5 -18.5q-19 -18 -40.5 -33.5t-47.5 -29.5q-19 -10 -19 -44q0 -9 8 -9q3 0 8 3l13 8q18 11 22 11q6 0 6 -8 q0 -3 -0.5 -5.5t-1.5 -6.5z" />
<glyph unicode="&#xba;" horiz-adv-x="231" d="M145 242q-8 -7 -9 -8l-6 -8q-5 -7 -18 -10q-48 -11 -76.5 -44.5t-28.5 -77.5q0 -41 24 -68t61 -27q26 0 52 18.5t46 49.5q5 7 7 8.5t9 3.5q18 6 18 13q0 3 -2 6l-4 6l-5 6q-2 2 -2 5q0 2 0.5 5.5t1.5 8.5q4 12 4 26q0 39 -15 67t-36 28q-10 0 -21 -8zM151 190q0 19 12 19 q9 0 14 -14t5 -38q0 -17 -10 -17q-8 0 -14 18q-7 22 -7 32zM149 53q-14 -17 -30 -18h-2q-14 0 -22 12.5t-8 35.5q0 20 5 40.5t13 36.5q9 14 15 14q4 0 6 -3t5 -14q3 -7 13 -23q3 -5 6 -9t6 -9q8 -8 9.5 -11.5t1.5 -9.5q0 -9 -5 -20.5t-13 -21.5z" />
<glyph unicode="&#xbf;" horiz-adv-x="213" d="M87 -82h6q23 0 44 12t36.5 32.5t24.5 47.5t9 56q0 35 -8 58t-20 23t-12 -12v-3q0 -1 1 -4l3 -7q3 -9 3 -23q0 -29 -7 -56t-18.5 -47.5t-26.5 -32.5t-31 -12q-11 0 -18.5 8t-7.5 22q0 26 21 68q6 12 11 21l11 20l16 27l26 40q26 42 37 67.5t11 45.5q0 31 -16 53.5 t-38 22.5q-21 0 -39.5 -10t-32 -27.5t-21.5 -41t-8 -50.5q0 -40 13 -40q16 0 17 28q1 14 6.5 32t13.5 32t21.5 25.5t23.5 11.5q15 0 15 -21q0 -12 -7 -29.5t-20 -36.5l-18 -26l-22 -31q-44 -60 -61.5 -96.5t-17.5 -68.5q0 -34 22.5 -56t57.5 -22zM112 425q0 -18 11 -30.5 t28 -12.5q15 0 25.5 13t10.5 30t-10.5 29.5t-25.5 12.5q-16 0 -27.5 -12.5t-11.5 -29.5z" />
<glyph unicode="&#xc0;" horiz-adv-x="603" d="M463 781q17 -20 31 -33.5t25 -19.5l19 -10q8 -5 12 -5q5 0 11 4q3 3 3 7q0 3 -3 8l-8 10q-8 9 -20.5 34t-20.5 46q-3 8 -5 9.5t-8 2.5q-5 1 -8.5 1.5t-8.5 0.5q-23 0 -30.5 -3.5t-7.5 -12.5q0 -8 4 -17t15 -22zM509 231l42 219l4 20q3 14 6.5 38t8.5 62q2 14 3 26t1 23 q0 31 -17 51t-44 20q-32 0 -75.5 -28.5t-88.5 -79.5q-23 -26 -47 -58l-48 -62l-40.5 -61t-28.5 -49q-8 -17 -13.5 -22.5t-12.5 -5.5q-3 0 -7.5 1.5t-12.5 3.5q-14 5 -26.5 6.5t-26.5 1.5q-37 0 -58 -13t-21 -36q0 -20 20.5 -41.5t52.5 -37.5q14 -7 19 -11.5t5 -10.5t-3 -13 q-11 -28 -18.5 -50t-14.5 -54q-8 -32 -12 -61q-5 -29 -8 -54t-3 -39t10 -14q4 0 12 3l49 20q9 4 12 9t3 19q0 9 2 31t4 41q4 28 9 55.5t10 43.5l8 29q4 14 9 18.5t13 4.5q3 0 11 -1t19 -3q5 -1 13 -2t19 -2q14 -1 22 -1.5t13 -0.5l21 -1q11 -1 16.5 -6t17.5 -27l12 -22 l7 -16l5 -13q3 -6 6 -14q5 -16 7 -32l3 -23q1 -12 18 -12h49q14 0 19 5t8 22l23 128q2 13 7.5 18t22.5 7l28 4q11 2 18 7.5t15 19.5q11 20 11 24q0 2 -2 4q-3 3 -5 3q-3 0 -6 -3l-15 -10q-30 -21 -49 -21q-12 0 -12 15q0 5 1 8zM464 475l-4 -16l-43 -233l-2 -11 q-3 -16 -7.5 -20.5t-16.5 -5.5q-9 0 -16.5 -0.5t-12.5 -0.5q-6 -1 -11 -1h-8q-11 0 -16 2.5t-12 12.5q-6 9 -12 16l-13 14q-7 8 -17 17l-25 22q-14 13 -20 17q-11 8 -11 15t4 15l13 30q15 35 36.5 74t45.5 75.5t49 68t48 51.5q27 25 49 25q21 0 21 -29q0 -8 -0.5 -16 t-2.5 -19l-3 -24q-2 -15 -6 -37q-3 -17 -4.5 -27t-2.5 -15zM53 278q0 20 37 23q2 1 6 1q23 0 37 -5.5t14 -13.5q0 -1 -4 -11q-2 -5 -4.5 -10t-5.5 -12q-9 -20 -19 -20q-13 0 -36 16q-25 17 -25 32zM248 242q26 -19 32 -27l9 -13q4 -4 4 -8q0 -6 -11 -6q-39 0 -69 8t-30 18 q0 3 2 11l7 21q2 8 7.5 13t10.5 5t16 -6t22 -16zM348 158q0 4 9 6l18 1h12q14 0 14 -14v-7q0 -3 -1 -6q-4 -19 -4 -23q-1 -22 -10 -22q-7 0 -17 22q-2 5 -5 11l-6 12l-7 13q-3 4 -3 7z" />
<glyph unicode="&#xc1;" horiz-adv-x="603" d="M542 845q-10 -1 -13 -12l-3 -20q-2 -15 -12 -35t-19 -30q-8 -8 -9.5 -12t-1.5 -9t4.5 -9.5t11.5 -4.5q9 0 29 16t37 37q18 21 29.5 39t11.5 24q0 19 -25 19q-11 0 -22.5 -0.5t-17.5 -2.5zM509 231l42 219l4 20q3 14 6.5 38t8.5 62q2 14 3 26t1 23q0 31 -17 51t-44 20 q-32 0 -75.5 -28.5t-88.5 -79.5q-23 -26 -47 -58l-48 -62l-40.5 -61t-28.5 -49q-8 -17 -13.5 -22.5t-12.5 -5.5q-3 0 -7.5 1.5t-12.5 3.5q-14 5 -26.5 6.5t-26.5 1.5q-37 0 -58 -13t-21 -36q0 -20 20.5 -41.5t52.5 -37.5q14 -7 19 -11.5t5 -10.5t-3 -13q-11 -28 -18.5 -50 t-14.5 -54q-8 -32 -12 -61q-5 -29 -8 -54t-3 -39t10 -14q4 0 12 3l49 20q9 4 12 9t3 19q0 9 2 31t4 41q4 28 9 55.5t10 43.5l8 29q4 14 9 18.5t13 4.5q3 0 11 -1t19 -3q5 -1 13 -2t19 -2q14 -1 22 -1.5t13 -0.5l21 -1q11 -1 16.5 -6t17.5 -27l12 -22l7 -16l5 -13q3 -6 6 -14 q5 -16 7 -32l3 -23q1 -12 18 -12h49q14 0 19 5t8 22l23 128q2 13 7.5 18t22.5 7l28 4q11 2 18 7.5t15 19.5q11 20 11 24q0 2 -2 4q-3 3 -5 3q-3 0 -6 -3l-15 -10q-30 -21 -49 -21q-12 0 -12 15q0 5 1 8zM464 475l-4 -16l-43 -233l-2 -11q-3 -16 -7.5 -20.5t-16.5 -5.5 q-9 0 -16.5 -0.5t-12.5 -0.5q-6 -1 -11 -1h-8q-11 0 -16 2.5t-12 12.5q-6 9 -12 16l-13 14q-7 8 -17 17l-25 22q-14 13 -20 17q-11 8 -11 15t4 15l13 30q15 35 36.5 74t45.5 75.5t49 68t48 51.5q27 25 49 25q21 0 21 -29q0 -8 -0.5 -16t-2.5 -19l-3 -24q-2 -15 -6 -37 q-3 -17 -4.5 -27t-2.5 -15zM53 278q0 20 37 23q2 1 6 1q23 0 37 -5.5t14 -13.5q0 -1 -4 -11q-2 -5 -4.5 -10t-5.5 -12q-9 -20 -19 -20q-13 0 -36 16q-25 17 -25 32zM248 242q26 -19 32 -27l9 -13q4 -4 4 -8q0 -6 -11 -6q-39 0 -69 8t-30 18q0 3 2 11l7 21q2 8 7.5 13t10.5 5 t16 -6t22 -16zM348 158q0 4 9 6l18 1h12q14 0 14 -14v-7q0 -3 -1 -6q-4 -19 -4 -23q-1 -22 -10 -22q-7 0 -17 22q-2 5 -5 11l-6 12l-7 13q-3 4 -3 7z" />
<glyph unicode="&#xc2;" horiz-adv-x="603" d="M493 817l-28 -34l-25 -27q-16 -16 -16 -28q0 -6 4 -10.5t9 -4.5q4 0 17 7t27 17l12 8q6 5 12 5t10.5 -4.5t11.5 -17.5q4 -7 10.5 -9.5t22.5 -2.5q11 0 18 10q6 7 6 14q0 2 -3 8q-7 11 -11.5 26.5t-6.5 31.5q-4 41 -24 41q-21 0 -46 -30zM509 231l42 219l4 20q3 14 6.5 38 t8.5 62q2 14 3 26t1 23q0 31 -17 51t-44 20q-32 0 -75.5 -28.5t-88.5 -79.5q-23 -26 -47 -58l-48 -62l-40.5 -61t-28.5 -49q-8 -17 -13.5 -22.5t-12.5 -5.5q-3 0 -7.5 1.5t-12.5 3.5q-14 5 -26.5 6.5t-26.5 1.5q-37 0 -58 -13t-21 -36q0 -20 20.5 -41.5t52.5 -37.5 q14 -7 19 -11.5t5 -10.5t-3 -13q-11 -28 -18.5 -50t-14.5 -54q-8 -32 -12 -61q-5 -29 -8 -54t-3 -39t10 -14q4 0 12 3l49 20q9 4 12 9t3 19q0 9 2 31t4 41q4 28 9 55.5t10 43.5l8 29q4 14 9 18.5t13 4.5q3 0 11 -1t19 -3q5 -1 13 -2t19 -2q14 -1 22 -1.5t13 -0.5l21 -1 q11 -1 16.5 -6t17.5 -27l12 -22l7 -16l5 -13q3 -6 6 -14q5 -16 7 -32l3 -23q1 -12 18 -12h49q14 0 19 5t8 22l23 128q2 13 7.5 18t22.5 7l28 4q11 2 18 7.5t15 19.5q11 20 11 24q0 2 -2 4q-3 3 -5 3q-3 0 -6 -3l-15 -10q-30 -21 -49 -21q-12 0 -12 15q0 5 1 8zM464 475 l-4 -16l-43 -233l-2 -11q-3 -16 -7.5 -20.5t-16.5 -5.5q-9 0 -16.5 -0.5t-12.5 -0.5q-6 -1 -11 -1h-8q-11 0 -16 2.5t-12 12.5q-6 9 -12 16l-13 14q-7 8 -17 17l-25 22q-14 13 -20 17q-11 8 -11 15t4 15l13 30q15 35 36.5 74t45.5 75.5t49 68t48 51.5q27 25 49 25 q21 0 21 -29q0 -8 -0.5 -16t-2.5 -19l-3 -24q-2 -15 -6 -37q-3 -17 -4.5 -27t-2.5 -15zM53 278q0 20 37 23q2 1 6 1q23 0 37 -5.5t14 -13.5q0 -1 -4 -11q-2 -5 -4.5 -10t-5.5 -12q-9 -20 -19 -20q-13 0 -36 16q-25 17 -25 32zM248 242q26 -19 32 -27l9 -13q4 -4 4 -8 q0 -6 -11 -6q-39 0 -69 8t-30 18q0 3 2 11l7 21q2 8 7.5 13t10.5 5t16 -6t22 -16zM348 158q0 4 9 6l18 1h12q14 0 14 -14v-7q0 -3 -1 -6q-4 -19 -4 -23q-1 -22 -10 -22q-7 0 -17 22q-2 5 -5 11l-6 12l-7 13q-3 4 -3 7z" />
<glyph unicode="&#xc3;" horiz-adv-x="603" d="M567 751l17 17l11 12q18 20 29.5 34t11.5 21q0 6 -4 10.5t-10 4.5q-13 0 -42 -24q-18 -16 -23.5 -19.5t-10.5 -3.5q-9 0 -15 11l-11 15q-7 9 -21 9q-22 0 -46 -30l-20 -25l-25 -27q-16 -16 -16 -28q0 -6 4 -10.5t9 -4.5t10 4l13 7l38 36q5 4 12.5 8t12.5 5h2q7 0 12 -10 q12 -25 33 -25q6 0 15 4t14 9zM509 231l42 219l4 20q3 14 6.5 38t8.5 62q2 14 3 26t1 23q0 31 -17 51t-44 20q-32 0 -75.5 -28.5t-88.5 -79.5q-23 -26 -47 -58l-48 -62l-40.5 -61t-28.5 -49q-8 -17 -13.5 -22.5t-12.5 -5.5q-3 0 -7.5 1.5t-12.5 3.5q-14 5 -26.5 6.5 t-26.5 1.5q-37 0 -58 -13t-21 -36q0 -20 20.5 -41.5t52.5 -37.5q14 -7 19 -11.5t5 -10.5t-3 -13q-11 -28 -18.5 -50t-14.5 -54q-8 -32 -12 -61q-5 -29 -8 -54t-3 -39t10 -14q4 0 12 3l49 20q9 4 12 9t3 19q0 9 2 31t4 41q4 28 9 55.5t10 43.5l8 29q4 14 9 18.5t13 4.5 q3 0 11 -1t19 -3q5 -1 13 -2t19 -2q14 -1 22 -1.5t13 -0.5l21 -1q11 -1 16.5 -6t17.5 -27l12 -22l7 -16l5 -13q3 -6 6 -14q5 -16 7 -32l3 -23q1 -12 18 -12h49q14 0 19 5t8 22l23 128q2 13 7.5 18t22.5 7l28 4q11 2 18 7.5t15 19.5q11 20 11 24q0 2 -2 4q-3 3 -5 3 q-3 0 -6 -3l-15 -10q-30 -21 -49 -21q-12 0 -12 15q0 5 1 8zM464 475l-4 -16l-43 -233l-2 -11q-3 -16 -7.5 -20.5t-16.5 -5.5q-9 0 -16.5 -0.5t-12.5 -0.5q-6 -1 -11 -1h-8q-11 0 -16 2.5t-12 12.5q-6 9 -12 16l-13 14q-7 8 -17 17l-25 22q-14 13 -20 17q-11 8 -11 15t4 15 l13 30q15 35 36.5 74t45.5 75.5t49 68t48 51.5q27 25 49 25q21 0 21 -29q0 -8 -0.5 -16t-2.5 -19l-3 -24q-2 -15 -6 -37q-3 -17 -4.5 -27t-2.5 -15zM53 278q0 20 37 23q2 1 6 1q23 0 37 -5.5t14 -13.5q0 -1 -4 -11q-2 -5 -4.5 -10t-5.5 -12q-9 -20 -19 -20q-13 0 -36 16 q-25 17 -25 32zM248 242q26 -19 32 -27l9 -13q4 -4 4 -8q0 -6 -11 -6q-39 0 -69 8t-30 18q0 3 2 11l7 21q2 8 7.5 13t10.5 5t16 -6t22 -16zM348 158q0 4 9 6l18 1h12q14 0 14 -14v-7q0 -3 -1 -6q-4 -19 -4 -23q-1 -22 -10 -22q-7 0 -17 22q-2 5 -5 11l-6 12l-7 13q-3 4 -3 7 z" />
<glyph unicode="&#xc4;" horiz-adv-x="603" d="M502 750q0 17 -10.5 28.5t-26.5 13.5h-3q-15 0 -25.5 -11.5t-10.5 -27.5q0 -17 11.5 -28.5t27.5 -11.5t26.5 10.5t10.5 26.5zM602 751q0 16 -10.5 27t-27.5 11q-14 0 -25 -11.5t-11 -27.5q0 -17 10.5 -27.5t26.5 -10.5q15 0 26 11.5t11 27.5zM509 231l42 219l4 20 q3 14 6.5 38t8.5 62q2 14 3 26t1 23q0 31 -17 51t-44 20q-32 0 -75.5 -28.5t-88.5 -79.5q-23 -26 -47 -58l-48 -62l-40.5 -61t-28.5 -49q-8 -17 -13.5 -22.5t-12.5 -5.5q-3 0 -7.5 1.5t-12.5 3.5q-14 5 -26.5 6.5t-26.5 1.5q-37 0 -58 -13t-21 -36q0 -20 20.5 -41.5 t52.5 -37.5q14 -7 19 -11.5t5 -10.5t-3 -13q-11 -28 -18.5 -50t-14.5 -54q-8 -32 -12 -61q-5 -29 -8 -54t-3 -39t10 -14q4 0 12 3l49 20q9 4 12 9t3 19q0 9 2 31t4 41q4 28 9 55.5t10 43.5l8 29q4 14 9 18.5t13 4.5q3 0 11 -1t19 -3q5 -1 13 -2t19 -2q14 -1 22 -1.5t13 -0.5 l21 -1q11 -1 16.5 -6t17.5 -27l12 -22l7 -16l5 -13q3 -6 6 -14q5 -16 7 -32l3 -23q1 -12 18 -12h49q14 0 19 5t8 22l23 128q2 13 7.5 18t22.5 7l28 4q11 2 18 7.5t15 19.5q11 20 11 24q0 2 -2 4q-3 3 -5 3q-3 0 -6 -3l-15 -10q-30 -21 -49 -21q-12 0 -12 15q0 5 1 8z M464 475l-4 -16l-43 -233l-2 -11q-3 -16 -7.5 -20.5t-16.5 -5.5q-9 0 -16.5 -0.5t-12.5 -0.5q-6 -1 -11 -1h-8q-11 0 -16 2.5t-12 12.5q-6 9 -12 16l-13 14q-7 8 -17 17l-25 22q-14 13 -20 17q-11 8 -11 15t4 15l13 30q15 35 36.5 74t45.5 75.5t49 68t48 51.5q27 25 49 25 q21 0 21 -29q0 -8 -0.5 -16t-2.5 -19l-3 -24q-2 -15 -6 -37q-3 -17 -4.5 -27t-2.5 -15zM53 278q0 20 37 23q2 1 6 1q23 0 37 -5.5t14 -13.5q0 -1 -4 -11q-2 -5 -4.5 -10t-5.5 -12q-9 -20 -19 -20q-13 0 -36 16q-25 17 -25 32zM248 242q26 -19 32 -27l9 -13q4 -4 4 -8 q0 -6 -11 -6q-39 0 -69 8t-30 18q0 3 2 11l7 21q2 8 7.5 13t10.5 5t16 -6t22 -16zM348 158q0 4 9 6l18 1h12q14 0 14 -14v-7q0 -3 -1 -6q-4 -19 -4 -23q-1 -22 -10 -22q-7 0 -17 22q-2 5 -5 11l-6 12l-7 13q-3 4 -3 7z" />
<glyph unicode="&#xc5;" horiz-adv-x="603" d="M509 231l42 219l4 20q3 14 6.5 38t8.5 62q2 14 3 26t1 23q0 31 -17 51t-44 20q-32 0 -75.5 -28.5t-88.5 -79.5q-23 -26 -47 -58l-48 -62l-40.5 -61t-28.5 -49q-8 -17 -13.5 -22.5t-12.5 -5.5q-3 0 -7.5 1.5t-12.5 3.5q-14 5 -26.5 6.5t-26.5 1.5q-37 0 -58 -13t-21 -36 q0 -20 20.5 -41.5t52.5 -37.5q14 -7 19 -11.5t5 -10.5t-3 -13q-11 -28 -18.5 -50t-14.5 -54q-8 -32 -12 -61q-5 -29 -8 -54t-3 -39t10 -14q4 0 12 3l49 20q9 4 12 9t3 19q0 9 2 31t4 41q4 28 9 55.5t10 43.5l8 29q4 14 9 18.5t13 4.5q3 0 11 -1t19 -3q5 -1 13 -2t19 -2 q14 -1 22 -1.5t13 -0.5l21 -1q11 -1 16.5 -6t17.5 -27l12 -22l7 -16l5 -13q3 -6 6 -14q5 -16 7 -32l3 -23q1 -12 18 -12h49q14 0 19 5t8 22l23 128q2 13 7.5 18t22.5 7l28 4q11 2 18 7.5t15 19.5q11 20 11 24q0 2 -2 4q-3 3 -5 3q-3 0 -6 -3l-15 -10q-30 -21 -49 -21 q-12 0 -12 15q0 5 1 8zM464 475l-4 -16l-43 -233l-2 -11q-3 -16 -7.5 -20.5t-16.5 -5.5q-9 0 -16.5 -0.5t-12.5 -0.5q-6 -1 -11 -1h-8q-11 0 -16 2.5t-12 12.5q-6 9 -12 16l-13 14q-7 8 -17 17l-25 22q-14 13 -20 17q-11 8 -11 15t4 15l13 30q15 35 36.5 74t45.5 75.5t49 68 t48 51.5q27 25 49 25q21 0 21 -29q0 -8 -0.5 -16t-2.5 -19l-3 -24q-2 -15 -6 -37q-3 -17 -4.5 -27t-2.5 -15zM53 278q0 20 37 23q2 1 6 1q23 0 37 -5.5t14 -13.5q0 -1 -4 -11q-2 -5 -4.5 -10t-5.5 -12q-9 -20 -19 -20q-13 0 -36 16q-25 17 -25 32zM248 242q26 -19 32 -27 l9 -13q4 -4 4 -8q0 -6 -11 -6q-39 0 -69 8t-30 18q0 3 2 11l7 21q2 8 7.5 13t10.5 5t16 -6t22 -16zM348 158q0 4 9 6l18 1h12q14 0 14 -14v-7q0 -3 -1 -6q-4 -19 -4 -23q-1 -22 -10 -22q-7 0 -17 22q-2 5 -5 11l-6 12l-7 13q-3 4 -3 7zM518 837q-26 0 -43.5 -18t-18.5 -44 q0 -26 18 -44t44 -18t44 18t18 44t-18 44t-44 18zM518 746q-12 0 -20.5 8.5t-9.5 20.5t8 21t22 9q12 0 20.5 -9t8.5 -21t-8.5 -20.5t-20.5 -8.5z" />
<glyph unicode="&#xc6;" horiz-adv-x="962" d="M508 231l42 219l5 20q4 14 7 38l8 62q2 14 3 26t1 23q0 31 -17.5 51t-43.5 20q-33 0 -76 -28.5t-88 -79.5q-23 -26 -47 -58l-48 -62l-41 -61q-19 -29 -29 -49q-8 -17 -13 -22.5t-12 -5.5q-4 0 -21 5q-14 5 -26.5 6.5t-26.5 1.5q-36 0 -57 -13t-21 -36q0 -20 20 -41.5 t52 -37.5q14 -7 19.5 -11.5t5.5 -10.5t-4 -13q-11 -28 -17.5 -50t-14.5 -54t-12 -61q-5 -29 -8 -54t-3 -39t10 -14q5 0 11 3l49 20q10 4 12.5 9t3.5 19q0 9 2 31t4 41q3 28 8 55.5t10 43.5l9 29q5 14 9 18.5t13 4.5q3 0 11 -1t19 -3q5 -1 13 -2t19 -2q13 -1 21.5 -1.5 t13.5 -0.5l21 -1q10 -1 15.5 -6t17.5 -27q7 -14 12 -22.5t8 -15.5l5 -13q3 -6 6 -14q5 -16 7 -32l2 -23q1 -12 19 -12h49q14 0 18.5 5t7.5 22l24 128q3 17 14 21q8 2 17.5 4t23.5 4l21 3l28 4l32 5q11 2 17.5 3t8.5 2t6 2t9 3q2 0 3.5 0.5t3.5 0.5q7 0 7 -7q0 -12 -8 -20 q-5 -5 -10 -7l-24 -10q-153 -62 -153 -188q0 -37 12.5 -67.5t35 -52t54.5 -33.5t71 -12q36 0 72 9.5t68.5 27t60 42t47.5 54.5q12 18 22 40.5t10 32.5q0 4 -3 7q-2 4 -5 4q-5 0 -10 -11l-12 -24q-33 -66 -87.5 -105t-113.5 -39q-29 0 -53 11t-41 30.5t-27 46t-10 58.5 q0 35 12.5 67.5t34.5 53.5q38 35 111 49q7 2 12 2.5t8 1.5q6 1 11 5q6 4 6 14v3l-1 15v4q0 22 16 29l26 12q29 13 54 34t43.5 46t29 52.5t10.5 54.5q0 28 -18 48t-44 20q-52 0 -109 -57q-29 -29 -46.5 -55.5t-30.5 -63.5q-11 -30 -15 -57q-2 -17 -3.5 -23t-6.5 -10 q-4 -4 -12.5 -7.5t-25.5 -7.5q-34 -8 -84 -13q-10 -1 -15.5 -1.5t-7.5 -0.5q-5 -1 -15 -1q-14 0 -14 15v8zM463 475l-3 -16l-43 -233l-2 -11q-3 -16 -7.5 -20.5t-16.5 -5.5q-9 0 -16.5 -0.5t-13.5 -0.5q-5 -1 -10 -1h-8q-11 0 -16.5 2.5t-12.5 12.5q-6 9 -12 16l-13 14 q-7 8 -16.5 17t-24.5 22q-15 14 -21 17q-6 5 -8 7.5t-2 7.5q0 2 1 6t3 9l12 30q14 36 35.5 75t46 75.5t50 67.5t48.5 51q27 25 49 25q20 0 20 -29q0 -8 -0.5 -16t-1.5 -18.5t-3 -25t-6 -36.5q-3 -17 -4.5 -27t-3.5 -15zM53 278q0 20 37 23q2 1 6 1q23 0 36.5 -5.5 t13.5 -13.5q0 -4 -4 -11q-5 -10 -9 -22q-9 -20 -20 -20t-36 16q-24 17 -24 32zM248 242q26 -19 32 -27l9 -13q4 -6 4 -8q0 -6 -11 -6q-40 0 -69.5 8t-29.5 18q0 7 2 11l7 21q2 8 7 13t10 5t16.5 -6t22.5 -16zM348 158q0 4 9 6l17 1h13q14 0 14 -14q0 -3 -0.5 -6.5t-0.5 -6.5 q-4 -19 -4 -23q-3 -22 -11 -22q-6 0 -16 22q-2 5 -5.5 11t-6.5 12l-7 13q-2 6 -2 7zM902 430v-2q0 -39 -21.5 -77.5t-56.5 -67.5q-27 -21 -38 -21q-5 0 -7 3.5t-2 14.5q0 8 1.5 20t6.5 31q8 35 15 56t21 44q25 45 50 45q14 0 22.5 -13t8.5 -33z" />
<glyph unicode="&#xc7;" horiz-adv-x="465" d="M63 33q16 -19 33 -27.5t50 -15.5l-5 -31l-1 -5v-3q0 -5 3 -5q1 1 2 1l3 2q5 5 12 5q16 0 16 -21q0 -17 -10 -29q-5 -7 -10 -7q-9 0 -13 11l-1 3q0 4 -5 4q-6 0 -6 -7q0 -9 9 -15t21 -6q23 0 38.5 16t15.5 39q0 13 -6.5 21.5t-17.5 8.5q-6 0 -18 -5q-1 -1 -2 -1q-2 0 -2 2 v2l1 1l4 16h8q117 0 202 106q16 19 26 36.5t23 47.5q5 13 5 19q0 8 -6 8q-3 0 -5.5 -3.5t-7.5 -14.5q-2 -7 -21 -32q-8 -11 -16 -20l-14 -17q-11 -13 -23.5 -25t-26.5 -24q-30 -25 -54 -36t-48 -11q-27 0 -50 16t-39.5 44.5t-26 67t-9.5 84.5q0 48 12 100.5t33.5 103 t51.5 96.5t66 83q23 23 45.5 36t41.5 13q25 0 39.5 -20.5t14.5 -55.5q0 -24 -4.5 -54.5t-12 -64t-18 -67t-22.5 -63.5q-14 -32 -30 -63t-29 -48q-9 -12 -21 -19t-24 -7q-19 0 -31 22t-12 56q0 23 6 55.5t17 64.5q8 25 20 51.5t25 50.5t26 44t24 31l25 26q6 7 6 10q0 5 -4 5 q-5 0 -13.5 -5.5t-19.5 -15.5t-23.5 -22.5t-23.5 -25.5q-22 -27 -40 -58.5t-31 -65t-20.5 -66.5t-7.5 -63q0 -53 23 -86.5t58 -33.5q18 0 39 10.5t43 29t43 44.5t39 57q20 35 31.5 70.5t19.5 83.5q6 37 6 69q0 33 -8 60t-22.5 46.5t-34.5 30.5t-44 11q-22 0 -47.5 -9 t-52.5 -25t-54.5 -39t-51.5 -50q-65 -74 -101 -169.5t-36 -191.5q0 -55 13.5 -96.5t42.5 -75.5z" />
<glyph unicode="&#xc8;" horiz-adv-x="477" d="M359 781q17 -20 31 -33.5t25 -19.5l19 -10q8 -5 12 -5q5 0 11 4q3 3 3 7q0 3 -3 8l-8 10q-8 9 -20.5 34t-20.5 46q-3 8 -5 9.5t-8 2.5q-5 1 -8.5 1.5t-8.5 0.5q-23 0 -30.5 -3.5t-7.5 -12.5q0 -8 4 -17t15 -22zM94 525q-2 0 -5 -3l-8 -12l-8 -13q-1 -2 -1 -7 q0 -13 8.5 -27t22.5 -27t32 -23t38 -15q18 -5 24 -8.5t6 -10.5q0 -8 -3 -16.5t-7 -11.5q-5 -5 -10.5 -7t-23.5 -10q-75 -30 -113.5 -77.5t-38.5 -109.5q0 -75 47 -120t125 -45q36 0 72 9.5t69 26.5t60.5 41.5t47.5 54.5q12 19 21.5 41t9.5 32q0 5 -2 7q-3 4 -5 4t-5 -3 t-5 -7l-13 -25q-34 -65 -88 -104t-113 -39q-29 0 -53 10.5t-41 30t-27 46t-10 58.5q0 35 13 67.5t35 53.5q17 17 46 29.5t64 19.5q8 2 12.5 2.5t7.5 1.5q6 1 12 5t6 15v2l-2 15v4q0 12 3.5 18t13.5 11l25 12q29 14 54 35t43.5 46t29 52t10.5 54q0 29 -18 48.5t-44 19.5 q-52 0 -109 -57q-29 -28 -45.5 -54t-30.5 -64q-6 -16 -9 -29t-5 -24q-2 -17 -5 -23t-10 -6q-17 0 -38 13t-35 30q-9 13 -14 24.5t-7 26.5q-2 12 -6 12zM417 601v-2q0 -39 -21.5 -77.5t-56.5 -66.5q-26 -22 -37 -22q-10 0 -10 19q0 8 2 20t6 30q8 35 15.5 56t20.5 44 q25 45 51 45q14 0 22 -13t8 -33z" />
<glyph unicode="&#xc9;" horiz-adv-x="477" d="M445 845q-10 -1 -13 -12l-3 -20q-2 -15 -12 -35t-19 -30q-8 -8 -9.5 -12t-1.5 -9t4.5 -9.5t11.5 -4.5q9 0 29 16t37 37q18 21 29.5 39t11.5 24q0 19 -25 19q-11 0 -22.5 -0.5t-17.5 -2.5zM94 525q-2 0 -5 -3l-8 -12l-8 -13q-1 -2 -1 -7q0 -13 8.5 -27t22.5 -27t32 -23 t38 -15q18 -5 24 -8.5t6 -10.5q0 -8 -3 -16.5t-7 -11.5q-5 -5 -10.5 -7t-23.5 -10q-75 -30 -113.5 -77.5t-38.5 -109.5q0 -75 47 -120t125 -45q36 0 72 9.5t69 26.5t60.5 41.5t47.5 54.5q12 19 21.5 41t9.5 32q0 5 -2 7q-3 4 -5 4t-5 -3t-5 -7l-13 -25q-34 -65 -88 -104 t-113 -39q-29 0 -53 10.5t-41 30t-27 46t-10 58.5q0 35 13 67.5t35 53.5q17 17 46 29.5t64 19.5q8 2 12.5 2.5t7.5 1.5q6 1 12 5t6 15v2l-2 15v4q0 12 3.5 18t13.5 11l25 12q29 14 54 35t43.5 46t29 52t10.5 54q0 29 -18 48.5t-44 19.5q-52 0 -109 -57q-29 -28 -45.5 -54 t-30.5 -64q-6 -16 -9 -29t-5 -24q-2 -17 -5 -23t-10 -6q-17 0 -38 13t-35 30q-9 13 -14 24.5t-7 26.5q-2 12 -6 12zM417 601v-2q0 -39 -21.5 -77.5t-56.5 -66.5q-26 -22 -37 -22q-10 0 -10 19q0 8 2 20t6 30q8 35 15.5 56t20.5 44q25 45 51 45q14 0 22 -13t8 -33z" />
<glyph unicode="&#xca;" horiz-adv-x="477" d="M416 817l-28 -34l-25 -27q-16 -16 -16 -28q0 -6 4 -10.5t9 -4.5q4 0 17 7t27 17l12 8q6 5 12 5t10.5 -4.5t11.5 -17.5q4 -7 10.5 -9.5t22.5 -2.5q11 0 18 10q6 7 6 14q0 2 -3 8q-7 11 -11.5 26.5t-6.5 31.5q-4 41 -24 41q-21 0 -46 -30zM94 525q-2 0 -5 -3l-8 -12l-8 -13 q-1 -2 -1 -7q0 -13 8.5 -27t22.5 -27t32 -23t38 -15q18 -5 24 -8.5t6 -10.5q0 -8 -3 -16.5t-7 -11.5q-5 -5 -10.5 -7t-23.5 -10q-75 -30 -113.5 -77.5t-38.5 -109.5q0 -75 47 -120t125 -45q36 0 72 9.5t69 26.5t60.5 41.5t47.5 54.5q12 19 21.5 41t9.5 32q0 5 -2 7 q-3 4 -5 4t-5 -3t-5 -7l-13 -25q-34 -65 -88 -104t-113 -39q-29 0 -53 10.5t-41 30t-27 46t-10 58.5q0 35 13 67.5t35 53.5q17 17 46 29.5t64 19.5q8 2 12.5 2.5t7.5 1.5q6 1 12 5t6 15v2l-2 15v4q0 12 3.5 18t13.5 11l25 12q29 14 54 35t43.5 46t29 52t10.5 54 q0 29 -18 48.5t-44 19.5q-52 0 -109 -57q-29 -28 -45.5 -54t-30.5 -64q-6 -16 -9 -29t-5 -24q-2 -17 -5 -23t-10 -6q-17 0 -38 13t-35 30q-9 13 -14 24.5t-7 26.5q-2 12 -6 12zM417 601v-2q0 -39 -21.5 -77.5t-56.5 -66.5q-26 -22 -37 -22q-10 0 -10 19q0 8 2 20t6 30 q8 35 15.5 56t20.5 44q25 45 51 45q14 0 22 -13t8 -33z" />
<glyph unicode="&#xcb;" horiz-adv-x="477" d="M387 750q0 17 -10.5 28.5t-26.5 13.5h-3q-15 0 -25.5 -11.5t-10.5 -27.5q0 -17 11.5 -28.5t27.5 -11.5t26.5 10.5t10.5 26.5zM487 751q0 16 -10.5 27t-27.5 11q-14 0 -25 -11.5t-11 -27.5q0 -17 10.5 -27.5t26.5 -10.5q15 0 26 11.5t11 27.5zM94 525q-2 0 -5 -3l-8 -12 l-8 -13q-1 -2 -1 -7q0 -13 8.5 -27t22.5 -27t32 -23t38 -15q18 -5 24 -8.5t6 -10.5q0 -8 -3 -16.5t-7 -11.5q-5 -5 -10.5 -7t-23.5 -10q-75 -30 -113.5 -77.5t-38.5 -109.5q0 -75 47 -120t125 -45q36 0 72 9.5t69 26.5t60.5 41.5t47.5 54.5q12 19 21.5 41t9.5 32q0 5 -2 7 q-3 4 -5 4t-5 -3t-5 -7l-13 -25q-34 -65 -88 -104t-113 -39q-29 0 -53 10.5t-41 30t-27 46t-10 58.5q0 35 13 67.5t35 53.5q17 17 46 29.5t64 19.5q8 2 12.5 2.5t7.5 1.5q6 1 12 5t6 15v2l-2 15v4q0 12 3.5 18t13.5 11l25 12q29 14 54 35t43.5 46t29 52t10.5 54 q0 29 -18 48.5t-44 19.5q-52 0 -109 -57q-29 -28 -45.5 -54t-30.5 -64q-6 -16 -9 -29t-5 -24q-2 -17 -5 -23t-10 -6q-17 0 -38 13t-35 30q-9 13 -14 24.5t-7 26.5q-2 12 -6 12zM417 601v-2q0 -39 -21.5 -77.5t-56.5 -66.5q-26 -22 -37 -22q-10 0 -10 19q0 8 2 20t6 30 q8 35 15.5 56t20.5 44q25 45 51 45q14 0 22 -13t8 -33z" />
<glyph unicode="&#xcc;" horiz-adv-x="523" d="M397 781q17 -20 31 -33.5t25 -19.5l19 -10q8 -5 12 -5q5 0 11 4q3 3 3 7q0 3 -3 8l-8 10q-8 9 -20.5 34t-20.5 46q-3 8 -5 9.5t-8 2.5q-5 1 -8.5 1.5t-8.5 0.5q-23 0 -30.5 -3.5t-7.5 -12.5q0 -8 4 -17t15 -22zM471 374q1 6 1 9v4l21 157q5 38 9.5 62t9.5 40l3 10 q1 2 1 5q0 6 -8 7h-8q-2 1 -5 1q-58 0 -110.5 -21.5t-92.5 -58t-64 -84.5t-24 -100q0 -30 9.5 -62.5t26 -63t39 -56.5t49.5 -44q10 -6 10 -13q0 -10 -10 -32l-6 -14q-3 -6 -7 -13q-25 -43 -40 -56q-17 -17 -49 -28.5t-63 -11.5q-45 0 -72.5 22.5t-27.5 57.5q0 21 11 40.5 t29 34t42 23t51 8.5q11 0 19 -1t21 -5q6 -2 7 -2q7 0 7 7q0 9 -33 17q-19 4 -37 4q-36 0 -67.5 -9.5t-55.5 -25.5t-37.5 -38t-13.5 -47q0 -49 40.5 -77.5t109.5 -28.5q36 0 65.5 7.5t61.5 25.5q14 8 27 16.5t24 18.5q16 14 44 47q13 13 19 22q10 13 17 13q3 0 11 -3l13 -3 q8 -2 19 -3q4 -1 11 -1q18 0 23 11l5 10q3 4 3 7q0 6 -6 6q-2 0 -12 -4q-6 -2 -11.5 -3t-17.5 -1q-18 0 -24.5 2t-6.5 9q0 2 4 10q2 5 6 18l8 25q4 11 7.5 27.5t8.5 37.5q6 29 10 50.5t6 37.5zM405 550l-10 -67l-8 -70q-2 -12 -4 -28.5t-5 -36.5l-7 -46q-3 -21 -6 -36 l-9 -47q-4 -21 -14 -21q-11 0 -30.5 23t-34.5 53q-11 20 -17 48.5t-6 57.5q0 58 24 116t64 97q12 11 25.5 20.5t31.5 14.5q4 3 10 3q8 0 8 -10q0 -2 -1 -8t-3 -12l-3 -19z" />
<glyph unicode="&#xcd;" horiz-adv-x="523" d="M469 845q-10 -1 -13 -12l-3 -20q-2 -15 -12 -35t-19 -30q-8 -8 -9.5 -12t-1.5 -9t4.5 -9.5t11.5 -4.5q9 0 29 16t37 37q18 21 29.5 39t11.5 24q0 19 -25 19q-11 0 -22.5 -0.5t-17.5 -2.5zM471 374q1 6 1 9v4l21 157q5 38 9.5 62t9.5 40l3 10q1 2 1 5q0 6 -8 7h-8 q-2 1 -5 1q-58 0 -110.5 -21.5t-92.5 -58t-64 -84.5t-24 -100q0 -30 9.5 -62.5t26 -63t39 -56.5t49.5 -44q10 -6 10 -13q0 -10 -10 -32l-6 -14q-3 -6 -7 -13q-25 -43 -40 -56q-17 -17 -49 -28.5t-63 -11.5q-45 0 -72.5 22.5t-27.5 57.5q0 21 11 40.5t29 34t42 23t51 8.5 q11 0 19 -1t21 -5q6 -2 7 -2q7 0 7 7q0 9 -33 17q-19 4 -37 4q-36 0 -67.5 -9.5t-55.5 -25.5t-37.5 -38t-13.5 -47q0 -49 40.5 -77.5t109.5 -28.5q36 0 65.5 7.5t61.5 25.5q14 8 27 16.5t24 18.5q16 14 44 47q13 13 19 22q10 13 17 13q3 0 11 -3l13 -3q8 -2 19 -3 q4 -1 11 -1q18 0 23 11l5 10q3 4 3 7q0 6 -6 6q-2 0 -12 -4q-6 -2 -11.5 -3t-17.5 -1q-18 0 -24.5 2t-6.5 9q0 2 4 10q2 5 6 18l8 25q4 11 7.5 27.5t8.5 37.5q6 29 10 50.5t6 37.5zM405 550l-10 -67l-8 -70q-2 -12 -4 -28.5t-5 -36.5l-7 -46q-3 -21 -6 -36l-9 -47 q-4 -21 -14 -21q-11 0 -30.5 23t-34.5 53q-11 20 -17 48.5t-6 57.5q0 58 24 116t64 97q12 11 25.5 20.5t31.5 14.5q4 3 10 3q8 0 8 -10q0 -2 -1 -8t-3 -12l-3 -19z" />
<glyph unicode="&#xce;" horiz-adv-x="523" d="M447 817l-28 -34l-25 -27q-16 -16 -16 -28q0 -6 4 -10.5t9 -4.5q4 0 17 7t27 17l12 8q6 5 12 5t10.5 -4.5t11.5 -17.5q4 -7 10.5 -9.5t22.5 -2.5q11 0 18 10q6 7 6 14q0 2 -3 8q-7 11 -11.5 26.5t-6.5 31.5q-4 41 -24 41q-21 0 -46 -30zM471 374q1 6 1 9v4l21 157 q5 38 9.5 62t9.5 40l3 10q1 2 1 5q0 6 -8 7h-8q-2 1 -5 1q-58 0 -110.5 -21.5t-92.5 -58t-64 -84.5t-24 -100q0 -30 9.5 -62.5t26 -63t39 -56.5t49.5 -44q10 -6 10 -13q0 -10 -10 -32l-6 -14q-3 -6 -7 -13q-25 -43 -40 -56q-17 -17 -49 -28.5t-63 -11.5q-45 0 -72.5 22.5 t-27.5 57.5q0 21 11 40.5t29 34t42 23t51 8.5q11 0 19 -1t21 -5q6 -2 7 -2q7 0 7 7q0 9 -33 17q-19 4 -37 4q-36 0 -67.5 -9.5t-55.5 -25.5t-37.5 -38t-13.5 -47q0 -49 40.5 -77.5t109.5 -28.5q36 0 65.5 7.5t61.5 25.5q14 8 27 16.5t24 18.5q16 14 44 47q13 13 19 22 q10 13 17 13q3 0 11 -3l13 -3q8 -2 19 -3q4 -1 11 -1q18 0 23 11l5 10q3 4 3 7q0 6 -6 6q-2 0 -12 -4q-6 -2 -11.5 -3t-17.5 -1q-18 0 -24.5 2t-6.5 9q0 2 4 10q2 5 6 18l8 25q4 11 7.5 27.5t8.5 37.5q6 29 10 50.5t6 37.5zM405 550l-10 -67l-8 -70q-2 -12 -4 -28.5 t-5 -36.5l-7 -46q-3 -21 -6 -36l-9 -47q-4 -21 -14 -21q-11 0 -30.5 23t-34.5 53q-11 20 -17 48.5t-6 57.5q0 58 24 116t64 97q12 11 25.5 20.5t31.5 14.5q4 3 10 3q8 0 8 -10q0 -2 -1 -8t-3 -12l-3 -19z" />
<glyph unicode="&#xcf;" horiz-adv-x="523" d="M454 750q0 17 -10.5 28.5t-26.5 13.5h-3q-15 0 -25.5 -11.5t-10.5 -27.5q0 -17 11.5 -28.5t27.5 -11.5t26.5 10.5t10.5 26.5zM554 751q0 16 -10.5 27t-27.5 11q-14 0 -25 -11.5t-11 -27.5q0 -17 10.5 -27.5t26.5 -10.5q15 0 26 11.5t11 27.5zM471 374q1 6 1 9v4l21 157 q5 38 9.5 62t9.5 40l3 10q1 2 1 5q0 6 -8 7h-8q-2 1 -5 1q-58 0 -110.5 -21.5t-92.5 -58t-64 -84.5t-24 -100q0 -30 9.5 -62.5t26 -63t39 -56.5t49.5 -44q10 -6 10 -13q0 -10 -10 -32l-6 -14q-3 -6 -7 -13q-25 -43 -40 -56q-17 -17 -49 -28.5t-63 -11.5q-45 0 -72.5 22.5 t-27.5 57.5q0 21 11 40.5t29 34t42 23t51 8.5q11 0 19 -1t21 -5q6 -2 7 -2q7 0 7 7q0 9 -33 17q-19 4 -37 4q-36 0 -67.5 -9.5t-55.5 -25.5t-37.5 -38t-13.5 -47q0 -49 40.5 -77.5t109.5 -28.5q36 0 65.5 7.5t61.5 25.5q14 8 27 16.5t24 18.5q16 14 44 47q13 13 19 22 q10 13 17 13q3 0 11 -3l13 -3q8 -2 19 -3q4 -1 11 -1q18 0 23 11l5 10q3 4 3 7q0 6 -6 6q-2 0 -12 -4q-6 -2 -11.5 -3t-17.5 -1q-18 0 -24.5 2t-6.5 9q0 2 4 10q2 5 6 18l8 25q4 11 7.5 27.5t8.5 37.5q6 29 10 50.5t6 37.5zM405 550l-10 -67l-8 -70q-2 -12 -4 -28.5 t-5 -36.5l-7 -46q-3 -21 -6 -36l-9 -47q-4 -21 -14 -21q-11 0 -30.5 23t-34.5 53q-11 20 -17 48.5t-6 57.5q0 58 24 116t64 97q12 11 25.5 20.5t31.5 14.5q4 3 10 3q8 0 8 -10q0 -2 -1 -8t-3 -12l-3 -19z" />
<glyph unicode="&#xd1;" horiz-adv-x="515" d="M505 150v13l-3 13q-2 11 -6 11q-5 0 -6 -10q-2 -8 -8.5 -24t-15.5 -32q-9 -17 -18 -28q-17 -21 -35.5 -35t-31.5 -14q-28 0 -28 62q0 17 2.5 42.5t6.5 46.5q3 15 7.5 34.5t10.5 42.5l12 45l14 45l12 36q6 20 15 45l11 29q4 12 8 22q5 15 12 30l12 29q17 36 20 43 q3 6 5.5 12.5t4.5 14.5q2 10 2 14q0 26 -27 26q-15 0 -39 -15t-62 -47q-27 -23 -51 -46.5t-52 -55.5q-11 -11 -18 -20l-12 -15q-8 -11 -12.5 -15.5t-6.5 -4.5q-4 0 -4 6q0 2 2 10q3 6 6.5 19.5t5.5 27.5q3 17 4.5 33t1.5 27q0 22 -5.5 41.5t-14.5 34.5t-21.5 23.5t-26.5 8.5 t-30.5 -10.5t-34.5 -29t-35 -43.5t-31 -53q-38 -77 -38 -156q0 -53 15 -98q4 -12 6 -19t3 -9q1 -10 8 -10q4 0 4 4q0 5 -3 10q-4 9 -7.5 32.5t-3.5 44.5v6q0 46 24 114q11 34 27 69t27 54q18 30 35.5 47.5t28.5 17.5q30 0 30 -100q0 -49 -14 -113q-8 -35 -17.5 -60.5 t-25.5 -54.5l-38 -69q-13 -23 -23.5 -48t-18.5 -49t-12.5 -46t-4.5 -39q0 -33 8.5 -51t25.5 -18q14 0 28 15t26.5 40t21.5 57.5t13 67.5q2 11 2.5 18.5t1.5 11.5q1 2 2 5.5t3 8.5q3 9 6 16q5 13 15.5 33.5t25.5 45.5l30 51l32 50l32 46l31 44l28 38q13 17 22 27l15 16 q7 8 17 17q22 19 32 19q6 0 6 -6q0 -7 -6 -17l-13 -19q-8 -12 -24 -39l-22 -38q-10 -15 -15 -24q-30 -52 -54 -103t-41 -96q-19 -51 -29.5 -99.5t-10.5 -83.5q0 -49 20 -77.5t53 -28.5q31 0 69.5 26t79.5 73q28 34 28 46zM399 751l17 17l11 12q18 20 29.5 34t11.5 21 q0 6 -4 10.5t-10 4.5q-13 0 -42 -24q-18 -16 -23.5 -19.5t-10.5 -3.5q-9 0 -15 11l-11 15q-7 9 -21 9q-22 0 -46 -30l-20 -25l-25 -27q-16 -16 -16 -28q0 -6 4 -10.5t9 -4.5t10 4l13 7l38 36q5 4 12.5 8t12.5 5h2q7 0 12 -10q12 -25 33 -25q6 0 15 4t14 9z" />
<glyph unicode="&#xd2;" horiz-adv-x="531" d="M525 493q0 41 -7.5 75t-21 58t-32.5 37.5t-42 13.5q-29 0 -65 -23t-65 -59q-32 -42 -50.5 -97.5t-18.5 -117.5q0 -29 3.5 -61.5t10.5 -53.5q2 -8 5.5 -17.5t7.5 -18.5q7 -15 14 -15q6 0 6 7q0 5 -3 13q-8 20 -13.5 48.5t-5.5 51.5q0 20 4.5 52.5t10.5 58.5t16.5 55.5 t23.5 54.5q17 34 35.5 52.5t35.5 18.5q23 0 38 -36.5t15 -94.5q0 -35 -6.5 -78t-17 -87.5t-24.5 -86t-30 -72.5t-38.5 -62.5t-43.5 -53.5q-31 -31 -66 -31q-24 0 -43.5 14.5t-34 40.5t-22 62.5t-7.5 81.5q0 17 2 39.5t6 45.5t8.5 46t10.5 42q15 48 37 88q23 43 47 66t55 34 q15 5 19.5 8.5t4.5 8.5q0 13 -11 13q-8 0 -36 -13q-16 -7 -33 -18.5t-34 -25.5q-36 -31 -66 -71.5t-52 -87t-34 -96t-12 -97.5t11.5 -87.5t32 -67.5t49.5 -43.5t64 -15.5q61 0 125 40.5t119 115.5q33 45 54 86t37 93q13 44 20 86.5t7 80.5zM330 781q17 -20 31 -33.5 t25 -19.5l19 -10q8 -5 12 -5q5 0 11 4q3 3 3 7q0 3 -3 8l-8 10q-8 9 -20.5 34t-20.5 46q-3 8 -5 9.5t-8 2.5q-5 1 -8.5 1.5t-8.5 0.5q-23 0 -30.5 -3.5t-7.5 -12.5q0 -8 4 -17t15 -22z" />
<glyph unicode="&#xd3;" horiz-adv-x="531" d="M525 493q0 41 -7.5 75t-21 58t-32.5 37.5t-42 13.5q-29 0 -65 -23t-65 -59q-32 -42 -50.5 -97.5t-18.5 -117.5q0 -29 3.5 -61.5t10.5 -53.5q2 -8 5.5 -17.5t7.5 -18.5q7 -15 14 -15q6 0 6 7q0 5 -3 13q-8 20 -13.5 48.5t-5.5 51.5q0 20 4.5 52.5t10.5 58.5t16.5 55.5 t23.5 54.5q17 34 35.5 52.5t35.5 18.5q23 0 38 -36.5t15 -94.5q0 -35 -6.5 -78t-17 -87.5t-24.5 -86t-30 -72.5t-38.5 -62.5t-43.5 -53.5q-31 -31 -66 -31q-24 0 -43.5 14.5t-34 40.5t-22 62.5t-7.5 81.5q0 17 2 39.5t6 45.5t8.5 46t10.5 42q15 48 37 88q23 43 47 66t55 34 q15 5 19.5 8.5t4.5 8.5q0 13 -11 13q-8 0 -36 -13q-16 -7 -33 -18.5t-34 -25.5q-36 -31 -66 -71.5t-52 -87t-34 -96t-12 -97.5t11.5 -87.5t32 -67.5t49.5 -43.5t64 -15.5q61 0 125 40.5t119 115.5q33 45 54 86t37 93q13 44 20 86.5t7 80.5zM405 845q-10 -1 -13 -12l-3 -20 q-2 -15 -12 -35t-19 -30q-8 -8 -9.5 -12t-1.5 -9t4.5 -9.5t11.5 -4.5q9 0 29 16t37 37q18 21 29.5 39t11.5 24q0 19 -25 19q-11 0 -22.5 -0.5t-17.5 -2.5z" />
<glyph unicode="&#xd4;" horiz-adv-x="531" d="M525 493q0 41 -7.5 75t-21 58t-32.5 37.5t-42 13.5q-29 0 -65 -23t-65 -59q-32 -42 -50.5 -97.5t-18.5 -117.5q0 -29 3.5 -61.5t10.5 -53.5q2 -8 5.5 -17.5t7.5 -18.5q7 -15 14 -15q6 0 6 7q0 5 -3 13q-8 20 -13.5 48.5t-5.5 51.5q0 20 4.5 52.5t10.5 58.5t16.5 55.5 t23.5 54.5q17 34 35.5 52.5t35.5 18.5q23 0 38 -36.5t15 -94.5q0 -35 -6.5 -78t-17 -87.5t-24.5 -86t-30 -72.5t-38.5 -62.5t-43.5 -53.5q-31 -31 -66 -31q-24 0 -43.5 14.5t-34 40.5t-22 62.5t-7.5 81.5q0 17 2 39.5t6 45.5t8.5 46t10.5 42q15 48 37 88q23 43 47 66t55 34 q15 5 19.5 8.5t4.5 8.5q0 13 -11 13q-8 0 -36 -13q-16 -7 -33 -18.5t-34 -25.5q-36 -31 -66 -71.5t-52 -87t-34 -96t-12 -97.5t11.5 -87.5t32 -67.5t49.5 -43.5t64 -15.5q61 0 125 40.5t119 115.5q33 45 54 86t37 93q13 44 20 86.5t7 80.5zM380 817l-28 -34l-25 -27 q-16 -16 -16 -28q0 -6 4 -10.5t9 -4.5q4 0 17 7t27 17l12 8q6 5 12 5t10.5 -4.5t11.5 -17.5q4 -7 10.5 -9.5t22.5 -2.5q11 0 18 10q6 7 6 14q0 2 -3 8q-7 11 -11.5 26.5t-6.5 31.5q-4 41 -24 41q-21 0 -46 -30z" />
<glyph unicode="&#xd5;" horiz-adv-x="543" d="M525 493q0 41 -7.5 75t-21 58t-32.5 37.5t-42 13.5q-29 0 -65 -23t-65 -59q-32 -42 -50.5 -97.5t-18.5 -117.5q0 -29 3.5 -61.5t10.5 -53.5q2 -8 5.5 -17.5t7.5 -18.5q7 -15 14 -15q6 0 6 7q0 5 -3 13q-8 20 -13.5 48.5t-5.5 51.5q0 20 4.5 52.5t10.5 58.5t16.5 55.5 t23.5 54.5q17 34 35.5 52.5t35.5 18.5q23 0 38 -36.5t15 -94.5q0 -35 -6.5 -78t-17 -87.5t-24.5 -86t-30 -72.5t-38.5 -62.5t-43.5 -53.5q-31 -31 -66 -31q-24 0 -43.5 14.5t-34 40.5t-22 62.5t-7.5 81.5q0 17 2 39.5t6 45.5t8.5 46t10.5 42q15 48 37 88q23 43 47 66t55 34 q15 5 19.5 8.5t4.5 8.5q0 13 -11 13q-8 0 -36 -13q-16 -7 -33 -18.5t-34 -25.5q-36 -31 -66 -71.5t-52 -87t-34 -96t-12 -97.5t11.5 -87.5t32 -67.5t49.5 -43.5t64 -15.5q61 0 125 40.5t119 115.5q33 45 54 86t37 93q13 44 20 86.5t7 80.5zM467 751l17 17l11 12 q18 20 29.5 34t11.5 21q0 6 -4 10.5t-10 4.5q-13 0 -42 -24q-18 -16 -23.5 -19.5t-10.5 -3.5q-9 0 -15 11l-11 15q-7 9 -21 9q-22 0 -46 -30l-20 -25l-25 -27q-16 -16 -16 -28q0 -6 4 -10.5t9 -4.5t10 4l13 7l38 36q5 4 12.5 8t12.5 5h2q7 0 12 -10q12 -25 33 -25q6 0 15 4 t14 9z" />
<glyph unicode="&#xd6;" horiz-adv-x="531" d="M525 493q0 41 -7.5 75t-21 58t-32.5 37.5t-42 13.5q-29 0 -65 -23t-65 -59q-32 -42 -50.5 -97.5t-18.5 -117.5q0 -29 3.5 -61.5t10.5 -53.5q2 -8 5.5 -17.5t7.5 -18.5q7 -15 14 -15q6 0 6 7q0 5 -3 13q-8 20 -13.5 48.5t-5.5 51.5q0 20 4.5 52.5t10.5 58.5t16.5 55.5 t23.5 54.5q17 34 35.5 52.5t35.5 18.5q23 0 38 -36.5t15 -94.5q0 -35 -6.5 -78t-17 -87.5t-24.5 -86t-30 -72.5t-38.5 -62.5t-43.5 -53.5q-31 -31 -66 -31q-24 0 -43.5 14.5t-34 40.5t-22 62.5t-7.5 81.5q0 17 2 39.5t6 45.5t8.5 46t10.5 42q15 48 37 88q23 43 47 66t55 34 q15 5 19.5 8.5t4.5 8.5q0 13 -11 13q-8 0 -36 -13q-16 -7 -33 -18.5t-34 -25.5q-36 -31 -66 -71.5t-52 -87t-34 -96t-12 -97.5t11.5 -87.5t32 -67.5t49.5 -43.5t64 -15.5q61 0 125 40.5t119 115.5q33 45 54 86t37 93q13 44 20 86.5t7 80.5zM387 750q0 17 -10.5 28.5 t-26.5 13.5h-3q-15 0 -25.5 -11.5t-10.5 -27.5q0 -17 11.5 -28.5t27.5 -11.5t26.5 10.5t10.5 26.5zM487 751q0 16 -10.5 27t-27.5 11q-14 0 -25 -11.5t-11 -27.5q0 -17 10.5 -27.5t26.5 -10.5q15 0 26 11.5t11 27.5z" />
<glyph unicode="&#xd8;" horiz-adv-x="531" d="M179 -26l6 18q69 13 130.5 60t108 116t74 154t27.5 174q0 39 -7.5 72t-21 57t-31.5 38t-39 14q-5 0 -8.5 -0.5t-11.5 -1.5l13 42l3 7q2 10 2 11q0 8 -7.5 12.5t-18.5 4.5q-14 0 -21.5 -7.5t-14.5 -27.5l-27 -80q-23 -14 -46 -46t-39 -71q-27 -65 -27 -148q0 -21 1 -30 t4 -23l-88 -263q-20 19 -33 65t-13 101q0 18 2 40t6 45.5t9 46.5t11 42q13 45 36 88q24 43 47.5 66t54.5 34q15 5 19.5 8.5t4.5 8.5q0 13 -10 13q-9 0 -37 -13q-15 -7 -32.5 -18.5t-34.5 -25.5q-36 -30 -66 -71t-51.5 -87.5t-33.5 -96t-12 -97.5q0 -80 29 -133.5t84 -74.5 l-2 -7q0 -2 -3 -8q-3 -9 -3 -18q0 -14 9 -23t22 -9q22 0 36 42zM199 24h-4l62 193q2 -1 3 -1q2 -2 5 -2q6 0 6 7q0 6 -4 13q0 2 -2 6l124 382q8 -4 15 -15.5t12 -28t8 -37t3 -42.5q0 -25 -3 -55.5t-9 -62.5t-14.5 -65t-18.5 -63q-15 -47 -32 -80t-44 -71q-15 -22 -28.5 -37 t-26 -24t-25 -13t-27.5 -4zM314 576l-60 -180q4 28 10 51.5t17 55.5q4 13 7.5 22t7.5 17l8 15q4 8 10 19z" />
<glyph unicode="&#xd9;" horiz-adv-x="540" d="M451 298l3 14l75 318l2 11q2 7 2 8q0 2 1 6q0 8 -7 8q-1 0 -9 -2l-58 -19q-13 -4 -17 -9q-2 -2 -3 -5.5t-2 -12.5q-1 -5 -3.5 -16t-7.5 -29l-27 -99q-30 -111 -69 -202q-10 -23 -19 -41.5t-19.5 -36.5t-22 -35.5t-25.5 -36.5q-42 -56 -65 -56q-6 0 -10.5 5t-4.5 13 t2.5 20t11.5 43q7 22 24 84l31 114q24 89 35 141t11 80q0 44 -21.5 71t-55.5 27q-49 0 -98 -47q-47 -44 -72.5 -105.5t-25.5 -129.5q0 -35 5.5 -68t19.5 -71q4 -12 10 -12q5 0 5 6q0 2 -0.5 5.5t-2.5 6.5q-2 7 -4 16t-4 21q-2 14 -4 26t-2 22q0 19 5 44t14 58 q13 45 25.5 76.5t29.5 56.5q17 26 36 43.5t30 17.5t17 -10.5t6 -28.5q0 -6 -0.5 -15t-2.5 -17q-2 -14 -5.5 -31t-8.5 -37l-15 -62q-6 -24 -10 -38l-33 -112q-4 -12 -11 -40l-18 -73q-5 -20 -9 -38t-7 -33q-3 -13 -4 -25t-1 -23q0 -29 12 -45t33 -16q89 0 204 209 q11 20 14.5 25t5.5 5q4 0 4 -6q0 -3 -4 -14q-1 -1 -4 -17l-11 -44q-2 -8 -4 -20.5t-4 -29.5q-2 -14 -3 -25.5t-1 -19.5q0 -61 45 -61q26 0 59 22.5t63 60.5q43 54 43 80q0 7 -1 11l-5 17q-2 5 -3 8q0 3 -4 3q-6 0 -8 -16q-4 -24 -12 -46t-18.5 -38t-22.5 -25.5t-24 -9.5 q-17 0 -17 25q0 12 7 49.5t18 83.5q4 17 7 28l5 20zM297 781q17 -20 31 -33.5t25 -19.5l19 -10q8 -5 12 -5q5 0 11 4q3 3 3 7q0 3 -3 8l-8 10q-8 9 -20.5 34t-20.5 46q-3 8 -5 9.5t-8 2.5q-5 1 -8.5 1.5t-8.5 0.5q-23 0 -30.5 -3.5t-7.5 -12.5q0 -8 4 -17t15 -22z" />
<glyph unicode="&#xda;" horiz-adv-x="540" d="M451 298l3 14l75 318l2 11q2 7 2 8q0 2 1 6q0 8 -7 8q-1 0 -9 -2l-58 -19q-13 -4 -17 -9q-2 -2 -3 -5.5t-2 -12.5q-1 -5 -3.5 -16t-7.5 -29l-27 -99q-30 -111 -69 -202q-10 -23 -19 -41.5t-19.5 -36.5t-22 -35.5t-25.5 -36.5q-42 -56 -65 -56q-6 0 -10.5 5t-4.5 13 t2.5 20t11.5 43q7 22 24 84l31 114q24 89 35 141t11 80q0 44 -21.5 71t-55.5 27q-49 0 -98 -47q-47 -44 -72.5 -105.5t-25.5 -129.5q0 -35 5.5 -68t19.5 -71q4 -12 10 -12q5 0 5 6q0 2 -0.5 5.5t-2.5 6.5q-2 7 -4 16t-4 21q-2 14 -4 26t-2 22q0 19 5 44t14 58 q13 45 25.5 76.5t29.5 56.5q17 26 36 43.5t30 17.5t17 -10.5t6 -28.5q0 -6 -0.5 -15t-2.5 -17q-2 -14 -5.5 -31t-8.5 -37l-15 -62q-6 -24 -10 -38l-33 -112q-4 -12 -11 -40l-18 -73q-5 -20 -9 -38t-7 -33q-3 -13 -4 -25t-1 -23q0 -29 12 -45t33 -16q89 0 204 209 q11 20 14.5 25t5.5 5q4 0 4 -6q0 -3 -4 -14q-1 -1 -4 -17l-11 -44q-2 -8 -4 -20.5t-4 -29.5q-2 -14 -3 -25.5t-1 -19.5q0 -61 45 -61q26 0 59 22.5t63 60.5q43 54 43 80q0 7 -1 11l-5 17q-2 5 -3 8q0 3 -4 3q-6 0 -8 -16q-4 -24 -12 -46t-18.5 -38t-22.5 -25.5t-24 -9.5 q-17 0 -17 25q0 12 7 49.5t18 83.5q4 17 7 28l5 20zM369 845q-10 -1 -13 -12l-3 -20q-2 -15 -12 -35t-19 -30q-8 -8 -9.5 -12t-1.5 -9t4.5 -9.5t11.5 -4.5q9 0 29 16t37 37q18 21 29.5 39t11.5 24q0 19 -25 19q-11 0 -22.5 -0.5t-17.5 -2.5z" />
<glyph unicode="&#xdb;" horiz-adv-x="540" d="M451 298l3 14l75 318l2 11q2 7 2 8q0 2 1 6q0 8 -7 8q-1 0 -9 -2l-58 -19q-13 -4 -17 -9q-2 -2 -3 -5.5t-2 -12.5q-1 -5 -3.5 -16t-7.5 -29l-27 -99q-30 -111 -69 -202q-10 -23 -19 -41.5t-19.5 -36.5t-22 -35.5t-25.5 -36.5q-42 -56 -65 -56q-6 0 -10.5 5t-4.5 13 t2.5 20t11.5 43q7 22 24 84l31 114q24 89 35 141t11 80q0 44 -21.5 71t-55.5 27q-49 0 -98 -47q-47 -44 -72.5 -105.5t-25.5 -129.5q0 -35 5.5 -68t19.5 -71q4 -12 10 -12q5 0 5 6q0 2 -0.5 5.5t-2.5 6.5q-2 7 -4 16t-4 21q-2 14 -4 26t-2 22q0 19 5 44t14 58 q13 45 25.5 76.5t29.5 56.5q17 26 36 43.5t30 17.5t17 -10.5t6 -28.5q0 -6 -0.5 -15t-2.5 -17q-2 -14 -5.5 -31t-8.5 -37l-15 -62q-6 -24 -10 -38l-33 -112q-4 -12 -11 -40l-18 -73q-5 -20 -9 -38t-7 -33q-3 -13 -4 -25t-1 -23q0 -29 12 -45t33 -16q89 0 204 209 q11 20 14.5 25t5.5 5q4 0 4 -6q0 -3 -4 -14q-1 -1 -4 -17l-11 -44q-2 -8 -4 -20.5t-4 -29.5q-2 -14 -3 -25.5t-1 -19.5q0 -61 45 -61q26 0 59 22.5t63 60.5q43 54 43 80q0 7 -1 11l-5 17q-2 5 -3 8q0 3 -4 3q-6 0 -8 -16q-4 -24 -12 -46t-18.5 -38t-22.5 -25.5t-24 -9.5 q-17 0 -17 25q0 12 7 49.5t18 83.5q4 17 7 28l5 20zM347 817l-28 -34l-25 -27q-16 -16 -16 -28q0 -6 4 -10.5t9 -4.5q4 0 17 7t27 17l12 8q6 5 12 5t10.5 -4.5t11.5 -17.5q4 -7 10.5 -9.5t22.5 -2.5q11 0 18 10q6 7 6 14q0 2 -3 8q-7 11 -11.5 26.5t-6.5 31.5q-4 41 -24 41 q-21 0 -46 -30z" />
<glyph unicode="&#xdc;" horiz-adv-x="540" d="M451 298l3 14l75 318l2 11q2 7 2 8q0 2 1 6q0 8 -7 8q-1 0 -9 -2l-58 -19q-13 -4 -17 -9q-2 -2 -3 -5.5t-2 -12.5q-1 -5 -3.5 -16t-7.5 -29l-27 -99q-30 -111 -69 -202q-10 -23 -19 -41.5t-19.5 -36.5t-22 -35.5t-25.5 -36.5q-42 -56 -65 -56q-6 0 -10.5 5t-4.5 13 t2.5 20t11.5 43q7 22 24 84l31 114q24 89 35 141t11 80q0 44 -21.5 71t-55.5 27q-49 0 -98 -47q-47 -44 -72.5 -105.5t-25.5 -129.5q0 -35 5.5 -68t19.5 -71q4 -12 10 -12q5 0 5 6q0 2 -0.5 5.5t-2.5 6.5q-2 7 -4 16t-4 21q-2 14 -4 26t-2 22q0 19 5 44t14 58 q13 45 25.5 76.5t29.5 56.5q17 26 36 43.5t30 17.5t17 -10.5t6 -28.5q0 -6 -0.5 -15t-2.5 -17q-2 -14 -5.5 -31t-8.5 -37l-15 -62q-6 -24 -10 -38l-33 -112q-4 -12 -11 -40l-18 -73q-5 -20 -9 -38t-7 -33q-3 -13 -4 -25t-1 -23q0 -29 12 -45t33 -16q89 0 204 209 q11 20 14.5 25t5.5 5q4 0 4 -6q0 -3 -4 -14q-1 -1 -4 -17l-11 -44q-2 -8 -4 -20.5t-4 -29.5q-2 -14 -3 -25.5t-1 -19.5q0 -61 45 -61q26 0 59 22.5t63 60.5q43 54 43 80q0 7 -1 11l-5 17q-2 5 -3 8q0 3 -4 3q-6 0 -8 -16q-4 -24 -12 -46t-18.5 -38t-22.5 -25.5t-24 -9.5 q-17 0 -17 25q0 12 7 49.5t18 83.5q4 17 7 28l5 20zM342 750q0 17 -10.5 28.5t-26.5 13.5h-3q-15 0 -25.5 -11.5t-10.5 -27.5q0 -17 11.5 -28.5t27.5 -11.5t26.5 10.5t10.5 26.5zM442 751q0 16 -10.5 27t-27.5 11q-14 0 -25 -11.5t-11 -27.5q0 -17 10.5 -27.5t26.5 -10.5 q15 0 26 11.5t11 27.5z" />
<glyph unicode="&#xdd;" horiz-adv-x="543" d="M261 869q-10 -1 -13 -12l-3 -20q-2 -15 -12 -35t-19 -30q-8 -8 -9.5 -12t-1.5 -9t4.5 -9.5t11.5 -4.5q9 0 29 16t37 37q18 21 29.5 39t11.5 24q0 19 -25 19q-11 0 -22.5 -0.5t-17.5 -2.5zM450 201l3 19l87 399l2 9q1 2 1 6q0 9 -7 9q-3 0 -8 -1l-55 -15 q-12 -3 -15.5 -9.5t-8.5 -31.5q-1 -4 -4 -18.5t-11 -40.5l-28 -98q-21 -75 -53 -146.5t-70 -126.5q-29 -42 -54.5 -66.5t-39.5 -24.5q-8 0 -13.5 7t-5.5 16v7q0 5 2 10l9 40l19 70l32 112l33 118q12 42 17 69.5t5 51.5q0 48 -22 75.5t-60 27.5t-75.5 -25.5t-66.5 -71.5 q-26 -42 -41 -89.5t-15 -90.5q0 -32 9 -71t24 -74q5 -11 11 -11q2 0 3 2q1 1 1 3t-2 8t-4 13.5t-4 18.5q-6 37 -6 64q0 13 2 30.5t5.5 37t8 39.5t10.5 39q11 35 29.5 67t43.5 58q24 27 47 27t23 -31q0 -11 -3.5 -29.5t-11.5 -47.5l-20 -75l-25 -94l-27 -94l-18 -69 q-10 -38 -14.5 -59.5t-6.5 -26.5q-5 -23 -5 -49q0 -34 14 -53t38 -19q18 0 40.5 11.5t46.5 32.5t47.5 49.5t43.5 63.5l34 58q16 27 16 28q5 11 7.5 14.5t5.5 3.5q4 0 4 -5t-3 -11q-2 -5 -3 -21q-1 -5 -2 -11.5t-3 -15.5q-2 -12 -4 -20.5t-4 -13.5q-3 -11 -4.5 -18t-2.5 -9 q-2 -11 -3 -13t-3.5 -4.5t-6.5 -7.5q-10 -9 -22 -22t-23 -27l-22 -29q-11 -14 -18 -25q-17 -29 -27 -57t-10 -51q0 -24 9.5 -38t24.5 -14q10 0 24 6.5t28.5 17t29 24.5t25.5 29q17 25 31 57t29 83q5 17 9 32l7 27q5 21 8 26.5t13 7.5q10 3 22 3h6q4 0 8 -1t7 -1.5t6 -0.5 q7 0 11.5 8t4.5 19q0 8 -9 8q-7 0 -17 -1t-16 -2q-14 -3 -17 -3q-10 0 -10 8v1zM245 -105l-2 10l-1 7v4q0 11 10 37.5t23 50.5q5 8 11 16l13 19q13 17 18 22.5t9 5.5q6 0 6 -7q0 -6 -3 -20t-8.5 -32t-12.5 -38l-14 -41q-8 -22 -18 -34.5t-19 -12.5t-12 13z" />
<glyph unicode="&#xdf;" horiz-adv-x="402" d="M142 145q-4 0 -9 -8l-20 -29q-4 -5 -4 -10q0 -21 41 -62q49 -46 104 -46q30 0 61 12t51 36q21 25 29.5 53.5t8.5 63.5q0 48 -34 89t-95 73q-16 9 -16 18q0 5 8 13t16 14q19 16 32.5 30.5t30.5 34.5q48 57 48 101q0 23 -3 40t-17 37q-7 10 -17.5 21t-21.5 11h-19 q-10 0 -21 -2.5t-22 -7.5t-20 -14q-6 -7 -9.5 -9.5t-11 -9.5t-21.5 -23.5t-41 -51.5q-31 -40 -48 -79l-33 -76q-14 -31 -23 -62l-17 -58q-7 -23 -9 -37t-6 -27q-5 -14 -4.5 -26.5t-1.5 -17.5q-16 -59 -24.5 -114.5t-8.5 -107.5q0 -7 7 -9t11 -2t9 3l40 20q11 6 12 28 q1 49 12 124q4 27 8 47.5t10 44.5l10 40q4 16 11.5 43t20.5 65q28 86 66 161q10 20 16 30t9.5 14.5t6.5 7t7 8.5q4 5 11 11t14 10.5t13.5 7.5t8.5 3q15 0 21.5 -23t6.5 -66q0 -13 -8 -27t-23 -34q-14 -20 -30 -32.5t-36 -26.5q-6 -5 -11 -13.5t-8 -10.5l-8 -8 q-17 -23 -17 -61q0 -18 29 -32l30 -14q50 -23 70.5 -52.5t20.5 -67.5q0 -77 -72 -77q-9 0 -15.5 0.5t-12.5 3t-12.5 8t-15.5 16.5q-8 9 -12 15t-7.5 12l-7.5 13l-13 19q-2 3 -6 8.5t-7.5 11t-7 9t-4.5 3.5z" />
<glyph unicode="&#xe0;" d="M270 227h-8h-38q-9 -2 -11 -4l-9 -6q-5 -3 -9 -3q-5 0 -9 3l-12 6q-17 9 -33 9q-14 0 -29.5 -6t-30.5 -16t-28.5 -24.5t-23.5 -30.5q-22 -38 -22 -77q0 -34 14.5 -56t37.5 -22q16 0 39.5 15t42.5 37q5 5 8 5q5 0 5 -6v-10q0 -20 10.5 -30.5t27.5 -10.5q21 0 51 17.5 t56 46.5q13 16 13 35q0 7 -5 7t-8.5 -4.5t-8.5 -15.5q-4 -8 -11 -17t-15 -15q-8 -5 -13 -5q-9 0 -9 14q0 5 3 17.5t6 23.5l29 101l1 6q1 4 1 6q0 5 -2 7t-10 3zM85 96v3q0 23 9.5 47.5t23.5 40.5q6 7 15 12t15 5q12 0 12 -19v-3q0 -11 8 -14q4 -1 6 -2t3 -1q3 -2 3 -6v-1 q0 -6 -7 -21.5t-18 -31.5q-27 -39 -49 -39q-9 0 -15 8.5t-6 21.5zM111 337q17 -20 31 -33.5t25 -19.5l19 -10q8 -5 12 -5q5 0 11 4q3 3 3 7q0 3 -3 8l-8 10q-8 9 -20.5 34t-20.5 46q-3 8 -5 9.5t-8 2.5q-5 1 -8.5 1.5t-8.5 0.5q-23 0 -30.5 -3.5t-7.5 -12.5q0 -8 4 -17 t15 -22z" />
<glyph unicode="&#xe1;" d="M217 401q-10 -1 -13 -12l-3 -20q-2 -15 -12 -35t-19 -30q-8 -8 -9.5 -12t-1.5 -9t4.5 -9.5t11.5 -4.5q9 0 29 16t37 37q18 21 29.5 39t11.5 24q0 19 -25 19q-11 0 -22.5 -0.5t-17.5 -2.5zM270 227h-8h-38q-9 -2 -11 -4l-9 -6q-5 -3 -9 -3q-5 0 -9 3l-12 6q-17 9 -33 9 q-14 0 -29.5 -6t-30.5 -16t-28.5 -24.5t-23.5 -30.5q-22 -38 -22 -77q0 -34 14.5 -56t37.5 -22q16 0 39.5 15t42.5 37q5 5 8 5q5 0 5 -6v-10q0 -20 10.5 -30.5t27.5 -10.5q21 0 51 17.5t56 46.5q13 16 13 35q0 7 -5 7t-8.5 -4.5t-8.5 -15.5q-4 -8 -11 -17t-15 -15 q-8 -5 -13 -5q-9 0 -9 14q0 5 3 17.5t6 23.5l29 101l1 6q1 4 1 6q0 5 -2 7t-10 3zM85 96v3q0 23 9.5 47.5t23.5 40.5q6 7 15 12t15 5q12 0 12 -19v-3q0 -11 8 -14q4 -1 6 -2t3 -1q3 -2 3 -6v-1q0 -6 -7 -21.5t-18 -31.5q-27 -39 -49 -39q-9 0 -15 8.5t-6 21.5z" />
<glyph unicode="&#xe2;" d="M161 373l-28 -34l-25 -27q-16 -16 -16 -28q0 -6 4 -10.5t9 -4.5q4 0 17 7t27 17l12 8q6 5 12 5t10.5 -4.5t11.5 -17.5q4 -7 10.5 -9.5t22.5 -2.5q11 0 18 10q6 7 6 14q0 2 -3 8q-7 11 -11.5 26.5t-6.5 31.5q-4 41 -24 41q-21 0 -46 -30zM270 227h-8h-38q-9 -2 -11 -4 l-9 -6q-5 -3 -9 -3q-5 0 -9 3l-12 6q-17 9 -33 9q-14 0 -29.5 -6t-30.5 -16t-28.5 -24.5t-23.5 -30.5q-22 -38 -22 -77q0 -34 14.5 -56t37.5 -22q16 0 39.5 15t42.5 37q5 5 8 5q5 0 5 -6v-10q0 -20 10.5 -30.5t27.5 -10.5q21 0 51 17.5t56 46.5q13 16 13 35q0 7 -5 7 t-8.5 -4.5t-8.5 -15.5q-4 -8 -11 -17t-15 -15q-8 -5 -13 -5q-9 0 -9 14q0 5 3 17.5t6 23.5l29 101l1 6q1 4 1 6q0 5 -2 7t-10 3zM85 96v3q0 23 9.5 47.5t23.5 40.5q6 7 15 12t15 5q12 0 12 -19v-3q0 -11 8 -14q4 -1 6 -2t3 -1q3 -2 3 -6v-1q0 -6 -7 -21.5t-18 -31.5 q-27 -39 -49 -39q-9 0 -15 8.5t-6 21.5z" />
<glyph unicode="&#xe3;" d="M234 307l17 17l11 12q18 20 29.5 34t11.5 21q0 6 -4 10.5t-10 4.5q-13 0 -42 -24q-18 -16 -23.5 -19.5t-10.5 -3.5q-9 0 -15 11l-11 15q-7 9 -21 9q-22 0 -46 -30l-20 -25l-25 -27q-16 -16 -16 -28q0 -6 4 -10.5t9 -4.5t10 4l13 7l38 36q5 4 12.5 8t12.5 5h2q7 0 12 -10 q12 -25 33 -25q6 0 15 4t14 9zM270 227h-8h-38q-9 -2 -11 -4l-9 -6q-5 -3 -9 -3q-5 0 -9 3l-12 6q-17 9 -33 9q-14 0 -29.5 -6t-30.5 -16t-28.5 -24.5t-23.5 -30.5q-22 -38 -22 -77q0 -34 14.5 -56t37.5 -22q16 0 39.5 15t42.5 37q5 5 8 5q5 0 5 -6v-10q0 -20 10.5 -30.5 t27.5 -10.5q21 0 51 17.5t56 46.5q13 16 13 35q0 7 -5 7t-8.5 -4.5t-8.5 -15.5q-4 -8 -11 -17t-15 -15q-8 -5 -13 -5q-9 0 -9 14q0 5 3 17.5t6 23.5l29 101l1 6q1 4 1 6q0 5 -2 7t-10 3zM85 96v3q0 23 9.5 47.5t23.5 40.5q6 7 15 12t15 5q12 0 12 -19v-3q0 -11 8 -14 q4 -1 6 -2t3 -1q3 -2 3 -6v-1q0 -6 -7 -21.5t-18 -31.5q-27 -39 -49 -39q-9 0 -15 8.5t-6 21.5z" />
<glyph unicode="&#xe4;" d="M168 307q0 17 -10.5 28.5t-26.5 13.5h-3q-15 0 -25.5 -11.5t-10.5 -27.5q0 -17 11.5 -28.5t27.5 -11.5t26.5 10.5t10.5 26.5zM268 308q0 16 -10.5 27t-27.5 11q-14 0 -25 -11.5t-11 -27.5q0 -17 10.5 -27.5t26.5 -10.5q15 0 26 11.5t11 27.5zM270 227h-8h-38 q-9 -2 -11 -4l-9 -6q-5 -3 -9 -3q-5 0 -9 3l-12 6q-17 9 -33 9q-14 0 -29.5 -6t-30.5 -16t-28.5 -24.5t-23.5 -30.5q-22 -38 -22 -77q0 -34 14.5 -56t37.5 -22q16 0 39.5 15t42.5 37q5 5 8 5q5 0 5 -6v-10q0 -20 10.5 -30.5t27.5 -10.5q21 0 51 17.5t56 46.5q13 16 13 35 q0 7 -5 7t-8.5 -4.5t-8.5 -15.5q-4 -8 -11 -17t-15 -15q-8 -5 -13 -5q-9 0 -9 14q0 5 3 17.5t6 23.5l29 101l1 6q1 4 1 6q0 5 -2 7t-10 3zM85 96v3q0 23 9.5 47.5t23.5 40.5q6 7 15 12t15 5q12 0 12 -19v-3q0 -11 8 -14q4 -1 6 -2t3 -1q3 -2 3 -6v-1q0 -6 -7 -21.5 t-18 -31.5q-27 -39 -49 -39q-9 0 -15 8.5t-6 21.5z" />
<glyph unicode="&#xe5;" d="M270 227h-8h-38q-9 -2 -11 -4l-9 -6q-5 -3 -9 -3q-5 0 -9 3l-12 6q-17 9 -33 9q-14 0 -29.5 -6t-30.5 -16t-28.5 -24.5t-23.5 -30.5q-22 -38 -22 -77q0 -34 14.5 -56t37.5 -22q16 0 39.5 15t42.5 37q5 5 8 5q5 0 5 -6v-10q0 -20 10.5 -30.5t27.5 -10.5q21 0 51 17.5 t56 46.5q13 16 13 35q0 7 -5 7t-8.5 -4.5t-8.5 -15.5q-4 -8 -11 -17t-15 -15q-8 -5 -13 -5q-9 0 -9 14q0 5 3 17.5t6 23.5l29 101l1 6q1 4 1 6q0 5 -2 7t-10 3zM85 96v3q0 23 9.5 47.5t23.5 40.5q6 7 15 12t15 5q12 0 12 -19v-3q0 -11 8 -14q4 -1 6 -2t3 -1q3 -2 3 -6v-1 q0 -6 -7 -21.5t-18 -31.5q-27 -39 -49 -39q-9 0 -15 8.5t-6 21.5zM181 393q-26 0 -43.5 -18t-18.5 -44q0 -26 18 -44t44 -18t44 18t18 44t-18 44t-44 18zM181 302q-12 0 -20.5 8.5t-9.5 20.5t8 21t22 9q12 0 20.5 -9t8.5 -21t-8.5 -20.5t-20.5 -8.5z" />
<glyph unicode="&#xe6;" horiz-adv-x="392" d="M269 234q-9 -3 -14.5 -4t-7.5 -2l-29 -2l-5 -3l-9 -6q-5 -3 -9 -3q-5 0 -9 3l-12 6q-17 9 -33 9q-14 0 -29.5 -6t-30.5 -16t-28.5 -24.5t-23.5 -30.5q-22 -38 -22 -77q0 -34 14.5 -56t37.5 -22q16 0 39.5 15t42.5 37q5 5 8 5q5 0 5 -6v-10q0 -27 18.5 -37t67.5 -10 q34 0 57 6.5t44 22.5q19 14 30.5 31t11.5 31q0 7 -7 7q-5 0 -10 -9q-2 -2 -2.5 -4t-2.5 -4q-10 -15 -13 -18q-11 -14 -29.5 -23t-32.5 -9q-16 0 -26 14t-10 35q0 18 11 18h5l7 -2q9 -4 22 -4q18 0 34.5 7t29 18.5t20 26.5t7.5 32q0 29 -22.5 49t-55.5 20q-17 0 -39 -5z M85 96v3q0 23 9.5 47.5t23.5 40.5q6 7 15 12t15 5q12 0 12 -19v-3q0 -11 8 -14q4 -1 6 -2t3 -1q3 -2 3 -6v-1q0 -6 -7 -21.5t-18 -31.5q-27 -39 -49 -39q-9 0 -15 8.5t-6 21.5zM272 119q-12 0 -12 13q0 12 12 39q8 18 16 27q12 15 26 15t14 -23q0 -16 -11.5 -35.5 t-25.5 -29.5q-5 -2 -9.5 -4t-9.5 -2z" />
<glyph unicode="&#xe7;" horiz-adv-x="228" d="M7 80q0 -70 71 -84l-3 -16l-1 -2v-2q0 -3 2 -3q1 0 1 1l2 1q3 3 7 3q8 0 8 -11q0 -8 -3 -14.5t-8 -6.5q-3 0 -6 4q-1 1 -1 2l-1 2q0 1 -2 1q-4 0 -4 -3q0 -5 5.5 -8.5t12.5 -3.5q14 0 23.5 8t9.5 20q0 8 -4 13t-9 5q-4 0 -8 -2l-3 -1q0 -1 -1 -1t-1 1v2h1l2 9 q32 4 49 10.5t36 23.5q23 19 25 28l4 14q2 6 2 7q0 5 -5 5q-4 0 -10 -7q-23 -31 -39 -41t-40 -10q-38 0 -38 45q0 6 2 16t5 21t6.5 22t7.5 20q13 27 26 42.5t25 15.5q8 0 13.5 -7.5t5.5 -18.5q0 -8 -2.5 -18.5t-9.5 -23.5q-3 -9 -3 -10q0 -8 8 -8h6l29 5q21 3 21 31 q0 16 -6 30.5t-16.5 25t-24.5 16.5t-30 6q-26 0 -51 -13t-44 -34.5t-30.5 -49t-11.5 -57.5z" />
<glyph unicode="&#xe8;" horiz-adv-x="233" d="M227 170q0 29 -22.5 49t-54.5 20q-29 0 -55 -12t-45.5 -33t-31.5 -48t-12 -57q0 -43 26 -68t69 -25q32 0 61 14.5t48 39.5q14 19 14 35q0 7 -7 7q-5 0 -10 -9q-4 -4 -5 -8q-10 -15 -13 -18q-11 -14 -29.5 -23t-32.5 -9q-16 0 -26 14t-10 35q0 18 11 18h4l8 -2q9 -4 22 -4 q18 0 34.5 7t29 18.5t20 26.5t7.5 32zM113 119q-12 0 -12 13q0 12 12 39q8 18 16 27q12 15 26 15t14 -23q0 -16 -11.5 -35.5t-26.5 -29.5q-4 -2 -8.5 -4t-9.5 -2zM111 337q17 -20 31 -33.5t25 -19.5l19 -10q8 -5 12 -5q5 0 11 4q3 3 3 7q0 3 -3 8l-8 10q-8 9 -20.5 34 t-20.5 46q-3 8 -5 9.5t-8 2.5q-5 1 -8.5 1.5t-8.5 0.5q-23 0 -30.5 -3.5t-7.5 -12.5q0 -8 4 -17t15 -22z" />
<glyph unicode="&#xe9;" horiz-adv-x="233" d="M170 401q-10 -1 -13 -12l-3 -20q-2 -15 -12 -35t-19 -30q-8 -8 -9.5 -12t-1.5 -9t4.5 -9.5t11.5 -4.5q9 0 29 16t37 37q18 21 29.5 39t11.5 24q0 19 -25 19q-11 0 -22.5 -0.5t-17.5 -2.5zM227 170q0 29 -22.5 49t-54.5 20q-29 0 -55 -12t-45.5 -33t-31.5 -48t-12 -57 q0 -43 26 -68t69 -25q32 0 61 14.5t48 39.5q14 19 14 35q0 7 -7 7q-5 0 -10 -9q-4 -4 -5 -8q-10 -15 -13 -18q-11 -14 -29.5 -23t-32.5 -9q-16 0 -26 14t-10 35q0 18 11 18h4l8 -2q9 -4 22 -4q18 0 34.5 7t29 18.5t20 26.5t7.5 32zM113 119q-12 0 -12 13q0 12 12 39 q8 18 16 27q12 15 26 15t14 -23q0 -16 -11.5 -35.5t-26.5 -29.5q-4 -2 -8.5 -4t-9.5 -2z" />
<glyph unicode="&#xea;" horiz-adv-x="233" d="M161 373l-28 -34l-25 -27q-16 -16 -16 -28q0 -6 4 -10.5t9 -4.5q4 0 17 7t27 17l12 8q6 5 12 5t10.5 -4.5t11.5 -17.5q4 -7 10.5 -9.5t22.5 -2.5q11 0 18 10q6 7 6 14q0 2 -3 8q-7 11 -11.5 26.5t-6.5 31.5q-4 41 -24 41q-21 0 -46 -30zM227 170q0 29 -22.5 49t-54.5 20 q-29 0 -55 -12t-45.5 -33t-31.5 -48t-12 -57q0 -43 26 -68t69 -25q32 0 61 14.5t48 39.5q14 19 14 35q0 7 -7 7q-5 0 -10 -9q-4 -4 -5 -8q-10 -15 -13 -18q-11 -14 -29.5 -23t-32.5 -9q-16 0 -26 14t-10 35q0 18 11 18h4l8 -2q9 -4 22 -4q18 0 34.5 7t29 18.5t20 26.5 t7.5 32zM113 119q-12 0 -12 13q0 12 12 39q8 18 16 27q12 15 26 15t14 -23q0 -16 -11.5 -35.5t-26.5 -29.5q-4 -2 -8.5 -4t-9.5 -2z" />
<glyph unicode="&#xeb;" horiz-adv-x="233" d="M135 307q0 17 -10.5 28.5t-26.5 13.5h-3q-15 0 -25.5 -11.5t-10.5 -27.5q0 -17 11.5 -28.5t27.5 -11.5t26.5 10.5t10.5 26.5zM235 308q0 16 -10.5 27t-27.5 11q-14 0 -25 -11.5t-11 -27.5q0 -17 10.5 -27.5t26.5 -10.5q15 0 26 11.5t11 27.5zM227 170q0 29 -22.5 49 t-54.5 20q-29 0 -55 -12t-45.5 -33t-31.5 -48t-12 -57q0 -43 26 -68t69 -25q32 0 61 14.5t48 39.5q14 19 14 35q0 7 -7 7q-5 0 -10 -9q-4 -4 -5 -8q-10 -15 -13 -18q-11 -14 -29.5 -23t-32.5 -9q-16 0 -26 14t-10 35q0 18 11 18h4l8 -2q9 -4 22 -4q18 0 34.5 7t29 18.5 t20 26.5t7.5 32zM113 119q-12 0 -12 13q0 12 12 39q8 18 16 27q12 15 26 15t14 -23q0 -16 -11.5 -35.5t-26.5 -29.5q-4 -2 -8.5 -4t-9.5 -2z" />
<glyph unicode="&#xec;" horiz-adv-x="165" d="M40 201l-27 -117l-2 -10q-2 -8 -3 -23q-1 -5 -1 -10v-9q0 -36 35 -36q21 0 48.5 17.5t47.5 43.5q6 8 11.5 19.5t8.5 20.5v5q0 9 -6 9q-4 0 -6 -3.5t-7 -15.5q-6 -17 -15.5 -28t-20.5 -11q-12 0 -12 17v3l2 11l2 7l30 122q1 2 1 6q0 11 -13 11h-3l-53 -8q-12 -2 -17 -21z M45 337q17 -20 31 -33.5t25 -19.5l19 -10q8 -5 12 -5q5 0 11 4q3 3 3 7q0 3 -3 8l-8 10q-8 9 -20.5 34t-20.5 46q-3 8 -5 9.5t-8 2.5q-5 1 -8.5 1.5t-8.5 0.5q-23 0 -30.5 -3.5t-7.5 -12.5q0 -8 4 -17t15 -22z" />
<glyph unicode="&#xed;" horiz-adv-x="165" d="M40 201l-27 -117l-2 -10q-2 -8 -3 -23q-1 -5 -1 -10v-9q0 -36 35 -36q21 0 48.5 17.5t47.5 43.5q6 8 11.5 19.5t8.5 20.5v5q0 9 -6 9q-4 0 -6 -3.5t-7 -15.5q-6 -17 -15.5 -28t-20.5 -11q-12 0 -12 17v3l2 11l2 7l30 122q1 2 1 6q0 11 -13 11h-3l-53 -8q-12 -2 -17 -21z M124 401q-10 -1 -13 -12l-3 -20q-2 -15 -12 -35t-19 -30q-8 -8 -9.5 -12t-1.5 -9t4.5 -9.5t11.5 -4.5q9 0 29 16t37 37q18 21 29.5 39t11.5 24q0 19 -25 19q-11 0 -22.5 -0.5t-17.5 -2.5z" />
<glyph unicode="&#xee;" horiz-adv-x="165" d="M40 201l-27 -117l-2 -10q-2 -8 -3 -23q-1 -5 -1 -10v-9q0 -36 35 -36q21 0 48.5 17.5t47.5 43.5q6 8 11.5 19.5t8.5 20.5v5q0 9 -6 9q-4 0 -6 -3.5t-7 -15.5q-6 -17 -15.5 -28t-20.5 -11q-12 0 -12 17v3l2 11l2 7l30 122q1 2 1 6q0 11 -13 11h-3l-53 -8q-12 -2 -17 -21z M95 373l-28 -34l-25 -27q-16 -16 -16 -28q0 -6 4 -10.5t9 -4.5q4 0 17 7t27 17l12 8q6 5 12 5t10.5 -4.5t11.5 -17.5q4 -7 10.5 -9.5t22.5 -2.5q11 0 18 10q6 7 6 14q0 2 -3 8q-7 11 -11.5 26.5t-6.5 31.5q-4 41 -24 41q-21 0 -46 -30z" />
<glyph unicode="&#xef;" horiz-adv-x="165" d="M40 201l-27 -117l-2 -10q-2 -8 -3 -23q-1 -5 -1 -10v-9q0 -36 35 -36q21 0 48.5 17.5t47.5 43.5q6 8 11.5 19.5t8.5 20.5v5q0 9 -6 9q-4 0 -6 -3.5t-7 -15.5q-6 -17 -15.5 -28t-20.5 -11q-12 0 -12 17v3l2 11l2 7l30 122q1 2 1 6q0 11 -13 11h-3l-53 -8q-12 -2 -17 -21z M88 307q0 17 -10.5 28.5t-26.5 13.5h-3q-15 0 -25.5 -11.5t-10.5 -27.5q0 -17 11.5 -28.5t27.5 -11.5t26.5 10.5t10.5 26.5zM188 308q0 16 -10.5 27t-27.5 11q-14 0 -25 -11.5t-11 -27.5q0 -17 10.5 -27.5t26.5 -10.5q15 0 26 11.5t11 27.5z" />
<glyph unicode="&#xf1;" horiz-adv-x="329" d="M108 150q0 2 0.5 4t0.5 4l9 44l2 6v4v4q0 14 -13 14h-1l-55 -10q-7 -2 -10 -6.5t-5 -16.5l-27 -169q-1 -3 -1 -5t-1 -4v-9q0 -10 14 -10h38q8 0 11.5 3t7.5 14l12 33q6 14 11.5 25t10.5 20l13 20q17 25 33 40t28 15q8 0 8 -11q0 -6 -1.5 -16.5t-6.5 -30.5l-8 -32l-4 -15 q-1 -5 -1.5 -10.5t-0.5 -11.5v-3q0 -19 9.5 -30t26.5 -11t39 12t40 31l9 11l12 14q9 12 12 18t3 14q0 15 -8 15q-5 0 -9 -10q-22 -54 -43 -54q-8 0 -8 12q0 6 2 17.5t5 22.5l9 32q4 14 7 32t3 27q0 20 -11 32t-31 12q-8 0 -19.5 -4t-23.5 -11q-14 -8 -24.5 -17.5 t-30.5 -31.5q-10 -11 -13 -16q-8 -9 -10.5 -11t-4.5 -2q-5 0 -5 6zM227 307l17 17l11 12q18 20 29.5 34t11.5 21q0 6 -4 10.5t-10 4.5q-13 0 -42 -24q-18 -16 -23.5 -19.5t-10.5 -3.5q-9 0 -15 11l-11 15q-7 9 -21 9q-22 0 -46 -30l-20 -25l-25 -27q-16 -16 -16 -28 q0 -6 4 -10.5t9 -4.5t10 4l13 7l38 36q5 4 12.5 8t12.5 5h2q7 0 12 -10q12 -25 33 -25q6 0 15 4t14 9z" />
<glyph unicode="&#xf2;" horiz-adv-x="231" d="M145 242q-8 -7 -9 -8l-6 -8q-5 -7 -18 -10q-48 -11 -76.5 -44.5t-28.5 -77.5q0 -41 24 -68t61 -27q26 0 52 18.5t46 49.5q5 7 7 8.5t9 3.5q18 6 18 13q0 3 -2 6l-4 6l-5 6q-2 2 -2 5q0 2 0.5 5.5t1.5 8.5q4 12 4 26q0 39 -15 67t-36 28q-10 0 -21 -8zM151 190q0 19 12 19 q9 0 14 -14t5 -38q0 -17 -10 -17q-8 0 -14 18q-7 22 -7 32zM149 53q-14 -17 -30 -18h-2q-14 0 -22 12.5t-8 35.5q0 20 5 40.5t13 36.5q9 14 15 14q4 0 6 -3t5 -14q3 -7 13 -23q3 -5 6 -9t6 -9q8 -8 9.5 -11.5t1.5 -9.5q0 -9 -5 -20.5t-13 -21.5zM78 337q17 -20 31 -33.5 t25 -19.5l19 -10q8 -5 12 -5q5 0 11 4q3 3 3 7q0 3 -3 8l-8 10q-8 9 -20.5 34t-20.5 46q-3 8 -5 9.5t-8 2.5q-5 1 -8.5 1.5t-8.5 0.5q-23 0 -30.5 -3.5t-7.5 -12.5q0 -8 4 -17t15 -22z" />
<glyph unicode="&#xf3;" horiz-adv-x="231" d="M150 401q-10 -1 -13 -12l-3 -20q-2 -15 -12 -35t-19 -30q-8 -8 -9.5 -12t-1.5 -9t4.5 -9.5t11.5 -4.5q9 0 29 16t37 37q18 21 29.5 39t11.5 24q0 19 -25 19q-11 0 -22.5 -0.5t-17.5 -2.5zM145 242q-8 -7 -9 -8l-6 -8q-5 -7 -18 -10q-48 -11 -76.5 -44.5t-28.5 -77.5 q0 -41 24 -68t61 -27q26 0 52 18.5t46 49.5q5 7 7 8.5t9 3.5q18 6 18 13q0 3 -2 6l-4 6l-5 6q-2 2 -2 5q0 2 0.5 5.5t1.5 8.5q4 12 4 26q0 39 -15 67t-36 28q-10 0 -21 -8zM151 190q0 19 12 19q9 0 14 -14t5 -38q0 -17 -10 -17q-8 0 -14 18q-7 22 -7 32zM149 53 q-14 -17 -30 -18h-2q-14 0 -22 12.5t-8 35.5q0 20 5 40.5t13 36.5q9 14 15 14q4 0 6 -3t5 -14q3 -7 13 -23q3 -5 6 -9t6 -9q8 -8 9.5 -11.5t1.5 -9.5q0 -9 -5 -20.5t-13 -21.5z" />
<glyph unicode="&#xf4;" horiz-adv-x="231" d="M135 373l-28 -34l-25 -27q-16 -16 -16 -28q0 -6 4 -10.5t9 -4.5q4 0 17 7t27 17l12 8q6 5 12 5t10.5 -4.5t11.5 -17.5q4 -7 10.5 -9.5t22.5 -2.5q11 0 18 10q6 7 6 14q0 2 -3 8q-7 11 -11.5 26.5t-6.5 31.5q-4 41 -24 41q-21 0 -46 -30zM145 242q-8 -7 -9 -8l-6 -8 q-5 -7 -18 -10q-48 -11 -76.5 -44.5t-28.5 -77.5q0 -41 24 -68t61 -27q26 0 52 18.5t46 49.5q5 7 7 8.5t9 3.5q18 6 18 13q0 3 -2 6l-4 6l-5 6q-2 2 -2 5q0 2 0.5 5.5t1.5 8.5q4 12 4 26q0 39 -15 67t-36 28q-10 0 -21 -8zM151 190q0 19 12 19q9 0 14 -14t5 -38 q0 -17 -10 -17q-8 0 -14 18q-7 22 -7 32zM149 53q-14 -17 -30 -18h-2q-14 0 -22 12.5t-8 35.5q0 20 5 40.5t13 36.5q9 14 15 14q4 0 6 -3t5 -14q3 -7 13 -23q3 -5 6 -9t6 -9q8 -8 9.5 -11.5t1.5 -9.5q0 -9 -5 -20.5t-13 -21.5z" />
<glyph unicode="&#xf5;" horiz-adv-x="231" d="M201 307l17 17l11 12q18 20 29.5 34t11.5 21q0 6 -4 10.5t-10 4.5q-13 0 -42 -24q-18 -16 -23.5 -19.5t-10.5 -3.5q-9 0 -15 11l-11 15q-7 9 -21 9q-22 0 -46 -30l-20 -25l-25 -27q-16 -16 -16 -28q0 -6 4 -10.5t9 -4.5t10 4l13 7l38 36q5 4 12.5 8t12.5 5h2q7 0 12 -10 q12 -25 33 -25q6 0 15 4t14 9zM145 242q-8 -7 -9 -8l-6 -8q-5 -7 -18 -10q-48 -11 -76.5 -44.5t-28.5 -77.5q0 -41 24 -68t61 -27q26 0 52 18.5t46 49.5q5 7 7 8.5t9 3.5q18 6 18 13q0 3 -2 6l-4 6l-5 6q-2 2 -2 5q0 2 0.5 5.5t1.5 8.5q4 12 4 26q0 39 -15 67t-36 28 q-10 0 -21 -8zM151 190q0 19 12 19q9 0 14 -14t5 -38q0 -17 -10 -17q-8 0 -14 18q-7 22 -7 32zM149 53q-14 -17 -30 -18h-2q-14 0 -22 12.5t-8 35.5q0 20 5 40.5t13 36.5q9 14 15 14q4 0 6 -3t5 -14q3 -7 13 -23q3 -5 6 -9t6 -9q8 -8 9.5 -11.5t1.5 -9.5q0 -9 -5 -20.5 t-13 -21.5z" />
<glyph unicode="&#xf6;" horiz-adv-x="231" d="M135 307q0 17 -10.5 28.5t-26.5 13.5h-3q-15 0 -25.5 -11.5t-10.5 -27.5q0 -17 11.5 -28.5t27.5 -11.5t26.5 10.5t10.5 26.5zM235 308q0 16 -10.5 27t-27.5 11q-14 0 -25 -11.5t-11 -27.5q0 -17 10.5 -27.5t26.5 -10.5q15 0 26 11.5t11 27.5zM145 242q-8 -7 -9 -8l-6 -8 q-5 -7 -18 -10q-48 -11 -76.5 -44.5t-28.5 -77.5q0 -41 24 -68t61 -27q26 0 52 18.5t46 49.5q5 7 7 8.5t9 3.5q18 6 18 13q0 3 -2 6l-4 6l-5 6q-2 2 -2 5q0 2 0.5 5.5t1.5 8.5q4 12 4 26q0 39 -15 67t-36 28q-10 0 -21 -8zM151 190q0 19 12 19q9 0 14 -14t5 -38 q0 -17 -10 -17q-8 0 -14 18q-7 22 -7 32zM149 53q-14 -17 -30 -18h-2q-14 0 -22 12.5t-8 35.5q0 20 5 40.5t13 36.5q9 14 15 14q4 0 6 -3t5 -14q3 -7 13 -23q3 -5 6 -9t6 -9q8 -8 9.5 -11.5t1.5 -9.5q0 -9 -5 -20.5t-13 -21.5z" />
<glyph unicode="&#xf7;" horiz-adv-x="449" d="M443 203v59h-436v-59h436zM225 129q-20 0 -33.5 -14t-14.5 -34t13 -34t35 -14q20 0 34 14t14 34t-14 34t-34 14zM225 433q-20 0 -33.5 -14t-14.5 -34t13 -34t35 -14q20 0 34 14t14 34t-14 34t-34 14z" />
<glyph unicode="&#xf8;" horiz-adv-x="231" d="M169 284l-12 -35q-10 -5 -14.5 -8.5t-6.5 -6.5l-6 -8q-5 -7 -18 -10q-48 -11 -76.5 -44.5t-28.5 -77.5q0 -74 68 -93l-11 -34l-2 -3q-1 -3 -1 -9q0 -7 4.5 -11.5t10.5 -4.5q12 0 18 21l13 41q16 4 24.5 8.5t21.5 15.5q21 17 37 42q5 7 7 8.5t9 3.5q18 6 18 13q0 3 -2 6 l-4 6l-5 6q-2 2 -2 5q0 2 0.5 5.5t1.5 8.5q4 12 4 27q0 58 -32 87l13 41l1 4q1 2 1 6q0 8 -13 8q-10 0 -16 -13zM158 158l14 45q5 -9 6.5 -14.5t2.5 -16.5q0 -6 0.5 -10t0.5 -6q0 -16 -10 -16q-8 0 -14 18zM118 35l30 93q3 -4 4.5 -7t3.5 -5q8 -8 9.5 -11.5t1.5 -9.5 q0 -20 -14.5 -38t-34.5 -22zM129 164l-37 -111q-3 11 -4 17.5t-1 12.5q0 20 5 40.5t13 36.5q9 14 15 14t9 -10z" />
<glyph unicode="&#xf9;" horiz-adv-x="321" d="M266 234q-3 0 -4 -1l-46 -8q-7 0 -12 -5l-3 -6q-1 -2 -1.5 -4.5t-2.5 -7.5q-3 -9 -12.5 -29.5t-19.5 -38.5q-11 -22 -27 -41q-21 -25 -35 -25q-11 0 -11 11q0 6 1.5 14.5t5.5 25.5q3 13 4.5 21t2.5 10t3 9.5t5 20.5l8 32q3 6 3 11q0 10 -16 10h-5l-48 -7q-5 -1 -7.5 -3 t-5 -8t-5.5 -17.5t-7 -30.5q-2 -7 -11 -46q-8 -30 -10.5 -48.5t-2.5 -30.5q0 -39 37 -39q14 0 23 3t24 14q31 22 49 44q11 13 14.5 16t6.5 3q6 0 6 -6q0 -1 -2 -9l-3 -16q-1 -9 -1 -18v-4q0 -12 7.5 -19.5t20.5 -7.5q10 0 24 5t28.5 13.5t28 19.5t24.5 23q8 10 14.5 22.5 t6.5 19.5q0 9 -8 9q-4 0 -7 -7q-9 -22 -20.5 -36t-21.5 -14q-9 0 -9 16q0 11 1 21t5 26l22 90q2 10 2 12q0 11 -13 11zM111 337q17 -20 31 -33.5t25 -19.5l19 -10q8 -5 12 -5q5 0 11 4q3 3 3 7q0 3 -3 8l-8 10q-8 9 -20.5 34t-20.5 46q-3 8 -5 9.5t-8 2.5q-5 1 -8.5 1.5 t-8.5 0.5q-23 0 -30.5 -3.5t-7.5 -12.5q0 -8 4 -17t15 -22z" />
<glyph unicode="&#xfa;" horiz-adv-x="321" d="M266 234q-3 0 -4 -1l-46 -8q-7 0 -12 -5l-3 -6q-1 -2 -1.5 -4.5t-2.5 -7.5q-3 -9 -12.5 -29.5t-19.5 -38.5q-11 -22 -27 -41q-21 -25 -35 -25q-11 0 -11 11q0 6 1.5 14.5t5.5 25.5q3 13 4.5 21t2.5 10t3 9.5t5 20.5l8 32q3 6 3 11q0 10 -16 10h-5l-48 -7q-5 -1 -7.5 -3 t-5 -8t-5.5 -17.5t-7 -30.5q-2 -7 -11 -46q-8 -30 -10.5 -48.5t-2.5 -30.5q0 -39 37 -39q14 0 23 3t24 14q31 22 49 44q11 13 14.5 16t6.5 3q6 0 6 -6q0 -1 -2 -9l-3 -16q-1 -9 -1 -18v-4q0 -12 7.5 -19.5t20.5 -7.5q10 0 24 5t28.5 13.5t28 19.5t24.5 23q8 10 14.5 22.5 t6.5 19.5q0 9 -8 9q-4 0 -7 -7q-9 -22 -20.5 -36t-21.5 -14q-9 0 -9 16q0 11 1 21t5 26l22 90q2 10 2 12q0 11 -13 11zM190 401q-10 -1 -13 -12l-3 -20q-2 -15 -12 -35t-19 -30q-8 -8 -9.5 -12t-1.5 -9t4.5 -9.5t11.5 -4.5q9 0 29 16t37 37q18 21 29.5 39t11.5 24 q0 19 -25 19q-11 0 -22.5 -0.5t-17.5 -2.5z" />
<glyph unicode="&#xfb;" horiz-adv-x="321" d="M266 234q-3 0 -4 -1l-46 -8q-7 0 -12 -5l-3 -6q-1 -2 -1.5 -4.5t-2.5 -7.5q-3 -9 -12.5 -29.5t-19.5 -38.5q-11 -22 -27 -41q-21 -25 -35 -25q-11 0 -11 11q0 6 1.5 14.5t5.5 25.5q3 13 4.5 21t2.5 10t3 9.5t5 20.5l8 32q3 6 3 11q0 10 -16 10h-5l-48 -7q-5 -1 -7.5 -3 t-5 -8t-5.5 -17.5t-7 -30.5q-2 -7 -11 -46q-8 -30 -10.5 -48.5t-2.5 -30.5q0 -39 37 -39q14 0 23 3t24 14q31 22 49 44q11 13 14.5 16t6.5 3q6 0 6 -6q0 -1 -2 -9l-3 -16q-1 -9 -1 -18v-4q0 -12 7.5 -19.5t20.5 -7.5q10 0 24 5t28.5 13.5t28 19.5t24.5 23q8 10 14.5 22.5 t6.5 19.5q0 9 -8 9q-4 0 -7 -7q-9 -22 -20.5 -36t-21.5 -14q-9 0 -9 16q0 11 1 21t5 26l22 90q2 10 2 12q0 11 -13 11zM161 373l-28 -34l-25 -27q-16 -16 -16 -28q0 -6 4 -10.5t9 -4.5q4 0 17 7t27 17l12 8q6 5 12 5t10.5 -4.5t11.5 -17.5q4 -7 10.5 -9.5t22.5 -2.5 q11 0 18 10q6 7 6 14q0 2 -3 8q-7 11 -11.5 26.5t-6.5 31.5q-4 41 -24 41q-21 0 -46 -30z" />
<glyph unicode="&#xfc;" horiz-adv-x="321" d="M266 234q-3 0 -4 -1l-46 -8q-7 0 -12 -5l-3 -6q-1 -2 -1.5 -4.5t-2.5 -7.5q-3 -9 -12.5 -29.5t-19.5 -38.5q-11 -22 -27 -41q-21 -25 -35 -25q-11 0 -11 11q0 6 1.5 14.5t5.5 25.5q3 13 4.5 21t2.5 10t3 9.5t5 20.5l8 32q3 6 3 11q0 10 -16 10h-5l-48 -7q-5 -1 -7.5 -3 t-5 -8t-5.5 -17.5t-7 -30.5q-2 -7 -11 -46q-8 -30 -10.5 -48.5t-2.5 -30.5q0 -39 37 -39q14 0 23 3t24 14q31 22 49 44q11 13 14.5 16t6.5 3q6 0 6 -6q0 -1 -2 -9l-3 -16q-1 -9 -1 -18v-4q0 -12 7.5 -19.5t20.5 -7.5q10 0 24 5t28.5 13.5t28 19.5t24.5 23q8 10 14.5 22.5 t6.5 19.5q0 9 -8 9q-4 0 -7 -7q-9 -22 -20.5 -36t-21.5 -14q-9 0 -9 16q0 11 1 21t5 26l22 90q2 10 2 12q0 11 -13 11zM168 307q0 17 -10.5 28.5t-26.5 13.5h-3q-15 0 -25.5 -11.5t-10.5 -27.5q0 -17 11.5 -28.5t27.5 -11.5t26.5 10.5t10.5 26.5zM268 308q0 16 -10.5 27 t-27.5 11q-14 0 -25 -11.5t-11 -27.5q0 -17 10.5 -27.5t26.5 -10.5q15 0 26 11.5t11 27.5z" />
<glyph unicode="&#xfd;" horiz-adv-x="286" d="M162 442q-10 -1 -13 -12l-3 -20q-2 -15 -12 -35t-19 -30q-8 -8 -9.5 -12t-1.5 -9t4.5 -9.5t11.5 -4.5q9 0 29 16t37 37q18 21 29.5 39t11.5 24q0 19 -25 19q-11 0 -22.5 -0.5t-17.5 -2.5zM267 229h-6l-47 -7q-14 -1 -19 -23q-6 -28 -17 -54t-24 -45.5t-27 -31t-26 -11.5 q-10 0 -10 16q0 6 2 19.5t8 47.5q5 23 7.5 37t6.5 28q3 7 3 13q0 12 -13 12h-2l-50 -7q-8 -2 -12 -6t-6 -18q-1 -3 -2 -8.5t-3 -13.5q-5 -20 -10 -47l-9 -49q-2 -11 -3 -21t-1 -18q0 -22 12 -34.5t33 -12.5q20 0 48 17q12 8 25.5 18.5t19.5 18.5q8 9 11 12t6 3t3 -8 q0 -5 -1 -8l-3 -18q-1 -8 -8 -33q-4 -14 -6.5 -25.5t-4.5 -22.5q-5 -19 -7.5 -31t-4.5 -18t-3.5 -12.5t-1.5 -8.5q0 -13 10 -13h2l5 1l54 9q14 2 17 19l64 311l1 8q1 2 1 4q0 11 -12 11z" />
<glyph unicode="&#xff;" horiz-adv-x="286" d="M267 229h-6l-47 -7q-14 -1 -19 -23q-6 -28 -17 -54t-24 -45.5t-27 -31t-26 -11.5q-10 0 -10 16q0 6 2 19.5t8 47.5q5 23 7.5 37t6.5 28q3 7 3 13q0 12 -13 12h-2l-50 -7q-8 -2 -12 -6t-6 -18q-1 -3 -2 -8.5t-3 -13.5q-5 -20 -10 -47l-9 -49q-2 -11 -3 -21t-1 -18 q0 -22 12 -34.5t33 -12.5q20 0 48 17q12 8 25.5 18.5t19.5 18.5q8 9 11 12t6 3t3 -8q0 -5 -1 -8l-3 -18q-1 -8 -8 -33q-4 -14 -6.5 -25.5t-4.5 -22.5q-5 -19 -7.5 -31t-4.5 -18t-3.5 -12.5t-1.5 -8.5q0 -13 10 -13h2l5 1l54 9q14 2 17 19l64 311l1 8q1 2 1 4q0 11 -12 11z M142 307q0 17 -10.5 28.5t-26.5 13.5h-3q-15 0 -25.5 -11.5t-10.5 -27.5q0 -17 11.5 -28.5t27.5 -11.5t26.5 10.5t10.5 26.5zM242 308q0 16 -10.5 27t-27.5 11q-14 0 -25 -11.5t-11 -27.5q0 -17 10.5 -27.5t26.5 -10.5q15 0 26 11.5t11 27.5z" />
<glyph unicode="&#x152;" horiz-adv-x="836" d="M163 -9q30 0 63 11.5t65.5 32.5t62 49.5t53.5 62.5l33 47q2 5 9 5h34q14 0 28.5 2t32.5 7q4 1 7 1.5t6 0.5q5 0 5 -3q0 -1 -2 -9l-2 -9q-2 -7 -9.5 -12t-30.5 -14q-75 -30 -113.5 -77.5t-38.5 -110.5q0 -37 12.5 -67.5t35 -52t54.5 -33.5t71 -12q36 0 72 9.5t68.5 27 t60 42t47.5 54.5q12 18 22 40.5t10 32.5q0 4 -3 7q-4 4 -5 4q-5 0 -10 -11l-12 -24q-33 -66 -87.5 -105t-113.5 -39q-29 0 -53 11t-41.5 30.5t-27 46t-9.5 58.5q0 35 12.5 67.5t34.5 53.5q17 17 46.5 29.5t64.5 19.5q7 2 11.5 2.5t7.5 1.5q6 1 12 5t6 14v3l-1 15 q0 1 -0.5 1.5t-0.5 2.5q0 22 17 29l26 12q29 13 54 34t43.5 46t29 52.5t10.5 54.5q0 28 -18 48t-44 20q-53 0 -110 -57q-29 -29 -46 -56t-30 -63q-10 -29 -14 -52q-2 -16 -5.5 -22.5t-12.5 -13.5q-5 -3 -10 -5.5t-11 -4.5q-15 -5 -34.5 -8t-33.5 -3q-5 0 -5 1t8 16 q13 22 24 54t19 67t13 70.5t5 65.5q0 40 -7.5 73.5t-21 58t-32 38t-40.5 13.5q-30 0 -65.5 -22t-66.5 -60q-29 -37 -43 -78.5t-14 -95.5q0 -82 50 -142q9 -11 16.5 -18t16 -13.5t19.5 -12.5l28 -15q4 -1 4 -4t-6 -17t-14 -28l-21 -36l-22 -33q-29 -42 -53 -60t-51 -18 q-24 0 -44 14.5t-34.5 40.5t-22 62.5t-7.5 81.5q0 17 2.5 39.5t6 45.5t8.5 46t11 42q8 23 16.5 45t19.5 43q24 43 47.5 66t54.5 34q15 5 19.5 8.5t4.5 8.5q0 13 -10 13q-9 0 -37 -13q-15 -7 -32.5 -18.5t-34.5 -25.5q-36 -30 -66 -71t-51.5 -87.5t-33.5 -96t-12 -97.5 t11 -87.5t31.5 -67.5t49.5 -43.5t64 -15.5zM382 253q-4 -14 -6 -15h-1q-2 0 -3 1q-23 8 -39 23q-23 19 -36 35q-14 19 -22.5 48t-8.5 58q0 24 4 52t11 48q7 22 20 48t26 44q11 14 24 22.5t24 8.5q23 0 37.5 -36.5t14.5 -94.5q0 -14 -1.5 -33.5t-4.5 -41t-7 -43.5t-8 -41 q-2 -10 -8 -30zM776 430v-2q0 -39 -21 -77.5t-57 -67.5q-27 -21 -37 -21q-5 0 -7.5 3.5t-2.5 14.5q0 13 9 51q8 35 15.5 56t20.5 44q25 45 50 45q14 0 22 -13t8 -33z" />
<glyph unicode="&#x153;" horiz-adv-x="396" d="M145 242q-8 -7 -9 -8l-6 -8q-5 -7 -18 -10q-48 -11 -76.5 -44.5t-28.5 -77.5q0 -41 24 -68t60 -27q17 0 34 7.5t28 18.5l19 18q1 3 4 3q2 -1 3 -4q27 -46 84 -46q32 0 61 14t48 40q15 20 15 35q0 7 -7 7q-6 0 -11 -9q-1 -2 -5 -8q-10 -15 -13 -18q-11 -14 -29.5 -23 t-32.5 -9q-15 0 -25.5 14t-10.5 35q0 18 11 18q2 0 12 -2q9 -4 23 -4q18 0 34.5 7t28.5 18.5t19.5 26.5t7.5 32q0 29 -22 49t-54 20q-26 0 -49 -9.5t-48 -30.5q-3 -3 -4 -3t-3 8q-14 46 -43 46q-10 0 -21 -8zM151 190q0 19 12 19q9 0 14 -14t5 -38q0 -17 -10 -17 q-8 0 -14 18q-7 22 -7 32zM149 53q-14 -17 -30 -18h-2q-14 0 -22 12.5t-8 35.5q0 20 5 40.5t13 36.5q9 14 15 14q4 0 6 -3t5 -14q3 -7 13 -23q3 -5 6 -9t6 -9q8 -8 9.5 -11.5t1.5 -9.5q0 -9 -5 -20.5t-13 -21.5zM275 119q-12 0 -12 13q0 5 2.5 15.5t10.5 23.5q3 8 7 15t9 12 q12 15 25 15q14 0 14 -23q0 -16 -11.5 -35.5t-25.5 -29.5q-4 -2 -9 -4t-10 -2z" />
<glyph unicode="&#x178;" horiz-adv-x="549" d="M374 750q0 17 -10.5 28.5t-26.5 13.5h-3q-15 0 -25.5 -11.5t-10.5 -27.5q0 -17 11.5 -28.5t27.5 -11.5t26.5 10.5t10.5 26.5zM474 751q0 16 -10.5 27t-27.5 11q-14 0 -25 -11.5t-11 -27.5q0 -17 10.5 -27.5t26.5 -10.5q15 0 26 11.5t11 27.5zM450 201l3 19l87 399l2 9 q1 2 1 6q0 9 -7 9q-3 0 -8 -1l-55 -15q-12 -3 -15.5 -9.5t-8.5 -31.5q-1 -4 -4 -18.5t-11 -40.5l-28 -98q-21 -75 -53 -146.5t-70 -126.5q-29 -42 -54.5 -66.5t-39.5 -24.5q-8 0 -13.5 7t-5.5 16v7q0 5 2 10l9 40l19 70l32 112l33 118q12 42 17 69.5t5 51.5q0 48 -22 75.5 t-60 27.5t-75.5 -25.5t-66.5 -71.5q-26 -42 -41 -89.5t-15 -90.5q0 -32 9 -71t24 -74q5 -11 11 -11q2 0 3 2q1 1 1 3t-2 8t-4 13.5t-4 18.5q-6 37 -6 64q0 13 2 30.5t5.5 37t8 39.5t10.5 39q11 35 29.5 67t43.5 58q24 27 47 27t23 -31q0 -11 -3.5 -29.5t-11.5 -47.5l-20 -75 l-25 -94l-27 -94l-18 -69q-10 -38 -14.5 -59.5t-6.5 -26.5q-5 -23 -5 -49q0 -34 14 -53t38 -19q18 0 40.5 11.5t46.5 32.5t47.5 49.5t43.5 63.5l34 58q16 27 16 28q5 11 7.5 14.5t5.5 3.5q4 0 4 -5t-3 -11q-2 -5 -3 -21q-1 -5 -2 -11.5t-3 -15.5q-2 -12 -4 -20.5t-4 -13.5 q-3 -11 -4.5 -18t-2.5 -9q-2 -11 -3 -13t-3.5 -4.5t-6.5 -7.5q-10 -9 -22 -22t-23 -27l-22 -29q-11 -14 -18 -25q-17 -29 -27 -57t-10 -51q0 -24 9.5 -38t24.5 -14q10 0 24 6.5t28.5 17t29 24.5t25.5 29q17 25 31 57t29 83q5 17 9 32l7 27q5 21 8 26.5t13 7.5q10 3 22 3h6 q4 0 8 -1t7 -1.5t6 -0.5q7 0 11.5 8t4.5 19q0 8 -9 8q-7 0 -17 -1t-16 -2q-14 -3 -17 -3q-10 0 -10 8v1zM245 -105l-2 10l-1 7v4q0 11 10 37.5t23 50.5q5 8 11 16l13 19q13 17 18 22.5t9 5.5q6 0 6 -7q0 -6 -3 -20t-8.5 -32t-12.5 -38l-14 -41q-8 -22 -18 -34.5t-19 -12.5 t-12 13z" />
<glyph unicode="&#x2c6;" horiz-adv-x="174" d="M76 373l-28 -34l-25 -27q-16 -16 -16 -28q0 -6 4 -10.5t9 -4.5q4 0 17 7t27 17l12 8q6 5 12 5t10.5 -4.5t11.5 -17.5q4 -7 10.5 -9.5t22.5 -2.5q11 0 18 10q6 7 6 14q0 2 -3 8q-7 11 -11.5 26.5t-6.5 31.5q-4 41 -24 41q-21 0 -46 -30z" />
<glyph unicode="&#x2dc;" horiz-adv-x="258" d="M182 307l17 17l11 12q18 20 29.5 34t11.5 21q0 6 -4 10.5t-10 4.5q-13 0 -42 -24q-18 -16 -23.5 -19.5t-10.5 -3.5q-9 0 -15 11l-11 15q-7 9 -21 9q-22 0 -46 -30l-20 -25l-25 -27q-16 -16 -16 -28q0 -6 4 -10.5t9 -4.5t10 4l13 7l38 36q5 4 12.5 8t12.5 5h2q7 0 12 -10 q12 -25 33 -25q6 0 15 4t14 9z" />
<glyph unicode="&#x2000;" horiz-adv-x="436" />
<glyph unicode="&#x2001;" horiz-adv-x="872" />
<glyph unicode="&#x2002;" horiz-adv-x="436" />
<glyph unicode="&#x2003;" horiz-adv-x="872" />
<glyph unicode="&#x2004;" horiz-adv-x="290" />
<glyph unicode="&#x2005;" horiz-adv-x="218" />
<glyph unicode="&#x2006;" horiz-adv-x="145" />
<glyph unicode="&#x2007;" horiz-adv-x="145" />
<glyph unicode="&#x2008;" horiz-adv-x="109" />
<glyph unicode="&#x2009;" horiz-adv-x="174" />
<glyph unicode="&#x200a;" horiz-adv-x="48" />
<glyph unicode="&#x2010;" horiz-adv-x="144" d="M137 129q0 6 -3 8t-13 2h-5q-3 0 -7 -1q-20 -3 -31 -3q-5 0 -11 0.5t-12 1.5q-5 1 -9.5 1.5t-8.5 0.5q-16 0 -27 -24q-3 -6 -3 -15q0 -14 13 -14h4l13 3q5 0 11 0.5t12 0.5h9q12 0 19.5 -1t11.5 -3q9 -3 13 -3q9 0 16.5 14.5t7.5 31.5z" />
<glyph unicode="&#x2011;" horiz-adv-x="144" d="M137 129q0 6 -3 8t-13 2h-5q-3 0 -7 -1q-20 -3 -31 -3q-5 0 -11 0.5t-12 1.5q-5 1 -9.5 1.5t-8.5 0.5q-16 0 -27 -24q-3 -6 -3 -15q0 -14 13 -14h4l13 3q5 0 11 0.5t12 0.5h9q12 0 19.5 -1t11.5 -3q9 -3 13 -3q9 0 16.5 14.5t7.5 31.5z" />
<glyph unicode="&#x2013;" horiz-adv-x="515" d="M50 87l54 2h80h124l93 -3l58 -1q9 0 14.5 -1t7.5 -1q11 0 19 13.5t8 32.5q0 6 -3.5 8t-15.5 2h-13q-8 0 -19 -1q-6 0 -20 -0.5t-37 -0.5l-87 -1h-123l-68 1h-36q-13 0 -19 1q-8 1 -14 1h-10q-15 0 -25.5 -11.5t-10.5 -27.5q0 -9 4.5 -11.5t22.5 -2.5q11 0 16 1z" />
<glyph unicode="&#x2014;" horiz-adv-x="952" d="M847 137l-131 -1l-233 -2l-233 2q-43 0 -75 0.5t-53 0.5h-33q-14 0 -22 1t-14 1h-10q-15 0 -25.5 -11.5t-10.5 -27.5q0 -9 4.5 -11.5t22.5 -2.5q11 0 16 1l54 2h140h91q57 0 138 1q77 1 136 1t101 -2q127 -3 139 -3h29q12 0 19 -1q6 -1 10.5 -1.5t8.5 -0.5q14 0 22 12.5 t8 33.5q0 6 -4 8t-15 2h-13q-8 0 -19 -1q-8 -1 -20 -1h-28z" />
<glyph unicode="&#x2018;" horiz-adv-x="120" d="M23 531q18 0 32.5 8t17.5 19l4 17q3 14 9 31t14 36q2 4 4 10t7 15q3 6 3 11q0 10 -12 10q-25 0 -73 -87q-14 -24 -18 -35.5t-4 -19.5q0 -15 16 -15z" />
<glyph unicode="&#x2019;" horiz-adv-x="120" d="M97 684q-18 0 -32.5 -8.5t-17.5 -19.5l-4 -17q-3 -13 -9 -30.5t-14 -36.5q-1 -3 -4 -9l-6 -15q-3 -8 -3 -12q0 -9 12 -9q26 0 73 86q13 24 17.5 35.5t4.5 19.5q0 16 -17 16z" />
<glyph unicode="&#x201a;" horiz-adv-x="120" d="M97 73q-18 0 -32.5 -8t-17.5 -19l-4 -17q-3 -14 -9 -31.5t-14 -36.5q-1 -3 -4 -9l-6 -15q-3 -8 -3 -12q0 -9 12 -9q26 0 73 87q13 24 17.5 35t4.5 19q0 16 -17 16z" />
<glyph unicode="&#x201c;" horiz-adv-x="229" d="M132 531q18 0 32.5 8t17.5 19l4 17q3 14 9 31t14 36q2 4 4 10t7 15q3 6 3 11q0 10 -12 10q-25 0 -73 -87q-14 -24 -18 -35.5t-4 -19.5q0 -15 16 -15zM23 531q18 0 32.5 8t17.5 19l4 17q3 14 9 31t14 36q2 4 4 10t7 15q3 6 3 11q0 10 -12 10q-25 0 -73 -87 q-14 -24 -18 -35.5t-4 -19.5q0 -15 16 -15z" />
<glyph unicode="&#x201d;" horiz-adv-x="229" d="M97 684q-18 0 -32.5 -8.5t-17.5 -19.5l-4 -17q-3 -13 -9 -30.5t-14 -36.5q-1 -3 -4 -9l-6 -15q-3 -8 -3 -12q0 -9 12 -9q26 0 73 86q13 24 17.5 35.5t4.5 19.5q0 16 -17 16zM206 684q-18 0 -32.5 -8.5t-17.5 -19.5l-4 -17q-3 -13 -9 -30.5t-14 -36.5l-3 -9l-7 -15 q-3 -8 -3 -12q0 -9 12 -9q26 0 73 86q13 24 17.5 35.5t4.5 19.5q0 16 -17 16z" />
<glyph unicode="&#x201e;" horiz-adv-x="229" d="M97 73q-18 0 -32.5 -8t-17.5 -19l-4 -17q-3 -14 -9 -31.5t-14 -36.5q-1 -3 -4 -9l-6 -15q-3 -8 -3 -12q0 -9 12 -9q26 0 73 87q13 24 17.5 35t4.5 19q0 16 -17 16zM206 73q-18 0 -32.5 -8t-17.5 -19l-4 -17q-3 -14 -9 -31.5t-14 -36.5l-3 -9l-7 -15q-3 -8 -3 -12 q0 -9 12 -9q26 0 73 87q13 24 17.5 35t4.5 19q0 16 -17 16z" />
<glyph unicode="&#x2022;" horiz-adv-x="280" d="M140 421q-27 0 -50.5 -10.5t-41.5 -28.5t-29 -42.5t-12 -52.5q-1 -27 9 -51t28 -42.5t42.5 -29t53.5 -10.5q28 0 52 10.5t42 28.5t28.5 42.5t10.5 51.5q0 28 -10.5 52.5t-28.5 42.5t-42 28.5t-52 10.5z" />
<glyph unicode="&#x2026;" horiz-adv-x="332" d="M85 34q0 19 -9 31t-26 12h-4q-17 0 -28 -12t-11 -29t11 -28t29 -11q38 0 38 37zM205 34q0 19 -9 31t-26 12h-4q-17 0 -28 -12t-11 -29t11 -28t29 -11q38 0 38 37zM325 34q0 19 -9 31t-26 12h-4q-17 0 -28 -12t-11 -29t11 -28t29 -11q38 0 38 37z" />
<glyph unicode="&#x202f;" horiz-adv-x="174" />
<glyph unicode="&#x205f;" horiz-adv-x="218" />
<glyph unicode="&#x2122;" horiz-adv-x="756" d="M318 669q-8 0 -20.5 -3t-21.5 -8l-18 -9q-5 -3 -9 -3q-2 0 -12 2q-11 3 -17 5t-8 2q-4 2 -26 7l-36 7q-11 2 -22 2q-31 0 -60.5 -15t-47.5 -39q-13 -19 -13 -37q0 -8 2.5 -14.5t7.5 -6.5q4 0 6 2q5 2 8.5 5.5t3.5 6.5q0 1 -2 5l-3 6l-2 6q-2 8 -2 7q0 14 14.5 21.5 t38.5 7.5q7 0 16.5 -0.5t18.5 -1.5q27 -3 37 -6l24 -8q14 -5 14 -9t-16 -17q-11 -8 -29 -27t-34 -40q-19 -25 -31 -49q-14 -28 -22 -59.5t-8 -58.5t8.5 -50.5t24 -41t36 -27.5t44.5 -10q35 0 67 17t57 46t39.5 66t14.5 78q0 46 -20 76t-52 30q-23 0 -46 -18.5t-39 -48.5 q-10 -20 -15.5 -42.5t-5.5 -44.5q0 -26 6.5 -53.5t17.5 -46.5q4 -6 8 -6t4 6q0 1 -2 7q-2 3 -4 7l-3 11q-3 11 -5 20t-2 16q-1 3 -1 9q0 25 11 67q2 11 4.5 19.5t5.5 15.5q11 29 28.5 47t33.5 18t26.5 -17.5t10.5 -43.5q0 -27 -14 -68.5t-37 -84.5q-17 -32 -37.5 -49 t-41.5 -17q-28 0 -43.5 28t-15.5 79q0 53 16 105t45 96q9 14 19.5 26.5t16.5 18.5t15 6h4q3 0 6 -1l15 -3q5 -1 10 -1.5t10 -0.5q17 0 35 7t31 19q8 8 13.5 16.5t5.5 14.5q0 9 -10.5 15.5t-25.5 6.5zM719 578l14 32l12 29q5 11 5 17t-4.5 11t-9.5 5q-19 0 -53.5 -27.5 t-75.5 -74.5l-11 -12q-4 -5 -6 -7t-3.5 -4t-3.5 -4q-3 -4 -5 -4q-3 0 -3 4q0 1 0.5 2t0.5 3q7 17 11 39.5t4 42.5t-7.5 32t-18.5 12q-27 0 -62 -43t-68 -118l-37 -84q-20 -46 -38.5 -82.5t-39.5 -69.5q-20 -32 -36.5 -52t-35.5 -33q-27 -19 -54 -19q-23 0 -39 13q-4 2 -5 2 q-3 0 -8 -7q-3 -3 -3 -8t16 -9t36 -4q40 0 84 26t79 70q24 31 45.5 67t44.5 86q4 10 12 27.5t16 38.5l18 43l17 41l13 33q6 13 11 21l14 26q9 16 15 16q7 0 7 -14v-7l-2 -26q-1 -12 -5.5 -32.5t-13.5 -55.5q-3 -12 -4.5 -19.5t-3.5 -11.5q-3 -11 -4.5 -15t-6.5 -12 q-37 -59 -54.5 -103.5t-17.5 -80.5q0 -21 7 -34.5t18 -13.5q10 0 20 10.5t18 28.5q6 14 9.5 29t5.5 32q1 6 3 24q1 8 2 13t4 13l6 16q3 8 7 16q11 26 28 57.5t33 54.5q2 4 10 15l22 30q10 15 18 25l12 16l12 12l12 13q4 3 7 5.5t6 4.5q4 2 7 2q5 0 5 -4t-5 -12l-6 -9l-9 -14 q-12 -21 -19.5 -33t-12.5 -21l-9 -16q-4 -8 -10 -18q-16 -29 -29 -57.5t-22 -54.5q-23 -62 -23 -108q0 -31 14 -49.5t39 -18.5q20 0 43.5 14t42.5 38q11 14 19 27t8 19q0 5 -1 8l-3 10q-2 8 -2 11q-1 4 -3 4q-3 0 -4 -7q-5 -39 -23.5 -65t-41.5 -26t-23 48q0 17 4.5 47 t11.5 57q3 10 5.5 19.5t6.5 21.5l9 28l15 40q12 34 20 52zM298 650q12 4 16 4h1q19 0 19 -9q0 -2 -4 -6q-9 -6 -20 -6q-26 0 -26 8q0 5 14 9z" />
</font>
</defs>
</svg>
